<svg xmlns="http://www.w3.org/2000/svg" width="28.821" height="37.288" viewBox="0 0 28.821 37.288"><defs><style>.a{fill:#636569;}</style></defs><g transform="translate(-9695 -506.881)"><path class="a" d="M9722.351,515.72h-.277l.042-1.157a3.577,3.577,0,0,0-3.575-3.71h-4.748v-1.725a2.249,2.249,0,0,0-2.247-2.247h-4.269a2.249,2.249,0,0,0-2.247,2.247v1.725h-4.748a3.579,3.579,0,0,0-3.576,3.71l.043,1.157h-.278a1.47,1.47,0,0,0,0,2.94h.388l.813,22.064a3.566,3.566,0,0,0,3.576,3.445h16.329a3.566,3.566,0,0,0,3.575-3.445l.813-22.064h.387a1.47,1.47,0,1,0,0-2.94Zm-14.383-5.9h2.885v1.032h-2.885Zm-8.326,4.634a.64.64,0,0,1,.64-.662h18.259a.637.637,0,0,1,.638.662l-.047,1.265h-19.441Zm18.571,26.16a.636.636,0,0,1-.639.615h-1.539V529.036a1.47,1.47,0,1,0-2.939,0V541.23h-2.216V529.036a1.469,1.469,0,1,0-2.938,0V541.23h-2.218V529.036a1.469,1.469,0,1,0-2.938,0V541.23h-1.539a.635.635,0,0,1-.638-.614l-.812-21.956h19.227Zm0,0"/></g></svg>