<svg xmlns="http://www.w3.org/2000/svg" width="32.79" height="36.575" viewBox="0 0 32.79 36.575"><defs><style>.a{fill:#88c425;}</style></defs><path class="a" d="M8284.23,2210.147a1.428,1.428,0,0,1-1.43,1.428h-6.286a5.721,5.721,0,0,1-5.715-5.715v-25.145a5.722,5.722,0,0,1,5.715-5.715h17.566a5.721,5.721,0,0,1,5.714,5.715v13.644a1.428,1.428,0,1,1-2.856,0v-13.644a2.861,2.861,0,0,0-2.857-2.858h-17.566a2.861,2.861,0,0,0-2.856,2.858v25.145a2.861,2.861,0,0,0,2.856,2.858h6.286a1.428,1.428,0,0,1,1.43,1.429Zm8.422-26.575h-14.717a1.429,1.429,0,0,0,0,2.858h14.717a1.429,1.429,0,0,0,0-2.858Zm1.429,7.144a1.429,1.429,0,0,0-1.429-1.429h-14.717a1.429,1.429,0,0,0,0,2.858h14.717a1.429,1.429,0,0,0,1.429-1.429ZM8277.936,2195a1.429,1.429,0,0,0,0,2.858h7.51a1.429,1.429,0,0,0,0-2.858Zm25.395,10.465c-.051.072-.223.316-.33.45a20.021,20.021,0,0,1-3.157,3.255,8.974,8.974,0,0,1-12.224,0,20.152,20.152,0,0,1-3.157-3.255c-.106-.134-.279-.378-.329-.45a1.428,1.428,0,0,1,0-1.643c.05-.071.223-.315.329-.45a20.188,20.188,0,0,1,3.157-3.254,8.974,8.974,0,0,1,12.224,0,20.013,20.013,0,0,1,3.157,3.255c.107.134.279.378.33.45a1.43,1.43,0,0,1,0,1.642Zm-2.981-.821c-2.271-2.7-4.5-4.072-6.617-4.072s-4.347,1.369-6.618,4.072c2.271,2.7,4.5,4.072,6.618,4.072s4.347-1.369,6.617-4.072Zm-6.546-2.715a2.715,2.715,0,1,0,2.714,2.715,2.715,2.715,0,0,0-2.714-2.715Zm0,0" transform="translate(-8270.8 -2175)"/></svg>