<svg xmlns="http://www.w3.org/2000/svg" width="36.839" height="37" viewBox="0 0 36.839 37"><defs><style>.a{fill:#636569;}</style></defs><g transform="translate(-9601 -507)"><path class="a" d="M9636.34,508.247l-.044-.04a4.61,4.61,0,0,0-6.514.294l-16.476,18.038a1.611,1.611,0,0,0-.335.569l-1.937,5.808a2.2,2.2,0,0,0,2.979,2.72l5.609-2.454a1.592,1.592,0,0,0,.537-.384l16.475-18.038a4.616,4.616,0,0,0-.295-6.513Zm-21.593,23.6,1.137-3.408.095-.1,2.155,1.967-.1.106Zm19.539-19.228-14.006,15.334-2.155-1.968,14.007-15.334a1.429,1.429,0,0,1,2.019-.091l.045.04a1.432,1.432,0,0,1,.091,2.019Zm0,0"/><path class="a" d="M9633.144,521.677a1.59,1.59,0,0,0-1.591,1.59v13.506a4.05,4.05,0,0,1-4.045,4.045h-19.28a4.051,4.051,0,0,1-4.046-4.045V517.649a4.05,4.05,0,0,1,4.046-4.045h13.955a1.591,1.591,0,0,0,0-3.182h-13.955a7.235,7.235,0,0,0-7.228,7.227v19.123a7.236,7.236,0,0,0,7.228,7.228h19.28a7.235,7.235,0,0,0,7.227-7.228v-13.5a1.59,1.59,0,0,0-1.591-1.59Zm0,0"/></g></svg>