<svg xmlns="http://www.w3.org/2000/svg" width="28.995" height="36.575" viewBox="0 0 28.995 36.575"><defs><style>.a{fill:#88c425;}</style></defs><path class="a" d="M12483.229,2090.575h-17.564a5.721,5.721,0,0,1-5.715-5.715v-25.145a5.721,5.721,0,0,1,5.715-5.715h17.564a5.722,5.722,0,0,1,5.716,5.715v18a1.429,1.429,0,1,1-2.857,0v-18a2.861,2.861,0,0,0-2.858-2.858h-17.564a2.861,2.861,0,0,0-2.857,2.858v25.145a2.861,2.861,0,0,0,2.857,2.858h17.564a2.861,2.861,0,0,0,2.858-2.858,1.429,1.429,0,0,1,2.857,0A5.721,5.721,0,0,1,12483.229,2090.575Zm.009-25.931a1.429,1.429,0,0,0-1.429-1.429h-4.215a1.429,1.429,0,0,0,0,2.858h4.215A1.429,1.429,0,0,0,12483.237,2064.644Zm-13.715,2a2.492,2.492,0,0,0,1.767-.915l3.335-4.036a1.429,1.429,0,0,0-2.2-1.82l-3.087,3.736-1.218-1.251a1.429,1.429,0,0,0-2.047,1.994l1.532,1.574.038.038a2.5,2.5,0,0,0,1.719.686C12469.412,2066.653,12469.467,2066.651,12469.522,2066.647Zm13.715,6.784a1.429,1.429,0,0,0-1.429-1.429h-4.215a1.428,1.428,0,1,0,0,2.857h4.215A1.428,1.428,0,0,0,12483.237,2073.431Zm-13.715,1.994a2.5,2.5,0,0,0,1.767-.915l3.335-4.036a1.429,1.429,0,0,0-2.2-1.82l-3.088,3.737-1.219-1.246a1.429,1.429,0,1,0-2.042,2l1.533,1.566.034.035a2.5,2.5,0,0,0,1.719.686Q12469.439,2075.431,12469.522,2075.425Zm13.715,6.649a1.428,1.428,0,0,0-1.429-1.428h-4.215a1.428,1.428,0,1,0,0,2.857h4.215A1.429,1.429,0,0,0,12483.237,2082.074Zm-13.715,2a2.5,2.5,0,0,0,1.767-.915l3.335-4.036a1.429,1.429,0,0,0-2.2-1.82l-3.088,3.737-1.219-1.246a1.429,1.429,0,1,0-2.042,2l1.533,1.565.034.036a2.5,2.5,0,0,0,1.719.686Q12469.439,2084.075,12469.522,2084.069Z" transform="translate(-12459.949 -2054)"/></svg>