<svg xmlns="http://www.w3.org/2000/svg" width="121.505" height="126.961" viewBox="0 0 121.505 126.961"><g transform="translate(-8986.029 -392.039)"><path d="M9013.405,444h9.659a4.783,4.783,0,0,0,4.783-4.771V429.6a4.783,4.783,0,0,0-4.783-4.771h-9.659a4.779,4.779,0,0,0-4.776,4.771v9.636a4.78,4.78,0,0,0,4.776,4.771Zm.183-14.218h9.3v9.259h-9.3Zm0,0"/><path d="M9099.527,461.34a8.313,8.313,0,0,0-3.467.756,7.653,7.653,0,0,0-5.1-5.066V403.74a11.725,11.725,0,0,0-11.723-11.7h-81.481a11.725,11.725,0,0,0-11.723,11.7v6.6a5.632,5.632,0,0,0,5.628,5.622h2.417v93.13a5.632,5.632,0,0,0,5.629,5.622h65.626A25.471,25.471,0,0,0,9079.245,519a24.467,24.467,0,0,0,8.055-1.381,28.706,28.706,0,0,0,14.494-11.764,38.451,38.451,0,0,0,5.739-21.074V469.65a7.894,7.894,0,0,0-8.006-8.31Zm-100.494,47.751v-93.13h22.72a2.48,2.48,0,1,0,0-4.96h-30.1a.675.675,0,0,1-.669-.662v-6.6a6.76,6.76,0,0,1,6.764-6.742h71.906a11.614,11.614,0,0,0-2.146,6.742v6.6a.675.675,0,0,1-.671.662h-22.769a2.48,2.48,0,1,0,0,4.96h22.769a5.632,5.632,0,0,0,5.63-5.621v-6.6a6.763,6.763,0,0,1,13.526,0v53.289a8.32,8.32,0,0,0-.983.376,7.809,7.809,0,0,0-7.584-5.447,8.319,8.319,0,0,0-3.044.576V438.571a8.008,8.008,0,1,0-16,0V474.4c0,1.129.021,2.158.038,3.066,0,.1,0,.2.007.3l-5.764-6.18c-3.358-3.594-8.213-3.962-11.806-.9a10.05,10.05,0,0,0-1.22,14.022l17.211,22.09q1.228,1.576,2.546,2.955H8999.7a.676.676,0,0,1-.67-.663Zm103.541-24.3c.078,13.505-6.556,24.551-16.9,28.139-8.751,3.035-18.065-.4-24.915-9.183l-17.21-22.09a5.156,5.156,0,0,1,.527-7.2,3.522,3.522,0,0,1,2.224-.9,3.751,3.751,0,0,1,2.736,1.4l6.038,6.474c1.705,1.825,3.824,4.1,6.175,3.145,1.873-.759,2.047-2.876,2.1-3.571.079-.957.056-2.144.024-3.647-.016-.885-.037-1.888-.037-2.967v-35.83c0-3.189,2.537-3.35,3.044-3.35s3.043.161,3.043,3.35v35.5a2.479,2.479,0,0,0,4.959,0v-13.8c0-3.189,2.537-3.35,3.044-3.35a3.089,3.089,0,0,1,2.1.786,3.359,3.359,0,0,1,.942,2.564v13.8a2.48,2.48,0,0,0,4.96,0v-9.109c0-3.192,2.533-3.353,3.041-3.353a3.089,3.089,0,0,1,2.1.787,3.366,3.366,0,0,1,.944,2.566v9.109a2.479,2.479,0,0,0,4.959,0V469.65c0-3.189,2.537-3.35,3.047-3.35a3.1,3.1,0,0,1,2.1.786,3.359,3.359,0,0,1,.944,2.564V484.8Zm0,0"/><path d="M9033.321,427.3a2.48,2.48,0,0,0,2.479,2.48h19.848a2.48,2.48,0,0,0,0-4.96H9035.8a2.48,2.48,0,0,0-2.479,2.48Zm0,0"/><path d="M9051.435,439.044H9035.8a2.479,2.479,0,1,0,0,4.959h15.634a2.479,2.479,0,1,0,0-4.959Zm0,0"/><path d="M9011.108,458.228h37.874a2.48,2.48,0,0,0,0-4.96h-37.874a2.48,2.48,0,0,0,0,4.96Zm0,0"/><path d="M9011.108,472.446h20.431a2.48,2.48,0,0,0,0-4.959h-20.431a2.48,2.48,0,0,0,0,4.959Zm0,0"/><path d="M9011.108,486.671H9029.1a2.48,2.48,0,1,0,0-4.96h-17.993a2.48,2.48,0,0,0,0,4.96Zm0,0"/><path d="M9037.506,495.93h-26.4a2.48,2.48,0,0,0,0,4.959h26.4a2.48,2.48,0,1,0,0-4.959Zm0,0"/><path d="M9032.913,415.961h.015a2.487,2.487,0,1,0-.015,0Zm0,0"/></g></svg>