<svg xmlns="http://www.w3.org/2000/svg" width="37" height="37" viewBox="0 0 37 37"><defs><style>.a{fill:#224596;}</style></defs><g transform="translate(-779 -565)"><path class="a" d="M799.042,592.75a1.542,1.542,0,1,1-1.542-1.542,1.543,1.543,0,0,1,1.542,1.542Zm0,0"/><path class="a" d="M797.5,602A18.5,18.5,0,1,1,816,583.5,18.521,18.521,0,0,1,797.5,602Zm0-34.688A16.188,16.188,0,1,0,813.688,583.5,16.206,16.206,0,0,0,797.5,567.312Zm0,0"/><path class="a" d="M797.5,587.74a1.157,1.157,0,0,1-1.156-1.157v-1.557a3.476,3.476,0,0,1,2.315-3.271,4.783,4.783,0,0,0,3.081-4.036,4.24,4.24,0,0,0-8.48,0,1.156,1.156,0,0,1-2.312,0,6.552,6.552,0,0,1,13.1,0,7.092,7.092,0,0,1-4.623,6.217,1.157,1.157,0,0,0-.773,1.092v1.555a1.157,1.157,0,0,1-1.156,1.157Zm0,0"/></g></svg>