<svg xmlns="http://www.w3.org/2000/svg" width="258.075" height="61.888" viewBox="0 0 258.075 61.888"><defs><style>.a{fill:#636569;}</style></defs><g transform="translate(-1552.263 -2506.918)"><path class="a" d="M1616.11,2540.679v-.039a6.7,6.7,0,0,1,6.692-6.9,7.033,7.033,0,0,1,4.977,1.774l-.973,1.144a5.663,5.663,0,0,0-4.061-1.525,5.214,5.214,0,0,0-5.071,5.47v.037c0,3.186,2.04,5.547,5.28,5.547a6.285,6.285,0,0,0,3.852-1.334v-3.316h-4.061v-1.354h5.511v5.321a8.1,8.1,0,0,1-5.358,2.039,6.545,6.545,0,0,1-6.788-6.864"/><path class="a" d="M1641.5,2540.679v-.039a5.3,5.3,0,0,0-5.265-5.507,5.24,5.24,0,0,0-5.222,5.47v.037a5.307,5.307,0,0,0,5.261,5.512,5.244,5.244,0,0,0,5.226-5.473m-12.051,0v-.039a6.806,6.806,0,1,1,13.612-.037v.037a6.806,6.806,0,1,1-13.612.039"/><path class="a" d="M1650.608,2545.959c2.021,0,3.279-.9,3.279-2.381v-.039c0-1.449-1.219-2.287-3.547-2.287h-4.212v4.707Zm-.534-6.043c1.811,0,3.07-.819,3.07-2.383v-.037c0-1.317-1.05-2.176-2.956-2.176h-4.06v4.6Zm-5.433-5.947h5.681a4.9,4.9,0,0,1,3.49,1.183,2.961,2.961,0,0,1,.856,2.133v.039a3.219,3.219,0,0,1-2.116,3.088c1.583.478,2.86,1.39,2.86,3.222v.04c0,2.285-1.926,3.64-4.842,3.64h-5.929Z"/><rect class="a" width="1.509" height="13.346" transform="translate(1656.579 2533.969)"/><path class="a" d="M1660.562,2533.969h9.648v1.373h-8.138v4.557h7.281v1.373h-7.281v4.67h8.234v1.373h-9.744Z"/><path class="a" d="M1677.337,2540.773c2,0,3.431-1.027,3.431-2.744v-.039c0-1.639-1.26-2.631-3.415-2.631h-4.116v5.414Zm-5.606-6.8h5.739a5.271,5.271,0,0,1,3.793,1.333,3.689,3.689,0,0,1,1.03,2.631v.039c0,2.211-1.525,3.508-3.621,3.887l4.1,5.455h-1.848l-3.872-5.187h-3.812v5.187h-1.506Z"/><path class="a" d="M1683.255,2533.969h1.41l8.408,10.7v-10.7h1.468v13.346h-1.2l-8.619-10.943v10.943h-1.466Z"/><path class="a" d="M1707.514,2540.679v-.039a5.3,5.3,0,0,0-5.261-5.507,5.242,5.242,0,0,0-5.224,5.47v.037a5.307,5.307,0,0,0,5.263,5.512,5.242,5.242,0,0,0,5.222-5.473m-12.048,0v-.039a6.807,6.807,0,1,1,13.614-.037v.037a6.807,6.807,0,1,1-13.614.039"/><path class="a" d="M1719.682,2545.922a5.165,5.165,0,0,0,5.528-5.243v-.039a5.194,5.194,0,0,0-5.528-5.281h-3.127v10.563Zm-4.633-11.953h4.633c4.194,0,7.092,2.878,7.092,6.634v.037c0,3.758-2.9,6.674-7.092,6.674h-4.633Z"/><path class="a" d="M1728.228,2533.969h9.646v1.373h-8.141v4.557h7.282v1.373h-7.282v4.67h8.235v1.373h-9.741Z"/><path class="a" d="M1739.271,2533.969h1.506v11.953h7.512v1.393h-9.018Z"/><path class="a" d="M1616.11,2552.461h10.048v2.613h-7.149v2.705h6.29v2.611h-6.29v2.8h7.243v2.611H1616.11Z"/><path class="a" d="M1633.174,2566a8.835,8.835,0,0,1-2.994-.524,7.961,7.961,0,0,1-2.668-1.613l1.735-2.078a8.643,8.643,0,0,0,1.878,1.182,5,5,0,0,0,2.1.439,2.577,2.577,0,0,0,1.421-.332,1.059,1.059,0,0,0,.505-.928v-.037a1.16,1.16,0,0,0-.106-.506,1.073,1.073,0,0,0-.4-.41,4.221,4.221,0,0,0-.822-.379c-.351-.127-.808-.261-1.368-.4a16.807,16.807,0,0,1-1.834-.553,5.063,5.063,0,0,1-1.4-.754,3.03,3.03,0,0,1-.89-1.113,3.862,3.862,0,0,1-.315-1.658v-.039a3.875,3.875,0,0,1,.342-1.651,3.728,3.728,0,0,1,.954-1.265,4.291,4.291,0,0,1,1.471-.821,5.91,5.91,0,0,1,1.885-.285,8,8,0,0,1,2.7.438,7.851,7.851,0,0,1,2.259,1.258l-1.525,2.212a9.692,9.692,0,0,0-1.755-.964,4.51,4.51,0,0,0-1.714-.352,2.071,2.071,0,0,0-1.287.334,1.013,1.013,0,0,0-.43.828v.037a1.228,1.228,0,0,0,.123.565,1.121,1.121,0,0,0,.453.427,4.223,4.223,0,0,0,.888.364c.375.115.848.248,1.423.4a13.955,13.955,0,0,1,1.807.6,5.114,5.114,0,0,1,1.339.8,3.055,3.055,0,0,1,.82,1.095,3.736,3.736,0,0,1,.278,1.506v.041a4.137,4.137,0,0,1-.36,1.762,3.634,3.634,0,0,1-1,1.3,4.554,4.554,0,0,1-1.536.8,6.726,6.726,0,0,1-1.98.277"/><path class="a" d="M1642.71,2555.168h-4.059v-2.707h11.055v2.707h-4.059V2565.8h-2.937Z"/><path class="a" d="M1657.558,2560.222l-1.774-4.328-1.774,4.328Zm-3.091-7.857h2.709l5.718,13.441h-3.068l-1.22-2.994h-5.645l-1.219,2.994h-2.992Z"/><path class="a" d="M1670.21,2563.154a4.509,4.509,0,0,0,1.638-.283,3.522,3.522,0,0,0,1.271-.822,3.8,3.8,0,0,0,.82-1.258,4.259,4.259,0,0,0,.3-1.619v-.039a4.365,4.365,0,0,0-.3-1.619,3.772,3.772,0,0,0-.82-1.278,3.664,3.664,0,0,0-1.271-.832,4.464,4.464,0,0,0-1.638-.3h-2.267v8.045Zm-5.2-10.693h5.2a7.829,7.829,0,0,1,2.871.508,6.675,6.675,0,0,1,2.248,1.4,6.265,6.265,0,0,1,1.461,2.107,6.671,6.671,0,0,1,.512,2.622v.037a6.735,6.735,0,0,1-.512,2.632,6.215,6.215,0,0,1-1.461,2.116,6.9,6.9,0,0,1-2.248,1.41,7.77,7.77,0,0,1-2.871.515h-5.2Z"/><path class="a" d="M1686.663,2563.328a4.03,4.03,0,0,0,1.621-.324,3.66,3.66,0,0,0,1.268-.9,4.225,4.225,0,0,0,.82-1.324,4.35,4.35,0,0,0,.3-1.611v-.038a4.41,4.41,0,0,0-.3-1.62,4.016,4.016,0,0,0-.839-1.335,4.071,4.071,0,0,0-1.287-.906,3.917,3.917,0,0,0-1.619-.334,3.987,3.987,0,0,0-1.632.325,3.723,3.723,0,0,0-1.258.9,4.246,4.246,0,0,0-.82,1.324,4.352,4.352,0,0,0-.294,1.612v.038a4.43,4.43,0,0,0,.294,1.62,4.044,4.044,0,0,0,.839,1.336,4.1,4.1,0,0,0,1.277.9,3.917,3.917,0,0,0,1.63.334m-.036,2.707a7.308,7.308,0,0,1-2.842-.543,7.03,7.03,0,0,1-2.241-1.469,6.515,6.515,0,0,1-1.466-2.174,6.789,6.789,0,0,1-.526-2.677v-.038a6.783,6.783,0,0,1,.535-2.679,6.82,6.82,0,0,1,3.727-3.68,7.723,7.723,0,0,1,5.689,0,7.043,7.043,0,0,1,2.242,1.469,6.568,6.568,0,0,1,1.466,2.174,6.824,6.824,0,0,1,.526,2.678v.038a6.751,6.751,0,0,1-.534,2.678,6.828,6.828,0,0,1-3.727,3.68,7.368,7.368,0,0,1-2.849.543"/><path class="a" d="M1706.671,2563.154a4.519,4.519,0,0,0,1.639-.283,3.528,3.528,0,0,0,1.268-.822,3.816,3.816,0,0,0,.821-1.258,4.262,4.262,0,0,0,.294-1.619v-.039a4.367,4.367,0,0,0-.294-1.619,3.792,3.792,0,0,0-.821-1.278,3.671,3.671,0,0,0-1.268-.832,4.474,4.474,0,0,0-1.639-.3H1704.4v8.045Zm-5.205-10.693h5.205a7.835,7.835,0,0,1,2.87.508,6.7,6.7,0,0,1,2.25,1.4,6.286,6.286,0,0,1,1.458,2.107,6.655,6.655,0,0,1,.515,2.622v.037a6.719,6.719,0,0,1-.515,2.632,6.236,6.236,0,0,1-1.458,2.116,6.917,6.917,0,0,1-2.25,1.41,7.776,7.776,0,0,1-2.87.515h-5.205Z"/><path class="a" d="M1716.427,2552.461h10.049v2.613h-7.15v2.705h6.292v2.611h-6.292v2.8h7.243v2.611h-10.142Z"/><path class="a" d="M1733.261,2552.461h3.165l3.507,5.643,3.508-5.643h3.166v13.346h-2.9v-8.713l-3.758,5.7h-.078l-3.715-5.645v8.656h-2.9Z"/><path class="a" d="M1755.095,2548.037l2.5,1.088-2.441,2.285h-2.211Zm-5.587,4.424h10.048v2.613h-7.148v2.705h6.291v2.611h-6.291v2.805h7.243v2.611h-10.143Z"/><path class="a" d="M1765.447,2559.019l-4.461-6.559h3.431l2.8,4.328,2.821-4.328h3.338l-4.463,6.521,4.652,6.822h-3.432l-2.992-4.572-3.014,4.572H1760.8Z"/><rect class="a" width="2.937" height="13.346" transform="translate(1776.652 2552.461)"/><path class="a" d="M1788.7,2566.035a6.969,6.969,0,0,1-2.728-.533,6.77,6.77,0,0,1-2.171-1.459,6.673,6.673,0,0,1-1.43-2.184,7.006,7.006,0,0,1-.515-2.687v-.038a6.951,6.951,0,0,1,.515-2.679,6.867,6.867,0,0,1,1.43-2.191,6.616,6.616,0,0,1,2.193-1.489,7.123,7.123,0,0,1,2.821-.543,8.87,8.87,0,0,1,1.705.152,7.3,7.3,0,0,1,1.4.418,6.261,6.261,0,0,1,1.164.649,8.106,8.106,0,0,1,.992.84l-1.869,2.156a6.984,6.984,0,0,0-1.592-1.107,4.066,4.066,0,0,0-1.82-.4,3.7,3.7,0,0,0-1.554.325,3.649,3.649,0,0,0-1.229.9,4.185,4.185,0,0,0-.8,1.324,4.516,4.516,0,0,0-.283,1.612v.038a4.6,4.6,0,0,0,.283,1.62,4.318,4.318,0,0,0,.792,1.336,3.678,3.678,0,0,0,2.794,1.238,4.065,4.065,0,0,0,1.934-.42,7.4,7.4,0,0,0,1.573-1.143l1.868,1.887a9.306,9.306,0,0,1-1.069.99,6.253,6.253,0,0,1-2.648,1.231,8.754,8.754,0,0,1-1.754.162"/><path class="a" d="M1803.264,2563.328a4.019,4.019,0,0,0,1.62-.324,3.678,3.678,0,0,0,1.27-.9,4.2,4.2,0,0,0,.819-1.324,4.392,4.392,0,0,0,.295-1.611v-.038a4.453,4.453,0,0,0-.295-1.62,4,4,0,0,0-.839-1.335,4.083,4.083,0,0,0-1.287-.906,3.927,3.927,0,0,0-1.621-.334,3.989,3.989,0,0,0-1.631.325,3.73,3.73,0,0,0-1.257.9,4.231,4.231,0,0,0-.821,1.324,4.414,4.414,0,0,0-.294,1.612v.038a4.494,4.494,0,0,0,.294,1.62,4.015,4.015,0,0,0,.841,1.336,4.086,4.086,0,0,0,1.276.9,3.92,3.92,0,0,0,1.63.334m-.038,2.707a7.3,7.3,0,0,1-2.84-.543,7.035,7.035,0,0,1-2.24-1.469,6.565,6.565,0,0,1-1.469-2.174,6.842,6.842,0,0,1-.523-2.677v-.038a6.732,6.732,0,0,1,.535-2.679,6.843,6.843,0,0,1,3.725-3.68,7.35,7.35,0,0,1,2.85-.543,7.262,7.262,0,0,1,2.841.543,7.078,7.078,0,0,1,2.242,1.469,6.6,6.6,0,0,1,1.466,2.174,6.841,6.841,0,0,1,.525,2.678v.038a6.732,6.732,0,0,1-.534,2.678,6.808,6.808,0,0,1-3.728,3.68,7.36,7.36,0,0,1-2.85.543"/><path class="a" d="M1577.092,2510.8c-.012.147.161.142.161.142l.445-.282-.051.011-.381.112.106-.243.072-.119a.6.6,0,0,1,.1-.256.08.08,0,0,0-.071-.126l-.13.1c-.02.043.042.117-.038.258a1.574,1.574,0,0,0-.213.4"/><path class="a" d="M1577.621,2510.406c-.023-.1-.034-.133-.092-.114l-.029.084.017.1-.013.11c.025.011.138-.083.117-.182"/><path class="a" d="M1577.565,2511.062c0-.016-.074,0-.2,0s-.115-.079-.2-.05c-.031.009.009.137.147.157l.212-.017Z"/><path class="a" d="M1577.246,2510.266l-.036-.078-.425.431,0,.111a2.455,2.455,0,0,0,.222.725c.1.121.467.029.467.029l-.049-.14-.2.015c-.079,0-.129-.015-.189-.161a.828.828,0,0,1-.021-.423l.223-.366-.041-.087Z"/><path class="a" d="M1577.928,2511.115l.209-.154.236.084c.007.025-.29.014-.406.135l-.106.172-.035.183c-.038.023-.193-.147-.152-.283a.2.2,0,0,1,.14-.147Zm-.147-.137s-.39.27-.165.567a.454.454,0,0,0,.446.213l.029-.082s-.225-.229-.088-.383a.413.413,0,0,1,.413-.11l.252-.143.145.057-.29.206.062.049.465-.27c-.019-.166-.287-.216-.359-.211a.689.689,0,0,1-.315.023c-.226-.023-.373-.159-.458-.065l0,.132Z"/><path class="a" d="M1578.327,2510.185l-.041.121-.327.281.017.139.2.057.086-.072.095-.309.1-.152-.043-.286Z"/><path class="a" d="M1578.386,2510.519l.028.1-.084.059-.031.085a.159.159,0,0,0,.185-.094.249.249,0,0,0-.07-.247Z"/><path class="a" d="M1578.714,2510.042s.055-.3-.071-.278-.1.41-.1.41l.111-.21Z"/><path class="a" d="M1578.556,2510.419l.33-.274a.445.445,0,0,0,.081-.278.72.72,0,0,0-.1-.26l-.035.032-.034.4-.311.3Z"/><path class="a" d="M1579.255,2509.58l-.217.384c.025.1.165-.1.165-.1l.05.236c.033.008.109-.48,0-.517"/><path class="a" d="M1578.578,2510.472l.025.053.41-.223-.312.24-.146.113.241-.04.369-.339-.056-.176Z"/><path class="a" d="M1578.891,2510.8l.02.054a.237.237,0,0,0,.255-.1c.122-.138.089-.141.017-.215l-.377.1-.354.2.533-.18.087-.018Z"/><path class="a" d="M1579.377,2510.042c-.02.089.18.065.6.324.115.067.213-.284.175-.317l-.073.007h-.113s-.53-.242-.566-.144l.051.072.531.222c-.037.08-.585-.254-.605-.164"/><path class="a" d="M1579.309,2510.166l.045.053a2.626,2.626,0,0,1,.393.2c.114.074.051.205-.046.156l-.426-.208-.08.009.058.054a2.85,2.85,0,0,1,.47.267l.173-.028.029-.184-.416-.3Z"/><path class="a" d="M1579.723,2510.49l-.482-.225Z"/><path class="a" d="M1579.275,2510.5l.255.248v.08c-.021.016-.13-.027-.16-.123s-.061.008-.056.031.029.354.244.244a.2.2,0,0,0,.113-.224Z"/><path class="a" d="M1579.22,2510.806l.008.165-.141-.092.025.172.162.08c.162-.141-.021-.375-.054-.325"/><path class="a" d="M1579.324,2511.562c.14-.053.168-.439.168-.439l-.053-.071-.057.055-.146.328.051-.213-.081-.015-.14.3c0,.051.117.106.258.053"/><path class="a" d="M1579.6,2511l-.106.462s-.026.112.176.089a.413.413,0,0,0,.242-.176s.085-.681-.069-.61c-.06.032.023.539-.127.623s.01-.41-.116-.388"/><path class="a" d="M1579.734,2511.264l-.005-.382Z"/><path class="a" d="M1580.2,2511.058l-.174-.56Z"/><path class="a" d="M1580.451,2511.269l-.033.645s.126-.678.033-.645"/><path class="a" d="M1579.869,2512.076s.18-.611.083-.588Z"/><path class="a" d="M1579.344,2512.076l.16-.433Z"/><path class="a" d="M1579.074,2512.006l.179-.355Z"/><path class="a" d="M1579.96,2510.651l.04.294.036.407c.021.023.017.072.208-.014.229-.1.175-.23.175-.23.011-.188-.229-.822-.3-.684l.182.61-.119.159-.067-.1Z"/><path class="a" d="M1580.514,2510.894s-.056-.422-.313-.554Z"/><path class="a" d="M1580.69,2510.781c-.059-.142-.392-.685-.474-.6-.1.112.288.221.375.7l-.089.156.029.092a.333.333,0,0,0,.262-.25Z"/><path class="a" d="M1579.673,2509.31a.58.58,0,0,0,.059.454,1.7,1.7,0,0,1,.534.168.6.6,0,0,1,.339.561l.116.173a.823.823,0,0,0-.136-.629,1.981,1.981,0,0,0-.754-.385s-.054-.029-.054-.208.259-.175.259-.175l.027-.086s-.3-.055-.39.127"/><path class="a" d="M1579.889,2509.387l.106.052-.149.091.255-.046c.025-.152-.207-.161-.212-.1"/><path class="a" d="M1580.028,2509.639l.342.115.157.115.076-.072c-.125-.19-.575-.158-.575-.158"/><path class="a" d="M1580.824,2509.927l-.249,0c.017.12.2-.02.257.124s-.071.135-.071.135-.014.115.092.106.116-.1.116-.163Z"/><path class="a" d="M1580.708,2510.092l.041.039.04-.039-.04-.044Z"/><path class="a" d="M1580.806,2510.6l.075.053.074-.053-.074-.053Z"/><path class="a" d="M1580.794,2510.394c.008.1.214-.007.222.232.007.132-.2.077-.2.077l0,.083c.315.09.276.03.3-.109a.441.441,0,0,0-.1-.29s-.221-.1-.214.007"/><path class="a" d="M1580.84,2511.137l.054.051.053-.051-.053-.056Z"/><path class="a" d="M1580.95,2511.451a.527.527,0,0,0,.228-.411s-.039-.133-.294-.161v.135l.154.094-.119.189Z"/><path class="a" d="M1580.716,2512.025c.043,0,.078.021.129-.246.039-.227-.023-.779-.122-.674s.081.572.016.679c-.109.194-.08.249-.023.241"/><path class="a" d="M1579.054,2512.188l.028-.088-.093-.1.134-.35-.307.377s.02.155.238.163"/><path class="a" d="M1579.22,2512.295c.287.095.491-.612.426-.641-.083-.037-.149.563-.359.5-.136-.041.225-.573.131-.59l-.284.53s-.017.168.086.2"/><path class="a" d="M1579.824,2511.588c-.117-.008-.1.174-.147.264a3.226,3.226,0,0,0-.115.3s-.062.215.234.2a.329.329,0,0,0,.312-.316s.143-.618.028-.576-.1.245-.1.245.037.443-.192.483c-.128.026-.131-.052-.131-.052Z"/><path class="a" d="M1580.362,2511.412l-.048-.031-.067.107-.057.608.064.121.141.009a.292.292,0,0,0,.21-.233c.018-.12.039-.714.039-.714l-.044-.073-.056.1-.035.6-.1.123-.082-.045Z"/><path class="a" d="M1582.968,2509.7a6.289,6.289,0,0,0-1.816-.7c-.949-.113-1.013.06-1.025.234s.209.324.209.324a3.027,3.027,0,0,1,.629.387,2.846,2.846,0,0,1,.276.969.658.658,0,0,1-.336.693l.05.19s.47-.36.483-.62-.051-1.272-.493-1.533-.545-.246-.545-.246-.074-.039-.031-.189.339-.112.339-.112a4.5,4.5,0,0,1,2.131.741s-.014.107-.153.067a.274.274,0,0,1-.175-.108l-.1.159s.26.162.446.075.4-.176.37-.262-.123-.06-.261-.074"/><path class="a" d="M1581.271,2509.778l.209-.044s-.055-.24-.444-.441l-.593-.007c-.018.112.426.093.558.118s.27.174.252.224l-.143.024Z"/><path class="a" d="M1581.128,2509.552l-.259-.083Z"/><path class="a" d="M1581.709,2509.529l-.242-.168-.173-.04a1.225,1.225,0,0,0,.311.341.33.33,0,0,0,.332.033l-.074-.234-.159-.043Z"/><path class="a" d="M1581.561,2510.274c.1-.03.117-.061.117-.061s-.008-.362-.142-.395l-.136.022h-.159a.156.156,0,0,0,.111.11l.151.057s.066.1-.073.081l-.06-.008-.026.095s.109.131.217.1"/><path class="a" d="M1581.367,2510.078l0-.008Z"/><path class="a" d="M1582.314,2509.92c.075-.028.1-.217.008-.252s-.112.043-.112.043l-.117-.043-.045-.121-.091-.01.033.246Z"/><path class="a" d="M1581.667,2509.764l.016.093.711.366-.015.078-.069,0-.543-.272.03.124.754.445s-.013.1.095-.111-.108-.316-.184-.385Z"/><path class="a" d="M1581.648,2510.535l.013.137c-.037.076-.149-.112-.188-.006s.286.287.339.238l-.091-.574-.3.017Z"/><path class="a" d="M1581.48,2511.314c-.061.1.166.234.236.205l.142-.479c-.1.03-.316-.187-.34-.13l.151.254.014.113c-.083.093-.117-.1-.2.037"/><path class="a" d="M1581.195,2511.712l.26.25.271-.331c-.1.027-.313-.206-.339-.174-.089.109.086.25.086.25l-.023.06c-.088.1-.174-.2-.255-.055"/><path class="a" d="M1582.379,2510.852s-.456-.416-.489-.317.489.317.489.317"/><path class="a" d="M1582.536,2510.718c-.169-.13-.691-.444-.691-.444l-.026.083s.688.335.649.522c-.054.266-.463-.18-.529-.118l.019.1s.585.488.6.17,0-.3-.024-.316"/><path class="a" d="M1582.691,2511.12l-.082.014,0,.079.7.777.046.219-.2-.043-.6-.623-.084-.012.005.1.619.678a.276.276,0,0,0,.364.068l.093-.186a4.559,4.559,0,0,0-.865-1.071"/><path class="a" d="M1582.462,2511.712l-.083.012,0,.08.358.417.075.2-.229-.023-.306-.294-.084-.009.006.1.326.348a.423.423,0,0,0,.365.066l.093-.187a1.96,1.96,0,0,0-.519-.706"/><path class="a" d="M1581.8,2512.5l.005.1.2.205a.232.232,0,0,0,.339.043l.118-.163a.717.717,0,0,0-.333-.447l-.082.012.02.068.146.168.077.2c-.155.11-.228-.027-.228-.027l-.178-.148Z"/><path class="a" d="M1582.493,2511.269c-.148.069.761.834.761.834s-.612-.9-.761-.834"/><path class="a" d="M1582.724,2512.346l-.505-.52Z"/><path class="a" d="M1582.167,2512.614s-.177-.4-.277-.3.277.3.277.3"/><path class="a" d="M1581.969,2511.034v.063l.3.26-.022.075-.079.05-.2-.112-.056.012v.106l.283.193.162-.105.038-.262-.362-.293Z"/><path class="a" d="M1581.834,2511.609v.066l.166.2-.019.074-.08.049-.2-.114-.059.014v.1l.286.2.16-.106.037-.262-.229-.229Z"/><path class="a" d="M1581.511,2512.041l-.011.061.14.143-.032.133-.135.068-.111-.15-.056.007v.075l.18.269.205-.148.095-.2-.208-.263Z"/><path class="a" d="M1582.152,2511.37l-.194-.149Z"/><path class="a" d="M1581.9,2511.892l-.157-.137Z"/><path class="a" d="M1581.414,2512.177c-.108.069.116.18.116.18s-.012-.246-.116-.18"/><path class="a" d="M1583.785,2510.978a7.5,7.5,0,0,1,.668,1.08l.148.063-.012-.16a7.053,7.053,0,0,0-1.556-1.879l-.126.063a7.818,7.818,0,0,1,.878.833"/><path class="a" d="M1584.256,2510.953a5.072,5.072,0,0,0-1.016-.995l-.06.112s.421.41.693.649a6.6,6.6,0,0,1,.779,1.128s.246.311.121.424-.421-.222-.421-.222-.27-.438-.616-.934a4.307,4.307,0,0,0-.988-.92l.011.186s.259.211.546.47a7.692,7.692,0,0,1,.73.922l.343.522c.621.386.767.138.767.138l-.247-.322a9.371,9.371,0,0,0-.642-1.158"/><path class="a" d="M1582.7,2510.829l-.024.149s.84.951,1,1.18c.113.164.363.176.4.111s.16-.3-.629-1.13-.7-.646-.7-.646l-.023.163s1.159.982,1.187,1.416l-.088-.026s-.805-1.142-1.126-1.217"/><path class="a" d="M1584.873,2512.631s.148.746.161.921a1.522,1.522,0,0,1-.085.411c-.013.1-.038.72-.038.72s-.112-.818-.123-1.068a1.732,1.732,0,0,0-.312-.66l-.257-.66-.1.062s.086.324.133.561.31.373.373.685a2.683,2.683,0,0,1,.06.722,4.373,4.373,0,0,0,.112.769c.028.164.028.708.028.708s.181-.41.207-.507a4.353,4.353,0,0,0,.012-.8,6.638,6.638,0,0,1,.122-.909,2.572,2.572,0,0,0-.195-.946Z"/><path class="a" d="M1584.76,2513.1l-.123-.546-.2-.1s.025.162.051.273a1.453,1.453,0,0,0,.269.371"/><path class="a" d="M1583.823,2512.384s.012.075.059.247a1.543,1.543,0,0,0,.274.425l-.159-.611Z"/><path class="a" d="M1583.365,2512.519c-.136.112.3.524.3.524s-.163-.635-.3-.524"/><path class="a" d="M1582.711,2512.734s.257.371.382.384l-.223-.411Z"/><path class="a" d="M1584.433,2514.383l-.2-1.03-.315-.414-.248-.6-.1.131a1.023,1.023,0,0,0,.215.515,1.66,1.66,0,0,1,.263.382l.243,1.077a1.02,1.02,0,0,1,.12.332,3.715,3.715,0,0,1,.036.648l.081.1s.03-.73.063-1.045a4.74,4.74,0,0,0-.144-1.043l-.119-.067Z"/><path class="a" d="M1583.855,2513.836a1.584,1.584,0,0,0-.195-.615c-.035-.051-.2-.147-.3-.233a1.346,1.346,0,0,1-.214-.4l-.132.014s.132.3.182.416.23.247.361.362.166.533.2.7.179.281.213.512.115.648.115.648l.1.082s-.034-.5-.016-.878a3.974,3.974,0,0,0-.166-1l-.13-.1.146.914a.686.686,0,0,1-.164-.431"/><path class="a" d="M1582.817,2513.089l-.248-.317-.1.133.2.316a4.253,4.253,0,0,1,.546.332c.213.2.36,1.111.428,1.011.13-.2-.116-1.078-.116-1.078l-.165-.131.114.446-.23-.383Z"/><path class="a" d="M1582.191,2513.006l.281.166-.067-.184Z"/><path class="a" d="M1582.569,2513.486l.56.729.1-.049-.244-.662-.129-.067-.019.116a.448.448,0,0,0-.247-.231c-.165-.051-.316-.1-.351-.168l-.178-.132-.066.117s.165.216.279.231a.509.509,0,0,1,.3.116"/><path class="a" d="M1578.309,2511.228l-.124.036a1.263,1.263,0,0,1,.248.251c.21.284.061.421.061.421l.013.15a.408.408,0,0,0,.085-.51.816.816,0,0,0-.283-.348"/><path class="a" d="M1578.013,2511.475c0,.05.245.289.26.409a1.036,1.036,0,0,1-.492.673l-.04.3s.68-.561.68-.8a.7.7,0,0,0-.322-.685s-.086-.023-.086.1"/><path class="a" d="M1577.074,2513.2c-.01.174.2.9.679.924.718.035.556-.153.731.035l.011.222s.161-.171.135-.284-.159-.189-.369-.173c-.832.047-.84-.175-.916-.263a.842.842,0,0,1-.024-.834,4.185,4.185,0,0,1,.854-.869l-.015-.162-.369.322c-.536.471-.692.613-.717,1.082"/><path class="a" d="M1577.679,2512.631l-.135.063a2.842,2.842,0,0,0-.2.561.582.582,0,0,0,.2.509s-.148-.473,0-.684a1.5,1.5,0,0,0,.135-.449"/><path class="a" d="M1577.826,2513.615c-.147,0-.246-.324-.246-.324a1.173,1.173,0,0,0-.012.2c0,.139.223.209.394.225s.63-.086.793.174a.389.389,0,0,1-.163.6l.112.125s.309-.275.285-.4c-.111-.559-.346-.559-.446-.61a3.554,3.554,0,0,0-.717.012"/><path class="a" d="M1575.7,2512.459l.213.3.011-.236.073-.186Z"/><path class="a" d="M1575.986,2512.545c-.038.127.048.3.145.248s-.057-.1-.021-.221l.086-.215c-.043-.029-.172.063-.21.188"/><path class="a" d="M1576.466,2512.445l-.133-.061a.357.357,0,0,0-.137.2.538.538,0,0,0,.026.261l.123.05.035-.152a1.178,1.178,0,0,1,.15.3c.059.187-.172.509-.172.611a.519.519,0,0,0,.221.457,1.157,1.157,0,0,1,.447.486c.085.188,0,.385.134.512.445.4.691.086.691.086l-.086-.113a.59.59,0,0,1-.444-.051c-.21-.088-.21-.519-.261-.656s-.431-.361-.517-.473-.077-.175.036-.56.05-.438-.024-.549-.187-.112-.2-.172Z"/><path class="a" d="M1576.555,2512.533l-.025.075s.195.035.246.4-.159.485-.134.683.443.4.518.508a1.709,1.709,0,0,1,.15.451c.061.225.332.184.332.184v-.073l-.221-.162a1.22,1.22,0,0,0-.175-.5c-.122-.136-.444-.347-.481-.423s.075-.235.121-.633a.467.467,0,0,0-.331-.51"/><path class="a" d="M1578.223,2514.424a.306.306,0,0,0,.051.213l.2-.125s-.049-.026-.061-.124a.46.46,0,0,1,0-.153s-.173.054-.186.189"/><path class="a" d="M1578.11,2514.256l-.122.106c-.017.066.034.109.049.21l0,.19c.065.2.2.162.2.162l-.02-.215-.07-.266.07-.2Z"/><path class="a" d="M1577.809,2514.552l.042.145.051.262.137.086.058-.092-.094-.088a2.6,2.6,0,0,0-.1-.467Z"/><path class="a" d="M1577.915,2515.045l-.066-.188c.025-.123-.068-.246-.109-.246V2515Z"/><path class="a" d="M1578.091,2515.152l.116.01-.146-.088Z"/><path class="a" d="M1578.449,2515.066l-.133-.084-.139-.006v.051s.019.061.127.08.145-.041.145-.041"/><path class="a" d="M1577.924,2515.131l.033.076.114-.018-.09-.062Z"/><path class="a" d="M1578.816,2513.092a2.37,2.37,0,0,1,.094.4s.037.048.177.018.107-.224.107-.224a1.891,1.891,0,0,1-.144-.551,3.623,3.623,0,0,1,.1-.394l-.082-.045a1.718,1.718,0,0,0-.14.412,1.331,1.331,0,0,0,.1.465v.137a2.391,2.391,0,0,1-.228-.67,1.012,1.012,0,0,1,.143-.35l-.087-.072c-.082,0-.154.383-.174.5s.075.23.13.377"/><path class="a" d="M1579.429,2513.56s.056.123.252.036.094-.442.057-.542a2.338,2.338,0,0,1,0-.514l-.049-.107-.094.081a2.459,2.459,0,0,0-.035.4l.078.46-.148.033c-.166-.144-.166-.367-.209-.5a1.533,1.533,0,0,1,.066-.507l-.092-.035a.828.828,0,0,0-.126.465,1.931,1.931,0,0,0,.3.73"/><path class="a" d="M1579.464,2512.357c-.043,0-.085.2-.1.433a1.089,1.089,0,0,0,.132.483l.055-.074-.06-.393.048-.361Z"/><path class="a" d="M1580.195,2513.043l-.025.16c-.031.027-.1.074-.178-.037a2.355,2.355,0,0,1-.05-.725h-.088s-.041.223-.056.365a2.358,2.358,0,0,0,.112.53.32.32,0,0,0,.26.09c.179,0,.248-.26.2-.375a3.919,3.919,0,0,1-.05-.7l-.1-.012Z"/><path class="a" d="M1580.022,2512.427l.013.641.048.035.053-.086-.029-.652Z"/><path class="a" d="M1580.553,2512.241c-.093.061.08.536.08.536s.01-.6-.08-.536"/><path class="a" d="M1580.634,2512.166l.075.51-.026.206-.123.036-.088-.584-.08-.007-.026.324s.068.511.229.521c.179.011.258-.328.258-.328l-.158-.7Z"/><path class="a" d="M1580.905,2511.961l.085.429-.058-.007-.1-.241-.064-.051-.032.043.112.317s.013.12.187.082l.08-.156-.151-.459Z"/><path class="a" d="M1581.091,2511.864l.111.177-.05.114.1.086c.159-.126.146-.224.146-.224a.713.713,0,0,1-.269-.231Z"/><path class="a" d="M1581.128,2512.571l-.076.085.428.691.092.018c.141-.173-.359-1.019-.359-1.019l-.047-.024-.007.1.266.6Z"/><path class="a" d="M1580.806,2513.18c.027.093.353.709.364.726a.155.155,0,0,0,.268-.025c.221-.39-.473-1.18-.473-1.18v.123s.54.765.367.923c-.118.1-.451-.642-.451-.642s-.1-.021-.075.075"/><path class="a" d="M1581.073,2513.111c-.085-.117-.136-.174-.136-.174l-.032.1.307.562.072-.039a2.83,2.83,0,0,0-.211-.447"/><path class="a" d="M1580.443,2513.334l.339.652.088.045,0-.094-.35-.707Z"/><path class="a" d="M1580.394,2513.448l-.112.061.477.747s.055.136.256.056.045-.487.045-.487l-.334-.621-.086.055.279.606s.11.123.045.234-.094.007-.249-.125-.25-.508-.321-.526"/><path class="a" d="M1579.856,2513.553l.461.631.03-.084-.455-.635Z"/><path class="a" d="M1579.689,2513.681l.615.785.218.046c.252-.245-.339-.973-.339-.973l-.1-.011s.468.751.377.8c-.163.086-.626-.676-.658-.7Z"/><path class="a" d="M1579.347,2513.9a2.143,2.143,0,0,0,.587.59c.107.061.205.017.18-.041a2.092,2.092,0,0,0-.562-.764l-.057.034a.352.352,0,0,0,.131.135c.093.056.18.336.18.336l-.551-.66-.1.052s-.069-.069.189.318"/><path class="a" d="M1579.317,2514.193c.052.028.1.08.119-.067s-.119-.083-.138-.095l-.043-.181-.08-.091s-.038.342.142.434"/><path class="a" d="M1579.485,2514.193s.056.273.085.379.181.359.273.344c.192-.041.094-.324.094-.324l-.081-.038-.045.192-.223-.44Z"/><path class="a" d="M1580.3,2515.455c.112-.029.083-.305.083-.305l-.083-.086-.065.229-.162-.522-.067-.082s.049.418.061.524.125.271.233.242"/><path class="a" d="M1580.22,2515.176l.006-.193-.062-.082Z"/><path class="a" d="M1579.78,2514.621l0-.141-.064-.05Z"/><path class="a" d="M1579.527,2514.572l-.037-.074-.128-.1.079-.023c.016-.039-.013-.071-.1-.113l-.138-.032.114.262Z"/><path class="a" d="M1578.544,2514.771l.147.02c.019-.065-.036-.217-.164-.2a.332.332,0,0,0-.228.195c0,.025-.03.137.162.217s.051.117.184.125.553-.442.553-.442a.213.213,0,0,0,.015-.224.432.432,0,0,0-.15-.188l-.05.106.055.205-.369.355-.2-.125Z"/><path class="a" d="M1579.188,2514.883l.34.193.085-.037-.24-.131-.013-.137.2-.049.018-.025-.18-.049Z"/><path class="a" d="M1579.737,2514.951c.019-.1-.32-.137-.32-.137s.3.244.32.137"/><path class="a" d="M1578.854,2515.131l.487.162.05-.061-.284-.139.313.088.076-.068-.384-.111Z"/><path class="a" d="M1580.011,2515.365l-.006-.078-.427.031.364-.273.01-.063h-.108c-.034.02-.454.25-.432.426s.6-.043.6-.043"/><path class="a" d="M1579.707,2515.281l.246-.062.024-.092s-.283,0-.27.154"/><path class="a" d="M1581.638,2512.674s.164.156.164.265-.138.2-.138.2l.049.109a.632.632,0,0,0,.239-.3c.058-.183-.271-.33-.271-.33Z"/><path class="a" d="M1581.624,2513.006l.064-.107-.146-.157Z"/><path class="a" d="M1581.688,2513.377l-.065.06.319.887a1.862,1.862,0,0,0-.254-.947"/><path class="a" d="M1581.566,2513.8s.069.2.13.351a7.418,7.418,0,0,1,.159.744l.088.016a1.891,1.891,0,0,0,.141-.6,2.2,2.2,0,0,0-.264-1.012l-.059.08s.059.01.182.46a1.286,1.286,0,0,1,.017.738l-.052-.018a5.535,5.535,0,0,0-.311-.97Z"/><path class="a" d="M1581.139,2514.3l.441.9.125-.043a1.78,1.78,0,0,0-.192-1.242l-.048.1s.3.757.15.927c-.079.1-.431-.738-.431-.738Z"/><path class="a" d="M1581.566,2514.746c.092-.061-.191-.68-.191-.68h-.107l.192.481Z"/><path class="a" d="M1581.119,2515.021l-.279-.616-.149-.083Z"/><path class="a" d="M1580.19,2514.554l.526.605-.488-.687Z"/><path class="a" d="M1580.048,2514.613s.675.9.826.854c.254-.073-.322-.819-.322-.819l-.107.008s.469.555.345.629-.578-.615-.615-.654Z"/><path class="a" d="M1580.964,2514.433s.377.719.254.762-.535-.687-.535-.687l-.06.089s.4.862.67.787-.206-1.019-.231-1.027Z"/><path class="a" d="M1581.67,2515.275h-.1s.215.649.38.606-.14-.735-.14-.735l-.058.067.108.445Z"/><path class="a" d="M1581.071,2515.41s.372.8.575.724-.188-.882-.188-.882l-.043.125.158.539c-.158.084-.345-.414-.345-.414Z"/><path class="a" d="M1581.513,2515.791l-.105-.332-.1-.008Z"/><path class="a" d="M1580.964,2515.576l.188.213-.164-.32Z"/><path class="a" d="M1580.79,2515.607l.28.408.114.018.069-.152h-.143l-.2-.289Z"/><path class="a" d="M1584.21,2515.576l-2.037-1.452-.006.1,1.928,1.442a.274.274,0,0,1-.3.127,12.78,12.78,0,0,1-1.6-1.254l-.04.125,1.344,1.137a.678.678,0,0,0,.306.14c.121,0,.468-.068.5-.183s-.087-.182-.087-.182"/><path class="a" d="M1583.855,2515.685l-.1-.15-1.548-1.195-.011.108,1.469,1.185s.125.146.195.052"/><path class="a" d="M1583.262,2515.674l-1.153-.937-.008.094,1.1.961.178.057Z"/><path class="a" d="M1583.608,2515.965l-.107-.075s-.173.082-.272.01l-.148-.109-1.021-.9-.017.078,1.038.994a.413.413,0,0,0,.224.107.947.947,0,0,0,.3-.1"/><path class="a" d="M1581.969,2515.06l.79.82.179.051-.952-.937Z"/><path class="a" d="M1583.1,2516.115l.026-.059a1.839,1.839,0,0,1-.314-.091,8.516,8.516,0,0,1-.908-.854l.016.153a5.628,5.628,0,0,0,.865.8.748.748,0,0,0,.315.051"/><path class="a" d="M1582,2515.543l.476.514.17.033-.662-.668Z"/><path class="a" d="M1582.217,2516.7c.124.008.261-.156.334-.275s-.121-.239-.145-.239l-.2-.025-.167-.172-.133.008.125.18.155.092s.16-.008.067.14-.205-.074-.205-.074l-.213-.231a.386.386,0,0,1-.307.125c-.015.147-.339.33-.339.33l-.015-.042c.322-.266.3-.356.256-.407l-.314.026h-.163l-.209.05c-.081.366.057.358.057.358l.159-.15v-.1l.156-.035.205-.049-.18.189s-.033-.025-.133.024a.258.258,0,0,0-.106.2s.083.227.214.219.2-.168.2-.168l.3-.258s-.025.066.1.111.143-.232.143-.1a.186.186,0,0,0,.145.168.342.342,0,0,0,.21.107"/><path class="a" d="M1581.012,2516.887l-.125-.1-.054-.148s-.15.033-.15.25a.228.228,0,0,0,.281.234l-.077-.131Z"/><path class="a" d="M1580.643,2516.529l-.02-.332s-.231-.02-.293.149c-.1.265.128.324.128.324l.037-.141Z"/><path class="a" d="M1582.536,2517.009c.023.012.281.008.289-.207a.422.422,0,0,0-.175-.339l-.145.191a.294.294,0,0,1,.089.148c.04.116-.121.176-.058.207"/><path class="a" d="M1575.652,2514.086c.022.1.134.127.141.144l.112.074-.005-.175v-.143c-.013-.056-.087-.1-.188-.033Z"/><path class="a" d="M1575.836,2514.443l.223.133-.018-.252Z"/><path class="a" d="M1575.671,2514.6l.216.107-.106-.211Z"/><path class="a" d="M1576.27,2514.287l-.152.008s-.011.259.091.252.061-.26.061-.26"/><path class="a" d="M1576.132,2514.726s.2-.107.248.151c.031.174-.047.234-.117.205s-.21-.131-.191-.242.06-.114.06-.114m-.214.157c0,.035.175.511.475.3.226-.154-.08-.58-.141-.584a.291.291,0,0,0-.186.057.26.26,0,0,0-.148.229"/><path class="a" d="M1576.714,2515.088a1.18,1.18,0,0,0-.6.537l-.157-.033c0,.21.193.205.21.236l.173.275-.134.049c.08.143.171.061.247.076l.258.172-.126.084a.293.293,0,0,0,.3-.066l.347.051.03-.131a.944.944,0,0,1-.512-.147,2.22,2.22,0,0,1-.375-.345.353.353,0,0,1-.064-.237c0-.166.391-.373.488-.359s-.049-.018.174.119.323.6.361.639l.1-.043-.063-.206s.023,0,.076-.128-.048-.248-.043-.205l-.138.1c-.024-.031-.03-.111-.377-.4l-.027-.145a.17.17,0,0,0-.2-.049s.171.116.06.155"/><path class="a" d="M1576.685,2515.654h.133l-.1-.2Z"/><path class="a" d="M1577.054,2515.816l.08-.092-.165-.15Z"/><path class="a" d="M1577.21,2516.152l-.247-.137s.031.26.247.137"/><path class="a" d="M1576.757,2515.978v-.139l-.173-.064Z"/><path class="a" d="M1578.361,2515.7l.128-.221-.189-.039Z"/><path class="a" d="M1578.062,2515.49l.094.2.058-.209Z"/><path class="a" d="M1578.54,2515.763l.141-.187-.136-.029Z"/><path class="a" d="M1578.14,2516.213l-.007-.291a.132.132,0,0,1,.171-.041s.135.023.013.256c-.079.156-.144.144-.177.076m.329-.369a.29.29,0,0,0-.18-.069c-.131-.016-.162-.006-.211.061-.022.027-.211.541.15.56.27.012.286-.509.241-.552"/><path class="a" d="M1577.329,2516.721l-.106.058c.074.148.246,0,.3-.008l.389.2-.092.1c.123.076.248-.066.271-.08a5.42,5.42,0,0,0,.561-.078c.1-.049.066-.174.066-.174a3.339,3.339,0,0,1-.535.092,1.465,1.465,0,0,1-.693-.289l.246-.555.2-.012.008-.107-.164-.039-.191-.074.026.121a1.615,1.615,0,0,0-.207.326,2.2,2.2,0,0,0-.082.522"/><path class="a" d="M1577.726,2516.347s.221.161.231.024-.231-.024-.231-.024"/><path class="a" d="M1578.2,2516.7l-.215-.09s.084.223.215.09"/><path class="a" d="M1578.7,2516.619c.035-.09-.212-.08-.212-.08s.18.172.212.08"/><path class="a" d="M1578.565,2516.2l.073.135.2.139.007-.082-.219-.25Z"/><path class="a" d="M1579.677,2517.387l-.09.08a.306.306,0,0,0,.264-.09l.223-.018s.091-.043.065.055l-.039.094a.255.255,0,0,0,.262-.233l.147-.051.027-.187a1.936,1.936,0,0,1-.89.148,1.528,1.528,0,0,1-.661-.232.928.928,0,0,1,.132-.549c.116-.191.213-.156.5-.131a1.557,1.557,0,0,1,.616.274l.01-.118a.26.26,0,0,1-.189-.173c-.072-.211-.175-.231-.175-.231l.026.109-.1.032-.283-.082-.063-.119-.207-.041.067.115-.225.1c-.2-.054-.249-.008-.249-.008a.218.218,0,0,1,.109.147c.017.1-.146.365-.146.654a.265.265,0,0,0,.26.289l-.081.143.313-.1Z"/><path class="a" d="M1579.595,2516.6c0-.178-.345,0-.345,0s.345.174.345,0"/><path class="a" d="M1579.917,2516.588c.083-.176-.254-.166-.254-.166s.172.342.254.166"/><path class="a" d="M1580.041,2516.828c.065-.125-.307-.115-.307-.115s.24.24.307.115"/><path class="a" d="M1580.494,2516.838c.025-.168-.338.033-.338.033s.312.131.338-.033"/><path class="a" d="M1579.752,2516.969c-.033-.141-.3.021-.3.021s.339.121.3-.021"/><path class="a" d="M1581.58,2516.646s-.269.1-.2.2.2-.2.2-.2"/><path class="a" d="M1581.648,2516.82c.023.141.321-.082.321-.082s-.345-.061-.321.082"/><path class="a" d="M1581.908,2517.06s-.4-.091-.352.073.352-.073.352-.073"/><path class="a" d="M1581.195,2517.232c.1.158.248-.238.248-.238s-.35.082-.248.238"/><path class="a" d="M1580.839,2517.715c.184.117.184-.274.184-.274s-.365.158-.184.274"/><path class="a" d="M1582.389,2517.111a.459.459,0,0,0,.048-.383l-.164.084s.041.291-.365.463c-.154.069-.655.227-.739.274l-.157.4-.371-.008.109-.8-.116-.091s-.043.125-.125.4a1.532,1.532,0,0,0,.035.688l.6-.016.172-.445.585-.19.033.049c.076.1.19-.02.19-.02l-.04-.148c.007-.066.183-.1.305-.256"/><path class="a" d="M1583.69,2516.539l-.255-.127.023-.115c.043-.039-.113-.016-.2.183l-.13.049-.078-.107-.087.14.024.1-.224.412-.238.029-.075.1s.329.107.422-.043a2.278,2.278,0,0,1,.271-.457.729.729,0,0,1,.369-.141l.134.075Z"/><path class="a" d="M1583.715,2517.607l-.063-.1.246-.2s.261-.018.261-.124-.088.081-.154.006l-.026-.166h-.174l-.031.176a1.929,1.929,0,0,1-.749.281,3.932,3.932,0,0,1-.693-.156l-.14.08.337.117s.017.217.2.217l.034-.15c.015-.033.437.115.665-.033Z"/><path class="a" d="M1582.918,2517.242c0,.115.3-.01.3-.01s-.3-.1-.3.01"/><path class="a" d="M1583.3,2516.779s-.329.2-.173.281.173-.281.173-.281"/><path class="a" d="M1583.534,2516.871s-.354.148-.173.232.173-.232.173-.232"/><path class="a" d="M1583.5,2517.221h-.231c.008.193.231,0,.231,0"/><path class="a" d="M1584.275,2516.469l.188-.076-.113-.109Z"/><path class="a" d="M1584.149,2516.332l.166-.123-.151-.074Z"/><path class="a" d="M1584.534,2516.5s-.23,0-.2.1.2.051.2.051Z"/><path class="a" d="M1583.817,2516.711l.162-.149a.083.083,0,0,1,.122.057s.035.06-.087.1c-.162.059-.21.063-.2-.011m.447-.092a.256.256,0,0,0-.1-.16c-.092-.09-.124-.1-.2-.08-.034.01-.488.3-.214.527.2.172.525-.227.512-.287"/><path class="a" d="M1584.607,2515.97l-.043.107-.08.186.167-.068.122-.057-.018-.18Z"/><path class="a" d="M1586.537,2515.765l.09-.177-.143-.076-.1.068s-.226.025-.186.127.157.058.2.037Z"/><path class="a" d="M1585.588,2515.326l.022.164.119.041s.154.168.212.074-.049-.162-.087-.179l-.071-.131Z"/><path class="a" d="M1585.4,2517.806c.058-.007.09.1.188.1l.153-.162-.1-.129-.122.025s-.232-.033-.235.073.073.1.119.093"/><path class="a" d="M1584.986,2517.133l-.231.048-.007.192.129.072s.142.223.223.127-.018-.193-.06-.223Z"/><path class="a" d="M1583.585,2519.424l.125.173.21-.07-.032-.162-.122-.035s-.19-.135-.242-.039.019.117.061.133"/><path class="a" d="M1583.529,2518.572l-.227-.063-.091.168.084.122s.026.261.14.215.07-.18.046-.229.093-.108.048-.213"/><path class="a" d="M1577.148,2517.283l-.372-.074a.33.33,0,0,0,.211.275c.185.049.371.061.409-.064a.275.275,0,0,0-.173-.323c-.347-.136-.4.036-.4.036l.445.166-.061.085Z"/><path class="a" d="M1578.371,2518.859l-.285.09a.378.378,0,0,0,.345.078c.182-.068.252-.15.212-.273a.191.191,0,0,0-.257-.155c-.36.09-.324.288-.324.288l.409-.133.069.086Z"/><path class="a" d="M1583.387,2517.965l-.3-.008-.167.029.041-.1.429.017s.038-.172-.337-.156a.248.248,0,0,0-.245.25c-.008.129.083.16.271.172s.306-.2.306-.2"/><path class="a" d="M1577.469,2517.4l.877.373.186-.012.013-.139-.1.023-.952-.359Z"/><path class="a" d="M1578.68,2518.58l.051.086s.136-.014.11-.25-.925-.348-.925-.348v.123a3.129,3.129,0,0,1,.8.274c.051.1-.037.115-.037.115"/><path class="a" d="M1578.743,2518.851l.38.074.043-.15-.423-.037Z"/><path class="a" d="M1578.668,2517.607l.211.3.284.1v-.111l-.225-.111-.2-.238Z"/><path class="a" d="M1580.4,2517.709l-.646-.014.039.162.581-.013s.084-.012.026-.135"/><path class="a" d="M1580.261,2518.764l.177.285.109-.012a1.58,1.58,0,0,0-.147-.309,1.75,1.75,0,0,1-.162-.363,3.232,3.232,0,0,0-.223-.422h-.159a1.372,1.372,0,0,1,.271.461.913.913,0,0,0,.134.36"/><path class="a" d="M1580.175,2517.931l.485,1.057.192.039-.5-1.111Z"/><path class="a" d="M1580.9,2518.865l.161.184.1-.049-.346-.732-.149-.037Z"/><path class="a" d="M1581.425,2519.1l-.3-.013s-.294.013-.618.013-.765-.013-.765-.013l-.135.074c0,.141.53.115.53.115a8.9,8.9,0,0,0,1,0c.334-.039.323-.125.286-.176"/><path class="a" d="M1577.878,2518l.125-.172a1,1,0,0,0-.545-.35l-.037.09.42.283Z"/><path class="a" d="M1581.969,2517.994l-.074.148.791-.139.038-.088Z"/><path class="a" d="M1581.908,2518.7l.05.164.4-.176.015-.088Z"/><path class="a" d="M1582.167,2518.316c-.051.1.147.223.221.186l-.036-.16.433-.2-.088-.074s-.481.151-.53.248"/><path class="a" d="M1581.732,2519.012c.21-.128-.011-.422-.011-.422a.518.518,0,0,0,.061-.262.6.6,0,0,0-.061-.211s.2-.2,0-.348a.261.261,0,0,0-.222-.086c-.124.024-.184.248-.184.248l.123.026s.061-.178.159-.076-.074.173-.074.173a.681.681,0,0,1,.085.262,1.041,1.041,0,0,1-.06.35l.039.15-.149-.062-.1.047s.048.425.393.211"/><path class="a" d="M1579.361,2519.037c.3.162.4-.213.4-.213l-.088-.1-.2.159.052-.235a.962.962,0,0,1-.1-.361,1.388,1.388,0,0,1,.064-.274s-.138-.111-.039-.211.175.086.175.086l.112-.046s-.014-.2-.138-.227a.671.671,0,0,0-.273.023c-.2.151-.035.4-.035.4s-.011.18-.026.3a.855.855,0,0,0,.086.324s-.2.256.014.371"/><path class="a" d="M1585.776,2514.111a3.884,3.884,0,0,0-.076.512,1.313,1.313,0,0,0,.26.6l.075-.065-.064-.743-.048-.114-.023.593-.1-.209.048-.421Z"/><path class="a" d="M1586.011,2515.392v.373l.133-.074a1.036,1.036,0,0,1,0-.271c.029-.125.189-.311.3-.588a1.637,1.637,0,0,0,.013-.746l-.046-.049s0,.162-.015.31-.087.138-.11.29.037.384-.036.384l-.054-.449c.062-.137.14-.388.14-.388l-.05-.159c-.036.035-.16.5-.2.6a4.12,4.12,0,0,0-.015.56c-.01.151-.01.151-.061.211"/><path class="a" d="M1582.658,2518.457l.109.109-.109.106-.1-.106Zm-.213.109a.216.216,0,0,0,.431,0,.216.216,0,1,0-.431,0"/><path class="a" d="M1578.444,2517.295l.108-.108.109.108-.109.109Zm.324,0a.216.216,0,0,0-.432,0,.216.216,0,1,0,.432,0"/><path class="a" d="M1577.612,2518.287l-.109-.11.109-.107.108.107Zm0-.322a.212.212,0,0,0-.216.212.216.216,0,1,0,.432,0,.212.212,0,0,0-.216-.212"/><path class="a" d="M1586.674,2514.24l-.075.059-.133.771-.178.256v.15l.412-.388a1.2,1.2,0,0,0,.133-.426c-.012-.148-.038-.43-.038-.43l-.064.035s.017.7-.132.778c-.008.006.056-.291.075-.473a1.217,1.217,0,0,0,0-.332"/><path class="a" d="M1585.751,2516.107a5.769,5.769,0,0,0-.428,1.119c-.058.366-.164.373-.164.373l-.027.153a.333.333,0,0,0,.206-.2.489.489,0,0,1,.175-.266,2.522,2.522,0,0,0,.336-.383,3.259,3.259,0,0,0,.274-1.074l-.126.115a6.317,6.317,0,0,1-.221.762c-.073.135-.214.467-.286.439l.428-1.191Z"/><path class="a" d="M1585.338,2516.074a3.145,3.145,0,0,0-.254.7.713.713,0,0,0,.164.457s.09-.4.151-.557.293-.621.293-.621l-.065-.115-.412.854.283-.83Z"/><path class="a" d="M1586.461,2516.238l-.133.151-.241.6-.169.137.417-.871-.213.115s-.065.217-.116.365a1.527,1.527,0,0,1-.261.455l-.159.217.489-.223Z"/><path class="a" d="M1584.4,2517.814l.075-.256a7.375,7.375,0,0,0-.744.838c-.016.106-.1.363-.059.379l.2-.125c.067-.039.143-.228.2-.322a4.405,4.405,0,0,1,.356-.324l.025-.157Z"/><path class="a" d="M1583.774,2519.009a.736.736,0,0,1,.288-.083,5.048,5.048,0,0,0,.9-.749.85.85,0,0,0,.092-.38l-.05.05-.147.223-.858.695.866-.808.123-.258-.7.547-.484.566-.438.387.14.027a1.577,1.577,0,0,1,.273-.217"/><path class="a" d="M1585.265,2518.187s-.621.821-.814.754c-.025-.008.2-.156.386-.34a2.845,2.845,0,0,0,.322-.4l-.1-.016a3.761,3.761,0,0,1-.657.639c-.133.082-.469.266-.469.266l.676-.051c.848-.664.658-.854.658-.854"/><path class="a" d="M1580.634,2519.982l.159-.062-.024-.459-.184-.023Z"/><path class="a" d="M1580.249,2519.455l-.025.459.159.063.051-.545Z"/><path class="a" d="M1582.03,2520.033c.086-.039,1.187-.236,1.359-.709a2.456,2.456,0,0,0-.715.3c-.167.133-.781.344-.817.172-.012-.061.259.011.457-.121a6.763,6.763,0,0,1,.953-.4s-.013-.2-.878.137c-.237.09-.556.31-.692.283-.413-.074-.828-.2-.828-.2l.012.162a2.117,2.117,0,0,1,.63.2.8.8,0,0,0,.519.174"/><path class="a" d="M1582.389,2519.336c.112-.051.592-.162.592-.162l-.025-.112-.875.274.814-.371-.222-.026-.681.3-.159.2-.274.149.212.053s.507-.25.618-.3"/><path class="a" d="M1582.4,2520.269a7.1,7.1,0,0,0,1.062-.461h-.157v-.1l-.212.027s-.334.176-.741.348-.555-.1-.507.025.371.174.555.162"/><path class="a" d="M1581.511,2520.193l-.039-.146s-.357-.325-.58-.289l-.011.123.495.3Z"/><path class="a" d="M1580.769,2520.207l.532.311h.146l-.058-.15-.571-.3Z"/><path class="a" d="M1580.547,2520.48l.42.238.086-.176-.382-.174Z"/><path class="a" d="M1580.535,2520.056l-.186.2-.332.346.122.1.21-.225.236-.184.174-.248Z"/><path class="a" d="M1579.805,2520.232l-.223.311.137.072.258-.3.372-.268-.173-.08Z"/><path class="a" d="M1579.581,2519.982l.163.074.408-.222-.013-.112a1.053,1.053,0,0,0-.558.26"/><path class="a" d="M1579.464,2520.078l.093.1.139-.014-.1-.1Z"/><path class="a" d="M1578.878,2519.8l-.283.235.1-.217-.244-.066-.267.131.033-.165s-.244-.05-.393-.064.133-.07.133-.07l-.037-.114s.38.215.48.184-.052-.2-.052-.2.331.281.464.248.031-.217.031-.217.136.234.267.25a.508.508,0,0,0,.246-.033l.016.051-.25.263-.049-.181Zm0,.481c.129.051.463-.414.74-.512a3.129,3.129,0,0,1,.513-.134v-.151a5.1,5.1,0,0,1-.594.121.828.828,0,0,1-.329-.168l-.114.082-.265-.332-.247.016s.15.316.05.234c-.333-.281-.512-.2-.512-.2l.05.2-.4-.117-.1.182-.311.232.263.115.4-.064-.165.2.165.117.431-.185-.151.25.281.066s.231-.267.329-.217-.166.217-.033.266"/><path class="a" d="M1577.006,2519.012l-.068-.024s.043-.08-.061-.111a1.128,1.128,0,0,0-.342,0l.179-.119-.1-.184-.255-.084.118-.066a.429.429,0,0,0-.227-.325l.023-.144.138.2.073.029.054.159s.079.207.2.259l.1-.191a1.239,1.239,0,0,0,.1.4.268.268,0,0,0,.23.11l.017.078Zm.332.181c.249.115.273.174.273.174l.092-.088-.227-.211-.266-.529-.1-.02-.109-.371-.226-.162c-.051.065-.091.262-.1.131-.044-.434-.086-.379-.086-.379l-.136-.094-.07.2-.059-.094-.167-.145c-.023.174-.056.324-.056.324l-.141.032-.076.054.243.26-.261.047c-.031.191.6.4.506.4-.659.027-.012.335-.012.335s.4-.095.391.014c-.022.256.217-.008.278.119s.043-.119.313.006"/><path class="a" d="M1577.449,2518.646l.113.107.112-.107-.112-.105Z"/><path class="a" d="M1576.818,2519.424l.112.1.116-.1-.116-.1Z"/><path class="a" d="M1577.765,2518.814l-.167-.031s-.2.012-.177.15l.143.055.047.162.144.031-.07-.216Z"/><path class="a" d="M1577.2,2519.594l.092-.143.222-.041-.091-.111-.168.031-.113-.1c-.129.043-.048.227-.048.227Z"/><path class="a" d="M1574.45,2515.082c.02-.158-.157-.36-.157-.36l.129.055.048-.043.038-.176.05-.181.111.009-.1.34.138-.047,0,.043a.652.652,0,0,0-.19.131.232.232,0,0,0,.005.213l.176.028s-.075.011-.113.175a.12.12,0,0,0,.076.157l-.031.029-.113-.072c-.056-.045.037-.018-.018-.133s-.183-.055-.239-.149c0,0,.166.1.186-.019m-.288-.2c-.2-.026-.092.248-.092.248l.283.189.025.106c0,.14.151-.036.271.234.114.25.084.3.084.3l.135.07a3.9,3.9,0,0,1-.106-.453c-.01-.121.2-.475.222-.635s-.224.049-.246-.033l.277-.24-.013-.238-.195.068.111-.219-.015-.217s-.091-.023-.216.108l-.041-.016-.064-.043-.1.1-.051.088-.026.183-.175-.08-.077.123c-.149.127.3.4.005.362"/><path class="a" d="M1575.107,2515.322l.018.154.153,0-.016-.156Z"/><path class="a" d="M1574.125,2515.49l.017.154.153-.006-.016-.154Z"/><path class="a" d="M1574.9,2515.517l.07.135-.069.158.088.116.091-.209.157-.059-.107-.135s-.154-.121-.23-.006"/><path class="a" d="M1574.467,2515.826l.193.115,0-.144-.146-.082-.021-.157c-.128-.05-.187.143-.187.143l-.008.172Z"/><path class="a" d="M1575.548,2517.037l-.05.154.031.119-.151-.052c-.01-.012.181-.18-.226-.28-.119-.027-.034-.045-.126-.086.033.018.277.133.156-.091a.7.7,0,0,0-.321-.239l.087-.023-.118-.178.05-.035.116.094.074-.082.043.285.144.17.166-.274-.08.3v.092l.086.162Zm-.137-.885-.171.328-.033-.185.007-.161s-.118-.169-.15-.05l-.143.06-.1-.052-.227.085.091.178-.2.006-.056.059s.091.191.186.2c.2.014.112.064.112.064l-.138.053a.208.208,0,0,0,.1.211c.216.164.143-.014.236.1l.2.07c.016.082-.375-.045-.054.2l.141.039c.083.117.169-.088.533.34.18.211.309.207.309.207l.006-.113-.343-.311c-.075-.092.132-.609.046-.746l-.2.057.048-.481Z"/><path class="a" d="M1575.941,2517.017l.053.145.148-.041-.055-.148Z"/><path class="a" d="M1575.132,2517.777l.09.129.131-.08-.088-.129Z"/><path class="a" d="M1576.011,2517.406l.138-.1-.136-.1s-.182-.078-.224.052l.1.114-.028.168.114.09Z"/><path class="a" d="M1575.584,2517.779l-.091-.121c-.138.019-.1.215-.1.215l.076.152.12-.119.227.006-.069-.131Z"/><path class="a" d="M1561.631,2518.156l1.095.252c-.933-1.174-1.184-.953-1.244-1.2-.088-.379.271.072.645-1.453a3.044,3.044,0,0,1-1.316.836c-.433-.086-1.2.2-.945,1.175.327,1.213,1.765.387,1.765.387"/><path class="a" d="M1599.015,2517.2c-.055.246-.209.088-1.3,1.086l1.39-.139s1.113.742,1.528-.385a.889.889,0,0,0-.945-1.213,3.249,3.249,0,0,1-1.318-.8c.372,1.523.735,1.076.645,1.451"/><path class="a" d="M1570.092,2512.41a.2.2,0,1,1-.2.2.2.2,0,0,1,.2-.2m.3-.371c.077-.2.337-.059.337-.059s1.1.565,1.248.659,1.043.936,1.043.936.24.094.092.243-.28-.111-.28-.111a7.325,7.325,0,0,0-1.022-.863,10.872,10.872,0,0,0-1.192-.58s-.3-.018-.226-.225m1.58-2.205a1.1,1.1,0,0,1,.744.3,10.507,10.507,0,0,0,1.19.525s-.419.525-.868.148a1.529,1.529,0,0,0-.942-.349,2.161,2.161,0,0,0-1.218.5s.2-1.05,1.094-1.123m1.6,1.757-.131-.134.131-.133.134.133Zm-1.383-.385a6.215,6.215,0,0,0-.867.251s.528-.55.977-.525.835.3.835.65a.759.759,0,0,1-.623.831.42.42,0,0,1-.544-.456c.024-.1.125-.329.516-.283a.918.918,0,0,0,.078-.264c.017-.2-.123-.227-.372-.2m.927,1.9a.252.252,0,1,1,.251-.253.251.251,0,0,1-.251.253m-2.27-.231-.132-.133.132-.136.131.136Zm17.178-2.793a1.105,1.105,0,0,1,.747-.3c.892.076,1.091,1.126,1.091,1.126a2.128,2.128,0,0,0-1.216-.5,1.5,1.5,0,0,0-.946.347c-.445.377-.87-.149-.87-.149a10.53,10.53,0,0,0,1.194-.525m1.989,1.85s.258-.149.331.056-.223.223-.223.223a10.79,10.79,0,0,0-1.19.582,7.364,7.364,0,0,0-1.024.861s-.131.263-.279.113.092-.244.092-.244.893-.842,1.043-.937,1.25-.654,1.25-.654m.641.427a.2.2,0,1,1-.2.2.2.2,0,0,1,.2-.2m-.762.463-.133-.133.133-.132.128.132Zm-1.639-1.2c.391-.045.492.185.518.286a.423.423,0,0,1-.547.455.756.756,0,0,1-.621-.831c0-.351.388-.624.836-.649s.976.526.976.526a5.712,5.712,0,0,0-.87-.252c-.247-.023-.389,0-.374.2a.87.87,0,0,0,.082.266m-.885,1.18a.25.25,0,1,1,.25.252.251.251,0,0,1-.25-.252m-.208-1.261-.131-.132.131-.134.132.134ZM1564,2517.221l.076-.6s.99.023,1.016-.123c.1-.586-1.052-.463-.87-.6a1.406,1.406,0,0,1,2.013.073s-.754.039-.721.726c.025.526.743.617.845.6,1.663-.3.992-1.647.446-1.948-.647-.357-.968-.05-.968-.05l-.125-.2c-.1-.25,3.426-1.674,4.27-1.723s3.16.863,2.633,2.723c-.594,2.1-2.135,1.771-2.633,1.324a.577.577,0,0,1,.076-1.028.717.717,0,0,0,.548.329c.5.033.625-.125.817-.776.147-.5-.621-1.15-1.215-1.2a1.154,1.154,0,0,0-1.217.7c-.247.428-.845,2.2,1.837,2.977a2.264,2.264,0,0,0,2.63-1.3,4.413,4.413,0,0,0,.152-2.623c-.129-1.292,1.227-6.807,6.614-6.753h0c5.618,0,6.972,5.453,6.844,6.746a4.4,4.4,0,0,0,.147,2.621,2.265,2.265,0,0,0,2.632,1.3c2.685-.774,2.084-2.549,1.837-2.973a1.156,1.156,0,0,0-1.216-.7c-.6.053-1.365.7-1.217,1.2.194.653.317.809.821.774a.72.72,0,0,0,.547-.326.574.574,0,0,1,.07,1.025c-.493.451-2.035.775-2.629-1.326-.527-1.856,1.787-2.772,2.629-2.719s4.374,1.475,4.272,1.723l-.125.2s-.317-.307-.965.049c-.547.3-1.218,1.648.448,1.949.1.015.817-.076.841-.6.032-.687-.718-.726-.718-.726a1.4,1.4,0,0,1,2.011-.073c.182.135-.966.012-.871.6.025.15,1.018.125,1.018.125l.075.6,2.009.025-.47-.975s-5.61-3.546-6.85-3.748a1.378,1.378,0,0,0-.351-.722,3.573,3.573,0,0,0-.668-.6,1.629,1.629,0,0,0-1.144-1.973c-1.239-.45-1.694.515-2.061.748-.27.176-.394-.151-.394-.151s.379-.391,0-.572c-.521-.251-.36.324-.621.3a8.4,8.4,0,0,0-5.891-2.623v0a7.665,7.665,0,0,0-5.683,2.633c-.265.026-.1-.551-.62-.3-.382.182,0,.575,0,.575s-.124.324-.4.149c-.366-.233-.82-1.2-2.061-.749a1.632,1.632,0,0,0-1.144,1.972,3.539,3.539,0,0,0-.667.6,1.363,1.363,0,0,0-.35.726c-1.24.2-6.852,3.746-6.852,3.746l-.469.973Z"/><path class="a" d="M1605.4,2524.594a1.973,1.973,0,0,1,.436-.86.3.3,0,0,0,.111-.363.277.277,0,0,0-.283-.176.409.409,0,0,0-.224.09,5.82,5.82,0,0,0-.746,1.049c-.148.359-.248.449-.125.574a4.534,4.534,0,0,0,.723.6s.172.086.159-.063a2.265,2.265,0,0,1-.051-.849"/><path class="a" d="M1608.3,2522.978c-.121-.453-.158-.812-.793-.8a5.065,5.065,0,0,0-.657.213c-.372.151-.682.311-.682.311s-.123.115-.075.213a2.931,2.931,0,0,0,.288.363s.258.15.083.324-.667.75-.633,1.149a1.076,1.076,0,0,0,.6,1.076,1.255,1.255,0,0,0,.818.063c.148-.04.236.023.472-.389a3.322,3.322,0,0,0,.494-1,3.392,3.392,0,0,0,.086-1.52"/><path class="a" d="M1555.074,2523.564a.436.436,0,0,0-.224-.086.282.282,0,0,0-.287.172.313.313,0,0,0,.111.364,1.9,1.9,0,0,1,.437.861,2.136,2.136,0,0,1-.052.849c-.01.153.162.061.162.061a4.4,4.4,0,0,0,.722-.6c.124-.123.022-.213-.126-.574a5.979,5.979,0,0,0-.743-1.049"/><path class="a" d="M1554.242,2523.5a3.058,3.058,0,0,0,.286-.363c.048-.1-.075-.21-.075-.21s-.31-.162-.684-.314a4.4,4.4,0,0,0-.658-.211c-.631-.012-.669.35-.792.8a3.28,3.28,0,0,0,.583,2.521c.236.413.321.35.472.389a1.229,1.229,0,0,0,.818-.062,1.064,1.064,0,0,0,.595-1.077c.04-.4-.459-.97-.631-1.146s.086-.328.086-.328"/><path class="a" d="M1603.672,2525.744a4.694,4.694,0,0,1,3.29-4.121l-2.272-3.3a2,2,0,0,0-1.153-1.875,2.359,2.359,0,0,0-1.7.045,8.162,8.162,0,0,1-.432.754,2.838,2.838,0,0,1-.512.547s.038,39.117,0,40.295a9.029,9.029,0,0,1-8.221,8.548h-10.476a2.337,2.337,0,0,0-1.958,1.2,2.026,2.026,0,0,0-1.8-1.2l-10.238-.041c-5.773-.173-8.443-5.22-8.615-8.529-.168-3.219-.063-40.186-.063-40.186a3.206,3.206,0,0,1-.545-.449,2.072,2.072,0,0,1-.3-.586,1.743,1.743,0,0,0-2.132-.25,1.9,1.9,0,0,0-.919,1.735l-2.184,3.349a4.859,4.859,0,0,1,3.352,4.307v8.033l0,.1,0-.012c0,.088,1.836,2.436,1.836,4.848v19.119c.064,4.215,3.38,9.643,9.517,9.643l10.481.021a1.819,1.819,0,0,0,3.321-.021h10.377a9.926,9.926,0,0,0,9.516-10.1c-.2-4.424.01-18.459.01-19.008a6.227,6.227,0,0,1,1.516-3.885c.411-.476.3-.753.3-.753s0-6.917.014-8.227"/><path class="a" d="M1563.574,2527.224v-1.48l-1.491.826Z"/><path class="a" d="M1561.4,2549l-.171-.406,1-.233s.07-.072.136.1-1,.439-1,1.484a1.194,1.194,0,0,0,.366.776h2.28a.9.9,0,0,0,.368-.741,3.067,3.067,0,0,0-.67-1.316,1.2,1.2,0,0,1,1,1.316,1.962,1.962,0,0,1-1.941,1.854,2.02,2.02,0,0,1-1.845-1.889c0-.773.473-.943.473-.943m-.139-5.362v-.976h3.051v-1.621l-.371-.371v-.3l.673.471v2.8Zm.306,1.28v.34h-.338v-1.215h.3v.539l3.083,1.383v.506l-3.385,1.654v-1.215l2.244-1.08Zm-.423-4.721h.155v-2.766h-.155v-.287l.686-.386v.271l-.25.182v1.3h3.034v.826l-3.067-.016v1.061l.27.22v.336l-.673-.455Zm.423-7.1v.336h-.338v-1.214h.3v.539l3.083,1.381v.509l-3.385,1.651v-1.215l2.244-1.078Zm-.423-3.341s.052-.944.922-.944c.984,0,1.07,1.053,1.056,1.532a1.2,1.2,0,0,1,.219-.573,1.354,1.354,0,0,1,.854-.351.331.331,0,0,1-.317-.338c0-.32.084-.389.317-.389s.554-.117.554.539-.871.592-1.158.8-.166.807-.166.807h-.536s.082-1.078-.788-1.078a.607.607,0,0,0-.655.439v.926h3.168v.676h-3.47Zm0-3.727,3.452-1.887v.91l-.754.473v1.787l.5.166v-.232h.286v1.062h-.3v-.406l-3.187-1.369Zm18.749-1.877V2535.8a5.8,5.8,0,0,0-3.279,1.5,5.948,5.948,0,0,0-1.539,3.351h-9.729l-.006-16.5Zm-14.229-3.643.2.13c.024-.2.107-.346.206-.346s.183.146.2.346l.207-.13a.231.231,0,0,1,0,.462l-.207-.131c-.02.2-.1.351-.2.351s-.182-.148-.206-.351l-.2.131a.231.231,0,0,1,0-.462m-1.5,1.614a.233.233,0,0,1,.207.129c.02-.2.1-.35.2-.35s.182.149.205.35l.2-.129a.23.23,0,0,1,.23.232.234.234,0,0,1-.23.229l-.2-.133c-.023.2-.106.351-.205.351s-.184-.148-.2-.351a.227.227,0,0,1-.433-.1.227.227,0,0,1,.226-.232m2.9,0a.228.228,0,0,1,.2.129c.023-.2.1-.35.2-.35s.181.149.206.35a.233.233,0,1,1,0,.2c-.025.2-.1.351-.206.351s-.181-.148-.2-.351a.228.228,0,0,1-.2.133.232.232,0,0,1-.228-.229.228.228,0,0,1,.228-.232m1.495-1.614a.224.224,0,0,1,.2.13c.024-.2.109-.346.207-.346s.185.146.2.346l.2-.13a.231.231,0,1,1,0,.462l-.2-.131c-.02.2-.1.351-.2.351s-.183-.148-.207-.351a.22.22,0,0,1-.2.131.231.231,0,0,1,0-.462m1.4,1.614a.23.23,0,0,1,.2.129c.021-.2.1-.35.207-.35s.181.149.206.35l.2-.129a.228.228,0,0,1,.231.232.232.232,0,0,1-.231.229l-.2-.133c-.025.2-.1.351-.206.351s-.186-.148-.207-.351a.23.23,0,0,1-.2.133.233.233,0,0,1-.23-.229.229.229,0,0,1,.23-.232m1.519-1.614.206.13c.023-.2.1-.346.2-.346s.184.146.2.346a.23.23,0,1,1,.207.332.228.228,0,0,1-.207-.131c-.021.2-.1.351-.2.351s-.181-.148-.2-.351l-.206.131a.231.231,0,0,1,0-.462m1.4,1.614.2.129c.022-.2.1-.35.2-.35s.185.149.205.35l.2-.129a.229.229,0,0,1,.231.232.233.233,0,0,1-.231.229l-.2-.133c-.02.2-.1.351-.205.351s-.182-.148-.2-.351l-.2.133a.231.231,0,0,1-.228-.229.227.227,0,0,1,.228-.232m1.634-1.588.2.131c.023-.2.106-.352.206-.352s.183.153.2.352l.208-.131a.232.232,0,0,1,0,.463l-.208-.131c-.018.2-.1.35-.2.35s-.183-.153-.206-.35l-.2.131a.232.232,0,0,1,0-.463m1.4,1.613a.224.224,0,0,1,.205.129c.022-.2.106-.35.208-.35s.181.149.2.35l.205-.129a.23.23,0,0,1,0,.459l-.205-.131c-.021.2-.1.352-.2.352s-.186-.152-.208-.352a.226.226,0,0,1-.205.131.229.229,0,0,1,0-.459m4.391,14.3c4.893,0,4.694,5.4,4.694,5.4l10.129,2.654v1.785c-1.1-.443-11.113-4.463-11.345-4.156-.248.324,1.191.972,1.119,1.146s-.448.028-.448.028l-.3-.2a3.409,3.409,0,0,1-.992.4,1.747,1.747,0,0,0-.4.049s-.249.3-.348.152.126-.324.126-.324-.1-.1.247-.428.347-.3.347-.3a.588.588,0,0,0,.3-.224.737.737,0,0,0,.051-.352s.051.023.174-.125.074-.25-.1-.32a.218.218,0,0,0-.272.07v.35s.047.1-.195.2-.276-.051-.349-.051l-.076.174c.076.053.1.277-.048.3a.948.948,0,0,0-.524.2c-.086.121.111.295-.086.342s-.583-.065-.681.134.1.323-.125.35a.247.247,0,0,1-.274-.176s0,.324-.2.35-.722-.074-.746.049.348.177.348.177l.373.2-.548.226h0c.093.026.166.047.2.061.572-.162,7.093-1.975,8.5-.471l.028.033v.408h.438v.59h.462v.524h.485v.5h.463v11.867h-9.578l-.056.016a2.667,2.667,0,0,1-1.447.011l-.09-.027h-9.389v-11.867h.463v-.5h.484v-.524h.461v-.59h.438v-.408l.032-.033c1.262-1.32,5.86-.215,7.639.277l-.078-.193a.561.561,0,0,0-.149-.576,6.963,6.963,0,0,1-.819-.6c-.15-.129-.272-.246-.373-.174s-.15.151-.3.079a.319.319,0,0,1-.151-.4c.078-.1.273-.377-.074-.349s-.321.224-.419.171a3,3,0,0,1-.325-.222s-.049-.276-.174-.176-.048.2-.048.2.469.5.32.549.3-.047.3-.047l.149.25-.051.3s.2.174.051.223-.3-.2-.3-.2-.075-.277-.321-.252-.175.327-.473.229a.758.758,0,0,0-.5-.025l-.172-.127a4.084,4.084,0,0,1,.793-.452c.1.03.149-.148.1-.3s-.57,0-.57,0l-1.91.65-8.862,3.328v-2.123l10.178-2.408s-.361-5.3,4.788-5.3m.374-1.693,3.015-1.4,1.972-.035c.6-.074,1.568-1.641,2.162-1.668.412-.02,1.3,1.817,2.135,1.8,1.093-.026,2.679.051,2.679.051l2.486,1.963v5.181H1585.5a5.693,5.693,0,0,0-1.492-3.3,5.923,5.923,0,0,0-3.335-1.6Zm0-10.6h14.449v10.656l-2.433-1.957a12.366,12.366,0,0,1-2.83-.049c-1-.222-1.5-2.14-2-2.14-.334,0-2.073,2.189-2.073,2.189a9.317,9.317,0,0,0-2.285.051,6.232,6.232,0,0,1-2.828,1.15Zm3.155-2a.223.223,0,0,1,.2.129c.022-.2.107-.35.208-.35s.181.149.2.35a.231.231,0,0,1,.206-.129.23.23,0,0,1,0,.459.233.233,0,0,1-.206-.131c-.022.2-.1.352-.2.352s-.186-.152-.208-.352a.224.224,0,0,1-.2.131.229.229,0,1,1,0-.459m1.4-1.613a.227.227,0,0,1,.205.131c.019-.2.1-.352.2-.352s.183.153.205.352l.2-.131a.232.232,0,0,1,0,.463l-.2-.131c-.022.2-.106.35-.205.35s-.186-.153-.2-.35a.23.23,0,1,1-.205-.332m1.63,1.588a.227.227,0,0,1,.206.129c.021-.2.107-.35.2-.35s.184.149.205.35l.208-.129a.229.229,0,0,1,.227.232.233.233,0,0,1-.227.229l-.208-.133c-.021.2-.1.351-.205.351s-.183-.148-.2-.351a.227.227,0,0,1-.206.133.231.231,0,0,1-.225-.229.228.228,0,0,1,.225-.232m1.4-1.614a.238.238,0,0,1,.207.13c.021-.2.1-.346.2-.346s.181.146.2.346a.236.236,0,0,1,.208-.13.231.231,0,0,1,0,.462.231.231,0,0,1-.208-.131c-.022.2-.1.351-.2.351s-.182-.148-.2-.351a.233.233,0,0,1-.207.131.231.231,0,0,1,0-.462m7.32,1.614.205.129c.019-.2.1-.35.2-.35s.185.149.2.35l.2-.129a.23.23,0,0,1,.232.232.234.234,0,0,1-.232.229l-.2-.133c-.02.2-.1.351-.2.351s-.183-.148-.2-.351l-.205.133a.233.233,0,0,1-.23-.229.229.229,0,0,1,.23-.232m-5.8,0a.224.224,0,0,1,.2.129c.023-.2.1-.35.207-.35s.18.149.2.35l.2-.129a.228.228,0,0,1,.229.232.231.231,0,0,1-.229.229l-.2-.133c-.024.2-.107.351-.2.351s-.184-.148-.207-.351a.224.224,0,0,1-.2.133.231.231,0,0,1-.227-.229.227.227,0,0,1,.227-.232m1.405-1.614a.224.224,0,0,1,.2.13c.024-.2.107-.346.208-.346s.182.146.2.346a.227.227,0,0,1,.205-.13.231.231,0,0,1,0,.462.223.223,0,0,1-.205-.131c-.022.2-.106.351-.2.351s-.184-.148-.208-.351a.22.22,0,0,1-.2.131.231.231,0,0,1,0-.462m1.494,1.614a.222.222,0,0,1,.2.129c.022-.2.106-.35.208-.35s.184.149.2.35a.228.228,0,0,1,.434.1.232.232,0,0,1-.228.229.229.229,0,0,1-.206-.133c-.02.2-.1.351-.2.351s-.186-.148-.208-.351a.222.222,0,0,1-.2.133.234.234,0,0,1-.231-.229.23.23,0,0,1,.231-.232m1.4-1.614.2.13c.023-.2.1-.346.206-.346s.182.146.2.346a.235.235,0,0,1,.2-.13.231.231,0,1,1-.2.331c-.022.2-.1.351-.2.351s-.183-.148-.206-.351l-.2.131a.231.231,0,1,1,0-.462m2.89,17.512c.282-.2.167-.808.167-.808h.536s-.084,1.08.787,1.08a.605.605,0,0,0,.653-.442v-.925h-3.166v-.672h3.469v2.039s-.051.943-.92.943c-.985,0-1.07-1.051-1.057-1.533a1.24,1.24,0,0,1-.22.574,1.359,1.359,0,0,1-.855.354.332.332,0,0,1,.318.336c0,.322-.082.388-.318.388s-.552.119-.552-.541.87-.588,1.158-.793m-1.145-2.859.137-.018v-2.412h3.317v1.873h.149v.268l-.4.271v-.25l.118-.152v-1.182h-.77v.676h.249v.268l-.552.271v-.254l.119-.052v-.893h-1.944v1.7l.4.219v.221h-.4l-.421-.272Zm3.486-5.994v2.525a.841.841,0,0,1-.717.508s-.751.133-.751-.607a.83.83,0,0,1-.888.691c-.753,0-.989-.846-.989-.846l0-2.271Zm0-1.317v.774h-3.345l0-.774Zm-3.349-3.672h3.349v.977h-3.047v1.619l.367.371v.3l-.669-.469Zm3.474,21.192-3.479,1.888v-.908l.779-.474v-1.787l-.5-.17v.238h-.284v-1.064h.3v.408l3.185,1.363Zm-.7-5.5v-.336l.669.455v.285h-.149v2.766h.149v.289l-.686.387v-.27l.249-.186v-1.3h-3.034v-.827l3.069.016v-1.062Zm.568,9.736s-.3,1.485-1.624,1.485a1.89,1.89,0,0,1-1.746-1.231v-2.14h3.37Zm-4.187-6.7-6.8-1.414h6.8Zm0,7.99-4.072-2.707v-1.945l4.072,1.971Zm0,4.192h-2.06l-2.237-2.248v-2.924l4.3,3.443Zm-3.569,5.982c-2.532-.072-9.578,0-9.578,0a2.683,2.683,0,0,0-1.727.773,3.3,3.3,0,0,0-1.789-.818H1568.9a4.125,4.125,0,0,1-3.559-3.689v-1.354h3.787v2.328h9.881a1.71,1.71,0,0,0,1.231.662,1.365,1.365,0,0,0,1.115-.675l9.986.013v-2.328h3.785c0,.2,0,.6,0,1.338.006,2.25-1.037,3.826-3.569,3.75m1.735,4.346h-.285v-.153h-2.75v.153h-.286l-.385-.694h.269l.183.256h1.292v-3.053h.822l-.017,3.086h1.056l.221-.273h.334Zm-6.046.029s-.937-.053-.937-.93c0-.986,1.044-1.072,1.523-1.06a1.21,1.21,0,0,1-.569-.221,1.381,1.381,0,0,1-.351-.859.335.335,0,0,1-.334.32c-.319,0-.391-.082-.391-.32s-.111-.557.542-.557.585.877.787,1.164.8.168.8.168v.543s-1.074-.086-1.074.789a.6.6,0,0,0,.436.656h.923v-3.187h.67v3.494Zm-1.874-3.137-1.359,3.2h-.5l-1.919-3.543h.9l.514.83h1.779l.168-.506h-.237v-.289h1.055v.306Zm-6.784,3.047a.852.852,0,0,1-.5-.725s-.133-.753.605-.753a.831.831,0,0,1-.687-.9c0-.76.837-1,.837-1l2.257-.006v3.375Zm-.8-3.074h-.4l-1.359,3.2h-.5l-1.878-3.473h.906l.468.76h1.779l.165-.511h-.235v-.286h1.058Zm-4.649,1.539a.515.515,0,0,1-.5-.506.419.419,0,0,1,.453-.469s-.055-.672-.906-.662a.722.722,0,0,0-.671.485l.046,2.773h-.939l-.043-2.92s.162-.752,1.611-.707a1.429,1.429,0,0,1,1.355.977,1.982,1.982,0,0,1,.1.543.525.525,0,0,1-.5.486m-4.66,1.6a1.672,1.672,0,0,1-1.878-1.669,1.765,1.765,0,0,1,1.794-1.9,1.843,1.843,0,0,1,1.826,1.871,1.668,1.668,0,0,1-1.742,1.7m-3.137-12.093,3.867-3.289v2.845l-1.987,2.35h-1.88Zm0-5.162,3.919-1.924v1.9l-3.919,2.733Zm0-6.526h6.649l-6.649,1.018Zm-5.07,16.25a8.452,8.452,0,0,0,8.418,8.073h9.706a3.055,3.055,0,0,1,1.839,1.242,3.089,3.089,0,0,1,1.812-1.242s10.171.023,10.42,0a8.448,8.448,0,0,0,7.651-7.856c.012-.191,0-39.207,0-39.207h-14.371a7.115,7.115,0,0,1-11.026,0h-14.449s0,38.858,0,38.99"/><rect class="a" width="0.241" height="11.424" transform="translate(1570.397 2546.385)"/><rect class="a" width="0.243" height="11.424" transform="translate(1590.274 2546.385)"/><path class="a" d="M1580.5,2557.808h.624a16.758,16.758,0,0,1,4.219-.685,24.269,24.269,0,0,1,4.709.685v-11.921h-.269V2557.7a19.84,19.84,0,0,0-4.687-.732,16.975,16.975,0,0,0-4.6.839"/><path class="a" d="M1571.124,2557.7v-11.814h-.265v11.921h.042a19.321,19.321,0,0,1,4.716-.685,17.452,17.452,0,0,1,3.98.685h.636a17.762,17.762,0,0,0-4.381-.841,19.373,19.373,0,0,0-4.728.734"/><path class="a" d="M1580.443,2557.219l-.035.011-.036-.011a16.582,16.582,0,0,0-4.07-.792c-1.849-.04-4.279.169-4.279.169v-11.821h-.22v12.08a24.984,24.984,0,0,1,4.284-.384,17.147,17.147,0,0,1,4.283.831,16.4,16.4,0,0,1,4.5-.831,27.8,27.8,0,0,1,4.239.39v-12.086h-.221V2556.6s-2.264-.169-4.239-.169a14.912,14.912,0,0,0-4.207.792"/><path class="a" d="M1580.407,2557.521l-.037.016-.035-.016a17.18,17.18,0,0,0-4.253-.832,26.785,26.785,0,0,0-4.5.432v-11.756h-.243v12.047a18.161,18.161,0,0,1,4.513-.666,17.807,17.807,0,0,1,4.515.879,16.963,16.963,0,0,1,4.73-.879,18.706,18.706,0,0,1,4.468.666v-12.047h-.239v11.756a29.511,29.511,0,0,0-4.459-.432,16.192,16.192,0,0,0-4.463.832"/><path class="a" d="M1568.38,2562.158c-.622,0-.72.268-.72.268v2.412s.1.3.771.3.721-.289.721-.289l-.018-2.41s-.132-.289-.754-.285"/><path class="a" d="M1597.009,2531.459c.551,0,.6-.3.6-.3v-.912h.286s-.235,1.215.651,1.215c.505,0,.53-.389.53-.389l.007-1.1h-2.78v.928a.76.76,0,0,0,.7.559"/><path class="a" d="M1584.052,2564.57l.652-1.5h-1.474Z"/><path class="a" d="M1576.064,2564.545l.653-1.5h-1.473Z"/><path class="a" d="M1597.022,2544.176v1.48l1.493-.826Z"/><path class="a" d="M1579.382,2562.31a.767.767,0,0,0-.553.707c0,.561.3.61.3.61h.907v.287s-1.207-.235-1.207.656c0,.5.385.531.385.531l1.09.008v-2.8Z"/><path class="a" d="M1596.537,2550.129c.338,0,2.249.017,2.249.017a.607.607,0,0,0,.382-.572v-.912h-2.918v.674s-.046.793.287.793"/><path class="a" d="M1579.865,2544.523h.3c-.117-.037-.276-.08-.465-.133Z"/><path class="a" d="M1567.2,2557.418c-.159,0-.167.222-.26.215s-.131-.537-.269-.537-.095.537-.26.537-.124-.215-.262-.215c0,0,.138,1.066.522,1.066s.577-1.066.529-1.066"/><path class="a" d="M1567.813,2559.211c-.093-.01-.13-.535-.27-.535s-.092.535-.261.535-.119-.217-.261-.217c0,0,.142,1.068.522,1.068s.578-1.068.529-1.068c-.157,0-.168.225-.259.217"/><path class="a" d="M1570.195,2559.211c-.092-.01-.128-.535-.269-.535s-.092.535-.26.535-.122-.217-.261-.217c0,0,.139,1.068.521,1.068s.578-1.068.532-1.068c-.16,0-.166.225-.263.217"/><path class="a" d="M1572.505,2559.211c-.094-.01-.128-.535-.271-.535s-.09.535-.26.535-.12-.217-.258-.217c0,0,.138,1.068.518,1.068s.578-1.068.532-1.068c-.158,0-.17.225-.261.217"/><path class="a" d="M1574.887,2559.211c-.091-.01-.129-.535-.268-.535s-.091.535-.261.535-.12-.217-.26-.217c0,0,.14,1.068.521,1.068s.578-1.068.529-1.068c-.158,0-.164.225-.261.217"/><path class="a" d="M1577.2,2559.211c-.1-.01-.131-.535-.27-.535s-.092.535-.261.535-.12-.217-.259-.217c0,0,.139,1.068.52,1.068s.575-1.068.531-1.068c-.159,0-.169.225-.261.217"/><path class="a" d="M1579.244,2559.953c-.094-.01-.131-.533-.272-.533s-.091.533-.26.533-.12-.215-.26-.215c0,0,.14,1.066.52,1.066s.576-1.066.532-1.066c-.16,0-.169.223-.26.215"/><path class="a" d="M1594.07,2557.639c-.167,0-.121-.534-.26-.534s-.176.522-.271.534-.1-.217-.26-.217c-.048,0,.151,1.068.531,1.068s.521-1.068.521-1.068c-.138,0-.094.217-.261.217"/><path class="a" d="M1593.2,2559.215c-.169,0-.123-.532-.264-.532s-.174.524-.267.532-.1-.215-.263-.215c-.046,0,.148,1.07.53,1.07s.523-1.07.523-1.07c-.138,0-.092.215-.259.215"/><path class="a" d="M1590.812,2559.215c-.169,0-.121-.532-.263-.532s-.174.524-.268.532-.1-.215-.258-.215c-.048,0,.147,1.07.526,1.07s.524-1.07.524-1.07c-.14,0-.095.215-.261.215"/><path class="a" d="M1588.5,2559.215c-.166,0-.122-.532-.259-.532s-.179.524-.269.532-.1-.215-.262-.215c-.047,0,.151,1.07.531,1.07s.522-1.07.522-1.07c-.14,0-.093.215-.263.215"/><path class="a" d="M1586.12,2559.215c-.166,0-.123-.532-.261-.532s-.177.524-.271.532-.1-.215-.26-.215c-.047,0,.149,1.07.531,1.07s.52-1.07.52-1.07c-.139,0-.091.215-.259.215"/><path class="a" d="M1583.809,2559.215c-.167,0-.122-.532-.259-.532s-.175.524-.27.532-.1-.215-.26-.215c-.046,0,.148,1.07.53,1.07s.521-1.07.521-1.07c-.14,0-.092.215-.262.215"/><path class="a" d="M1581.785,2559.961c-.167,0-.121-.537-.262-.537s-.176.525-.27.537-.1-.217-.259-.217c-.049,0,.147,1.068.529,1.068s.52-1.068.52-1.068c-.137,0-.091.217-.258.217"/><path class="a" d="M1572.009,2529.754a30.979,30.979,0,0,1,3.279-.3c.15,0,4.282.375,4.282.375l.037-1.537s-1.118-2.1-1.6-2.1-.67,1.2-1.751,1.2a4.669,4.669,0,0,0-2.087.6s-.145.262-.706.262-.478-.719-2.159-.9a3.985,3.985,0,0,0-1.23,0s-.659-.634-.931-.634c-.445,0-3.166,2.771-3.166,2.771s5.922.375,6.033.262"/><path class="a" d="M1571.807,2530.207l-.319.672h2.7l-.294-.672Z"/><path class="a" d="M1570.374,2531.908l.333.355h5.01l-.726-1.086h-4.228Z"/><path class="a" d="M1570.856,2532.658l-.316.9h6.687l-.693-.9Z"/><path class="a" d="M1571.414,2534.084l.186.541s.111-.047.3.076a.5.5,0,0,1,.263.563v1.255h4.28a5.746,5.746,0,0,1,1.154-.955,8.56,8.56,0,0,1,1.3-.617l-.521-.863Z"/><path class="a" d="M1566.628,2534.531a1.908,1.908,0,0,0-.521.957v1.088h1.954a5.946,5.946,0,0,1,.151-1.613c.239-.282.428-.282.428-.282l.149-.58h-1.323a1.334,1.334,0,0,0-.838.43"/><path class="a" d="M1572.066,2537.025c-.277-.053-.578-.094-.578-.094a.5.5,0,0,1-.335-.544.15.15,0,0,1,.167-.151c.318,0,.074.414.372.414.141,0,.208-.037.208-.226l-.094-.282c-.136-.156.131-.13.112-.336-.018-.189-.149-.113-.149-.32s.149.02.111-.279c-.033-.27-.427-.111-.5-.225a.735.735,0,0,1-.092-.281,1.1,1.1,0,0,0-1.118-.881,1.132,1.132,0,0,0-1.079.9s.017.246-.148.263-.447.074-.447.26a.465.465,0,0,0,.166.322.215.215,0,0,0-.206.242.431.431,0,0,0,.113.336.3.3,0,0,0-.132.264.236.236,0,0,0,.281.244c.207-.029.164-.156.15-.263-.029-.225.138-.235.261-.184s.277.467-.168.728c-.4.231-.78-.095-1.232.635-.392.649.337,1.369.337,1.369s.594.409.708.151c.094-.207.056-.471.187-.676.12-.188,1.226-.166,1.226-.166h.877a.5.5,0,0,1,.372.26.476.476,0,0,1,0,.394.149.149,0,0,0,.111.225.7.7,0,0,0,.691-.264c.206-.244.391-.3.374-.842a1.072,1.072,0,0,0-.542-.992"/><path class="a" d="M1569.664,2539.01l-.111.113.111.113h.969l.109-.113-.109-.113Z"/><path class="a" d="M1569.535,2531.834a1.205,1.205,0,0,0-1.005.263s-.57.44.017.58a2.349,2.349,0,0,1,.681-.3c.233-.018.473.039.473.34s.168.839.41.71a.917.917,0,0,0,.411-.6,1.105,1.105,0,0,0-.987-.994"/><path class="a" d="M1569.08,2532.9l-.1-.037v.086l-.1.1a.269.269,0,0,1,.086-.246.2.2,0,0,1,.223.012s.015.016-.1.084m.322.863.409-.169a4.479,4.479,0,0,1-.343-.862.319.319,0,0,0-.307-.185,1.381,1.381,0,0,0-.449.24l.059.523.168-.015.092.166.242-.036-.112.147Z"/><path class="a" d="M1570.886,2538.449l-1.514.01s-.222.09-.249.238c-.038.236.063.264.063.264.242.144.223-.25.223-.25h1.443s.034.2.148.2.146-.01.146-.2a.255.255,0,0,0-.26-.262"/><path class="a" d="M1585.9,2538.509a2.132,2.132,0,0,0,1.982,1.569,2.3,2.3,0,0,0,1.982-.992l1.836.873,1.952.058.021-1.136-.524.33-.854-.02-1.727-1.131a.735.735,0,0,0,.678-.377s.488.381.639-.066c.193-.57-.465-.424-.465-.424l-.174-.551-7.218-1.472s-.262-.223-.412.523.038.744.038.744l2.483.6a3.977,3.977,0,0,0-.237,1.472"/><path class="a" d="M1585.549,2532.367v-2.148h2.133v-2.4h-2.133v-2.1h-2.386v2.148h-2.035v2.461l2.088-.014v2.049Z"/><path class="a" d="M1590.365,2532.394h2.334v-2.148h2.136v-2.4H1592.7v-2.1h-2.385v2.148h-2.035v2.459l2.086-.012Z"/><path class="a" d="M1579.8,2539.971c.2-.051.544-2.749,0-2.5,0,0-.2,2.549,0,2.5"/><path class="a" d="M1580.236,2540.017s.956-2.595.359-2.646c-.348.053-.359,2.646-.359,2.646"/><path class="a" d="M1580.419,2537.207c.141,0,.25-.149.25-.334s-.109-.336-.25-.336-.243.15-.243.336.111.334.243.334"/><path class="a" d="M1581.539,2537.285a.213.213,0,1,0-.21-.215.213.213,0,0,0,.21.215"/><path class="a" d="M1582.507,2537.59c.1,0,.172-.106.172-.231s-.073-.228-.172-.228a.205.205,0,0,0-.175.228c0,.125.076.231.175.231"/><path class="a" d="M1582.606,2537.746a.241.241,0,0,0,.465,0c0-.1-.1-.176-.232-.176s-.233.078-.233.176"/><path class="a" d="M1583.711,2538.744a.265.265,0,1,0,.263.265.263.263,0,0,0-.263-.265"/><path class="a" d="M1577.889,2537.64a.194.194,0,1,0-.191-.195.192.192,0,0,0,.191.195"/><path class="a" d="M1578.312,2537.375a.177.177,0,1,0-.175-.178.177.177,0,0,0,.175.178"/><path class="a" d="M1578.808,2537.295a.247.247,0,1,0-.246-.248.245.245,0,0,0,.246.248"/><path class="a" d="M1576.7,2539.219a.247.247,0,0,0,0-.495.247.247,0,0,0,0,.495"/><path class="a" d="M1577.492,2537.971a.248.248,0,1,0-.246-.25.249.249,0,0,0,.246.25"/><path class="a" d="M1579.074,2539.521c0,.293.087.53.192.53s.193-.237.193-.53-.085-.531-.193-.531-.192.236-.192.531"/><path class="a" d="M1579.877,2542.342c.171.127.2-.2.223-.4a1.146,1.146,0,0,0,0-.324l-.3.221s-.1.379.077.5"/><path class="a" d="M1580.419,2541.869s.051.424.176.451.123-.178.149-.3-.075-.324-.174-.324Z"/><path class="a" d="M1579.054,2540.166a1.188,1.188,0,0,0-.195.353c-.051.176.195.3.347.452s.123-.077.322,0,.05.048.148.171.15.071.324,0,.048-.651,0-.75a.307.307,0,0,0-.347-.168,2.773,2.773,0,0,1-.6-.055"/><path class="a" d="M1581.638,2540.971a.409.409,0,0,0-.3-.174l-.672-.528-.148-.1-.123.1-.075,1.026s.049.224.25.224a5.382,5.382,0,0,0,.843-.2s.3-.2.223-.349"/><path class="a" d="M1576.376,2538.748l.67-.25s.322-.375.172-.526-.346,0-.421.075Z"/><path class="a" d="M1583.252,2538.449l.67.246-.423-.7c-.077-.074-.27-.225-.421-.074s.174.527.174.527"/><path class="a" d="M1576.543,2539.441c.023-.057-.061-.14-.189-.189s-.244-.051-.268,0,.064.14.189.191.244.051.268,0"/><path class="a" d="M1583.835,2539.463c.022.054.141.056.266,0s.209-.135.19-.192-.144-.056-.269,0-.21.139-.187.192"/><path class="a" d="M1576.056,2539.783c.126.051.244.051.267,0s-.059-.142-.187-.193-.244-.051-.266.006.06.138.186.191"/><path class="a" d="M1576.034,2540.06c.132.028.249.008.26-.054s-.085-.125-.218-.151-.25-.011-.26.049.084.127.218.156"/><path class="a" d="M1575.946,2540.39c.134.016.25-.017.257-.072s-.1-.119-.23-.139-.251.018-.257.075.1.119.23.136"/><path class="a" d="M1576.032,2540.974c.231-.039.4-.148.39-.248s-.219-.15-.449-.109-.4.147-.389.248.216.147.448.109"/><path class="a" d="M1576,2541.158c-.232.031-.409.143-.4.242s.215.152.449.119.406-.144.394-.244-.215-.152-.447-.117"/><path class="a" d="M1579.467,2537.191c.087,0,.158-.144.158-.318s-.071-.319-.158-.319-.161.143-.161.319.073.318.161.318"/><path class="a" d="M1579.908,2537.222c.058,0,.1-.156.1-.349s-.046-.348-.1-.348-.108.154-.108.348.048.349.108.349"/><path class="a" d="M1580.9,2537.24c.069,0,.125-.143.125-.318s-.056-.319-.125-.319-.126.145-.126.319.059.318.126.318"/><path class="a" d="M1582.1,2537.32l.158-.158a.157.157,0,1,0-.314,0Z"/><path class="a" d="M1584.019,2539.721c.021.054.143.056.269.005s.209-.138.187-.191-.141-.055-.268,0-.21.135-.188.19"/><path class="a" d="M1584.264,2539.8c-.131.025-.229.1-.218.154s.13.08.263.051.232-.1.219-.155-.129-.08-.264-.05"/><path class="a" d="M1584.371,2540.123c-.134.019-.238.08-.233.139s.124.091.261.074.238-.08.229-.137-.125-.092-.257-.076"/><path class="a" d="M1583.92,2540.67c-.014.1.161.209.393.25s.43-.014.445-.114-.157-.21-.385-.248-.435.01-.453.112"/><path class="a" d="M1584.345,2541.1c-.234-.035-.433.02-.447.12s.159.206.393.242.431-.018.447-.117-.163-.212-.393-.245"/><path class="a" d="M1581.154,2537.642c-.3-.117-.436,1.6-.436,1.6s.733-1.483.436-1.6"/><path class="a" d="M1580.82,2540.072c.324.1.447-1.453.447-1.453s-.773,1.352-.447,1.453"/><path class="a" d="M1581.143,2540.3c.272.125.445-1.026.445-1.026s-.718.9-.445,1.026"/><path class="a" d="M1581.39,2540.568c.223.129.473-.873.473-.873s-.7.75-.473.873"/><path class="a" d="M1582.035,2540.021c-.2-.15-.274.649-.274.649s.474-.5.274-.649"/><path class="a" d="M1579.129,2541.945c.2.152.325-.676.325-.676s-.522.524-.325.676"/><path class="a" d="M1578.783,2541.568s.472-.572.149-.7-.149.7-.149.7"/><path class="a" d="M1581.043,2541.767c-.2.075.049.327.049.327s.149-.4-.049-.327"/><path class="a" d="M1577.466,2540.6a2.609,2.609,0,0,0,2.77,2.543,2.387,2.387,0,0,0,2.715-2.543,2.794,2.794,0,0,0-.844-2.149s-.145-.277-.32-.148.025.375.025.375.817.373.817,1.894a2.238,2.238,0,0,1-2.393,2.219,2.282,2.282,0,0,1-2.321-2.166,2.914,2.914,0,0,1,.893-2.074s.247-.231.123-.354c0,0-.072-.121-.372.029a2.863,2.863,0,0,0-1.093,2.374"/><path class="a" d="M1578.039,2540.5a2.209,2.209,0,0,0,2.2,2.139,2.348,2.348,0,0,0,1.736-.659,2.052,2.052,0,0,0,.511-1.562,2.166,2.166,0,0,0-1.113-1.987l-.06.133a2.049,2.049,0,0,1,1.023,1.862,1.905,1.905,0,0,1-.47,1.451,2.2,2.2,0,0,1-1.627.611,2.06,2.06,0,0,1-2.049-1.994,2.8,2.8,0,0,1,1.064-1.859l-.091-.121a2.911,2.911,0,0,0-1.121,1.986"/><path class="a" d="M1577.517,2539.295c.048-.1-.393.154-.075-.324l.3-.077c.423-.635.4-.922.224-.947l-.123.072a.82.82,0,0,1-.05.453c-.1.176-.2-.125-.3-.074s.048.25-.026.35-.273.049-.4.121-.024.279-.024.279a1.956,1.956,0,0,0-.323.323c-.074.125.123.1.149.373s-.175.277-.2.451.074.273.051.424a2.03,2.03,0,0,1-.2.453.233.233,0,0,0,.246.347c.3-.025.2-.748.174-.976s.271-.276.4-.5-.322-.375-.322-.5.445-.149.5-.25"/><path class="a" d="M1582.582,2538.822l.3.076c.32.479-.125.223-.075.323s.5.128.5.25-.45.273-.324.5.422.275.4.5-.122.947.176.974a.238.238,0,0,0,.248-.351,1.9,1.9,0,0,1-.2-.45c-.023-.152.073-.248.048-.423s-.224-.176-.2-.452.222-.246.149-.373a1.843,1.843,0,0,0-.324-.326s.1-.2-.022-.273-.323-.026-.4-.123.078-.3-.022-.35-.2.246-.3.072a.794.794,0,0,1-.054-.449l-.121-.076c-.176.027-.2.314.223.951"/><path class="a" d="M1582.149,2548.441c.41,0,.278-.183.278-.183v-2.137a13.861,13.861,0,0,1,3.653-.863c.522,0,1.637.113,1.637.113v9.143s-1.489-.225-2.048-.225a10.015,10.015,0,0,0-1.111.129c-.187.027-.455.383-.455.383a2.426,2.426,0,0,0-.765-.192c-.556.092-.981.168-.981.168v-1.088h-.449v1.91a22.514,22.514,0,0,1,3.761-.71,11.483,11.483,0,0,1,2.57.412v-10.229s.485-.3-2.122-.3a8.427,8.427,0,0,0-4.246,1.051l-.018,2.1s-.113.523.3.523"/><path class="a" d="M1572.71,2545.109v10.231a11.458,11.458,0,0,1,2.57-.414,11.717,11.717,0,0,1,2,.289l-.4-.686a15.817,15.817,0,0,0-1.6-.2c-.56,0-2.051.224-2.051.224v-9.144s1.119-.111,1.641-.111a13.849,13.849,0,0,1,3.649.859l-.018,1.988s-.112.262.3.262.263-.412.263-.412l.019-2.133a8.443,8.443,0,0,0-4.245-1.051c-2.611,0-2.125.3-2.125.3"/><path class="a" d="M1578.592,2554.226l.45.426v-1.375l-.45-.449Z"/><path class="a" d="M1580.536,2548.965a1.168,1.168,0,0,1,.839.4,1.578,1.578,0,0,1,.336.568,1.848,1.848,0,0,1,.083.219l-.143-.176a1.944,1.944,0,0,0-.431-.367,1.172,1.172,0,0,0-.633-.191,1.131,1.131,0,0,0-.657.222l-.066.067-.414-.309.062-.068h.007a1.532,1.532,0,0,1,1.017-.369m1.283.892a1.655,1.655,0,0,1,.235.85,1.631,1.631,0,0,1-.09.537l-1.039-.748.647-.461a2.844,2.844,0,0,1,.3.4c.065.108.06-.193-.078-.562Zm1.131,2.291c.315.236.335.432.335.432s-.126.059-.5-.205-1.262-.932-1.262-.932-.124-.082-.064-.193.242-.006.242-.006.932.666,1.246.9m-2.4.2v-1.409l1.124.815a1.628,1.628,0,0,1-1.124.594m-.1-2.194-.528-.381.027-.019a1.026,1.026,0,0,1,.63-.225,1.273,1.273,0,0,1,.567.133c-.233.166-.465.332-.7.492m-.249,2.186a1.629,1.629,0,0,1-1.051-.59l1.051-.744Zm-1.335-1.1a1.618,1.618,0,0,1-.093-.533,1.652,1.652,0,0,1,.048-.393v.2h.558l.012-.035a2.107,2.107,0,0,1,.138-.258l.007-.011.16.115.228.193c-.362.252-.719.5-1.058.721m.06-1.039a1.42,1.42,0,0,1,.091-.225l.4.239-.106.195h-.385Zm-.289.313-.062.064s-.5.219-.646.283l-.046.02h-.093l-.065-.063,0-.094.067-.068.331-.141.353-.16.1,0,.065.069Zm-2.357,3.072a.393.393,0,0,0-.025-.282.873.873,0,0,0-.332-.179l.893-.486.253.412Zm1.61-4.918c-.068.1-.4-.2-.675-.2-.129,0-.788.009-.759-.114.027-.1.539-.132.613-.2.166-.166-.009-.566.129-.6.087-.028.258.412.293.58.051.264.465.441.4.545m-1.125-1.338s.371.441.168.713-.712-.1-.712-.1Zm2.95,1.17-.14.051-.163-.235-.184.088.064.281-.124.074-.209-.2-.163.121.12.262-.057.053-1.184-.852-.272-.721-.74-.544-.881,1.136.842.6h.713l.964.7-.056-.023-.105.177.216.194-.06.133-.288-.045-.067.191.252.151-.021.076-.291.011-.028.206.165.058-.271.115-.116.123,0,.172.121.119h.169s.076-.035.179-.08l.018,0,.005.1-.243.1.041.2h.264l.042.146-.219.147.067.158a4.739,4.739,0,0,1-1.653.834c-.747-.135-1.085-2.322-1.085-2.322a3.692,3.692,0,0,0,.542,2.7.558.558,0,0,0-.069.718.465.465,0,0,0,.612.069,13.774,13.774,0,0,0,2.071,1.636l.033-.785a11.457,11.457,0,0,1-.95-.644,1.175,1.175,0,0,1-.477-.752l1.5-1.066.083.1-.144.223.144.142.215-.15.121.1-.1.243.17.111.18-.185.138.074-.047.252.188.076.138-.217.155.045,0,.254.2.035.092-.236.157.015.029.147a.253.253,0,0,0,0,.463v.873a.791.791,0,1,0,.2,0v-.873a.257.257,0,0,0,.149-.233l-.11-.211.034-.173.154-.016.1.228.2-.047-.006-.248.152-.05.142.2.188-.086-.059-.238.144-.084.177.17.165-.118-.1-.224.122-.11.208.129.138-.152-.142-.192.021-.033.227.162-.377.9,1.934,1.431,1.56-1.673-2-1.672-.779.547-.261-.188.007-.009.235.038.068-.2-.2-.121.026-.109.254.01.043-.2-.245-.107.008-.1.261-.052v-.2l-.261-.053-.016-.156.244-.1-.039-.2h-.268l-.046-.153.216-.146-.078-.19-.261.053-.076-.136.189-.192h0l2.378-1.688s.441-.41.27-.58-.643.1-.643.1-1.024.771-2.347,1.728l-.119-.111-.224.156-.12-.095.1-.252-.172-.11-.188.2-.139-.067.047-.269-.189-.073-.145.233-.148-.039,0-.277-.2-.034-.1.26-.129-.008-.053-.273h-.2l-.056.281-.17.022-.111-.252-.2.045Z"/></g></svg>