<svg xmlns="http://www.w3.org/2000/svg" width="256.896" height="57.369" viewBox="0 0 256.896 57.369"><defs><style>.a{fill:#636569;}</style></defs><g transform="translate(-1552.853 -2604.479)"><path class="a" d="M1739.383,2611.373H1770.2v6.288h-21.854v6.842h20.746v6.01h-20.746v7.583h22.039v6.289h-31Z"/><path class="a" d="M1785.4,2627.368l-12.844-16h10.766l7.253,10.262,7.254-10.262H1808.6l-12.845,16,14,17.017h-11.134l-8.039-11.145-8.038,11.145H1771.4Z"/><path class="a" d="M1552.853,2611.161h30.817v6.289h-21.854v6.844h20.745v6.009h-20.745v7.584h22.038v6.286h-31Z"/><path class="a" d="M1596.494,2637.886h9.98c5.914,0,8.593-3.562,8.593-10.545,0-6.1-2.586-9.891-9.424-9.891h-9.149Zm-8.964-26.725h20.56c11.321,0,16.217,6.566,16.217,16.506s-5.081,16.505-15.431,16.505H1587.53Z"/><path class="a" d="M1647.4,2638.81c8.132,0,11-6.013,11-11.143s-2.865-11.142-11-11.142-10.995,6.012-10.995,11.142,2.864,11.143,10.995,11.143m0-28.573c17.742,0,20.516,10.541,20.516,17.43s-2.774,17.431-20.516,17.431-20.514-10.543-20.514-17.431,2.773-17.43,20.514-17.43"/><path class="a" d="M1695.393,2619.071l-7.714,14.1,5.8,10.776,7.689-14.313Z"/><path class="a" d="M1683.917,2627.415l-9.279,16.97h6.248l6.132-11.214Z"/><path class="a" d="M1687.351,2632.565l7.712-14.1-7.648-13.989-7.661,13.982Z"/><path class="a" d="M1683.59,2626.806l-4.167-7.737-13.844,25.315h8.4Z"/><path class="a" d="M1701.45,2630.341l-7.544,14.043h15.088Z"/><path class="a" d="M1707.507,2619.071l7.714,14.1-5.8,10.776-7.689-14.313Z"/><path class="a" d="M1718.983,2627.415l9.279,16.97h-6.249l-6.132-11.214Z"/><path class="a" d="M1715.549,2632.565l-7.711-14.1,7.648-13.989,7.659,13.982Z"/><path class="a" d="M1719.31,2626.806l4.168-7.737,13.843,25.315h-8.4Z"/><path class="a" d="M1555.15,2658.884h2.007c1.188,0,1.725-.716,1.725-2.12,0-1.224-.519-1.985-1.892-1.985h-1.84Zm-1.8-5.367h4.134c2.275,0,3.261,1.318,3.261,3.314s-1.021,3.319-3.1,3.319h-4.291Z"/><path class="a" d="M1561.775,2653.517h6.192v1.262h-4.394v1.375h4.174v1.207h-4.174v1.523h4.433v1.266h-6.231Z"/><path class="a" d="M1574.6,2656.025a1.758,1.758,0,0,0-1.893-1.431,2.245,2.245,0,0,0,0,4.477,1.757,1.757,0,0,0,1.893-1.47h1.962c-.227,1.936-1.812,2.734-3.922,2.734-2.412,0-3.917-1.041-3.917-3.5s1.505-3.5,3.917-3.5c1.6,0,3.633.411,3.9,2.694Z"/><rect class="a" width="1.802" height="6.633" transform="translate(1577.427 2653.517)"/><path class="a" d="M1584.977,2655.439c-.109-.863-.935-.959-1.662-.959s-1.225.338-1.225.78c0,.359.3.551.761.625l2.257.362c1.209.195,2.128.65,2.128,1.86,0,1.234-.836,2.228-3.447,2.228-1.615,0-3.714-.207-3.732-2.277h2.024c.018.911.927,1.069,1.708,1.069.846,0,1.421-.252,1.421-.829,0-.509-.408-.648-1.125-.761l-1.642-.248c-1.151-.178-2.267-.523-2.267-1.877,0-1.478,1.208-2.081,3.287-2.081,1.368,0,3.392.229,3.514,2.108Z"/><rect class="a" width="1.801" height="6.633" transform="translate(1588.064 2653.517)"/><path class="a" d="M1594.88,2659.071a2.239,2.239,0,1,0-2.211-2.24,2.092,2.092,0,0,0,2.211,2.24m0-5.74c3.57,0,4.127,2.117,4.127,3.5s-.557,3.5-4.127,3.5-4.124-2.121-4.124-3.5.561-3.5,4.124-3.5"/><path class="a" d="M1605.491,2653.517h1.746v6.633h-1.959l-3.613-4.628h-.02v4.628H1599.9v-6.633h2.087l3.483,4.624h.02Z"/><path class="a" d="M1608.5,2653.517h6.2v1.262h-4.4v1.375h4.173v1.207H1610.3v1.523h4.434v1.266H1608.5Z"/><path class="a" d="M1620.215,2655.439c-.111-.863-.938-.959-1.665-.959-.742,0-1.223.338-1.223.78,0,.359.3.551.762.625l2.255.362c1.207.195,2.128.65,2.128,1.86,0,1.234-.835,2.228-3.448,2.228-1.614,0-3.712-.207-3.732-2.277h2.025c.018.911.929,1.069,1.707,1.069.848,0,1.423-.252,1.423-.829,0-.509-.409-.648-1.125-.761l-1.642-.248c-1.152-.178-2.267-.523-2.267-1.877,0-1.478,1.206-2.081,3.287-2.081,1.365,0,3.392.229,3.511,2.108Z"/><path class="a" d="M1626.738,2653.517h5.926v1.262h-4.126v1.448h3.867v1.264h-3.867v2.659h-1.8Z"/><rect class="a" width="1.799" height="6.633" transform="translate(1633.445 2653.517)"/><path class="a" d="M1638.31,2656.451h2.389a.8.8,0,0,0,.862-.847c0-.656-.518-.825-.956-.825h-2.295Zm-1.8-2.934h4.821c1.839,0,2.148,1.122,2.148,1.8a1.511,1.511,0,0,1-1.08,1.6v.02c.79.119.912,1.123.912,1.773a2.453,2.453,0,0,0,.342,1.442h-1.97a2.48,2.48,0,0,1-.176-1.275c0-.93-.4-1.158-.958-1.158h-2.238v2.433h-1.8Z"/><path class="a" d="M1651.01,2653.517h2.647v6.633h-1.747v-5.315h-.02l-2.1,5.315h-1.5l-2.1-5.315h-.019v5.315h-1.746v-6.633h2.646l1.971,4.772Z"/><path class="a" d="M1654.921,2653.517h6.194v1.262h-4.393v1.375h4.173v1.207h-4.173v1.523h4.431v1.266h-6.231Z"/><path class="a" d="M1666.635,2655.439c-.109-.863-.936-.959-1.663-.959-.742,0-1.223.338-1.223.78,0,.359.295.551.761.625l2.256.362c1.208.195,2.128.65,2.128,1.86,0,1.234-.835,2.228-3.447,2.228-1.616,0-3.715-.207-3.734-2.277h2.025c.017.911.93,1.069,1.709,1.069.846,0,1.422-.252,1.422-.829,0-.509-.41-.648-1.125-.761l-1.644-.248c-1.152-.178-2.266-.523-2.266-1.877,0-1.478,1.207-2.081,3.287-2.081,1.366,0,3.393.229,3.512,2.108Z"/><path class="a" d="M1669.907,2658.568h1.8v1.189a1.9,1.9,0,0,1-1.8,2.091v-.649a.972.972,0,0,0,.836-1.049h-.836Z"/><path class="a" d="M1678.4,2656.451h2.389a.8.8,0,0,0,.862-.847c0-.656-.52-.825-.954-.825h-2.3Zm-1.8-2.934h4.822c1.837,0,2.147,1.122,2.147,1.8a1.509,1.509,0,0,1-1.079,1.6v.02c.788.119.909,1.123.909,1.773a2.461,2.461,0,0,0,.344,1.442h-1.969a2.477,2.477,0,0,1-.178-1.275c0-.93-.4-1.158-.956-1.158H1678.4v2.433h-1.8Z"/><path class="a" d="M1684.51,2653.517h6.2v1.262h-4.395v1.375h4.172v1.207h-4.172v1.523h4.431v1.266h-6.231Z"/><path class="a" d="M1696.224,2655.439c-.11-.863-.94-.959-1.664-.959-.741,0-1.225.338-1.225.78,0,.359.3.551.762.625l2.255.362c1.209.195,2.129.65,2.129,1.86,0,1.234-.836,2.228-3.447,2.228-1.614,0-3.715-.207-3.734-2.277h2.027c.015.911.927,1.069,1.707,1.069.847,0,1.423-.252,1.423-.829,0-.509-.411-.648-1.125-.761l-1.644-.248c-1.151-.178-2.267-.523-2.267-1.877,0-1.478,1.207-2.081,3.288-2.081,1.365,0,3.391.229,3.511,2.108Z"/><path class="a" d="M1699.233,2653.517h1.8v3.809c0,.648.028,1.745,1.681,1.745s1.682-1.1,1.682-1.745v-3.809h1.8v4.252c0,.744-.093,2.566-3.484,2.566s-3.484-1.822-3.484-2.566Z"/><path class="a" d="M1707.39,2653.517h1.8v5.31h4.041v1.323h-5.843Z"/><path class="a" d="M1715.065,2654.781H1712.6v-1.264h6.726v1.264h-2.464v5.369h-1.8Z"/><path class="a" d="M1722.851,2654.948l-1.04,2.628h2.079Zm1.524,3.833h-3.045l-.54,1.366h-1.941l2.915-6.63h2.174l2.917,6.63h-1.941Z"/><path class="a" d="M1729.159,2658.884h2.007c1.189,0,1.726-.716,1.726-2.12,0-1.224-.518-1.985-1.892-1.985h-1.841Zm-1.8-5.367h4.133c2.278,0,3.262,1.318,3.262,3.314s-1.02,3.319-3.1,3.319h-4.292Z"/><path class="a" d="M1739.534,2659.071a2.239,2.239,0,1,0-2.209-2.24,2.092,2.092,0,0,0,2.209,2.24m0-5.74c3.569,0,4.127,2.117,4.127,3.5s-.558,3.5-4.127,3.5-4.124-2.121-4.124-3.5.559-3.5,4.124-3.5"/><path class="a" d="M1749.04,2655.439c-.112-.863-.939-.959-1.664-.959-.744,0-1.225.338-1.225.78,0,.359.3.551.761.625l2.256.362c1.208.195,2.128.65,2.128,1.86,0,1.234-.836,2.228-3.445,2.228-1.617,0-3.716-.207-3.735-2.277h2.025c.018.911.93,1.069,1.71,1.069.845,0,1.42-.252,1.42-.829,0-.509-.408-.648-1.123-.761l-1.645-.248c-1.152-.178-2.266-.523-2.266-1.877,0-1.478,1.207-2.081,3.288-2.081,1.364,0,3.392.229,3.511,2.108Z"/><path class="a" d="M1755.56,2653.517h5.928v1.262h-4.124v1.448h3.865v1.264h-3.865v2.659h-1.8Z"/><path class="a" d="M1762.194,2653.517h1.8v3.809c0,.648.027,1.745,1.682,1.745s1.68-1.1,1.68-1.745v-3.809h1.8v4.252c0,.744-.092,2.566-3.484,2.566s-3.483-1.822-3.483-2.566Z"/><path class="a" d="M1770.351,2653.517h6.2v1.262h-4.4v1.375h4.173v1.207h-4.173v1.523h4.434v1.266h-6.233Z"/><path class="a" d="M1779.378,2656.451h2.389a.8.8,0,0,0,.861-.847c0-.656-.517-.825-.955-.825h-2.295Zm-1.8-2.934h4.821c1.841,0,2.148,1.122,2.148,1.8a1.511,1.511,0,0,1-1.078,1.6v.02c.788.119.91,1.123.91,1.773a2.46,2.46,0,0,0,.342,1.442h-1.969a2.467,2.467,0,0,1-.177-1.275c0-.93-.4-1.158-.957-1.158h-2.239v2.433h-1.8Z"/><path class="a" d="M1787.313,2654.781h-2.463v-1.264h6.728v1.264h-2.463v5.369h-1.8Z"/><path class="a" d="M1792.2,2653.517h6.2v1.262H1794v1.375h4.17v1.207H1794v1.523h4.431v1.266H1792.2Z"/><path class="a" d="M1803.916,2655.439c-.112-.863-.941-.959-1.666-.959-.743,0-1.224.338-1.224.78,0,.359.3.551.763.625l2.256.362c1.207.195,2.126.65,2.126,1.86,0,1.234-.836,2.228-3.446,2.228-1.614,0-3.716-.207-3.733-2.277h2.026c.016.911.926,1.069,1.707,1.069.846,0,1.42-.252,1.42-.829,0-.509-.406-.648-1.12-.761l-1.647-.248c-1.15-.178-2.265-.523-2.265-1.877,0-1.478,1.207-2.081,3.288-2.081,1.362,0,3.389.229,3.512,2.108Z"/><rect class="a" width="1.803" height="1.582" transform="translate(1807.184 2658.568)"/><path class="a" d="M1752.573,2604.657h9.1l-7.209,4.708h-6.344Z"/></g></svg>