<svg xmlns="http://www.w3.org/2000/svg" width="73.618" height="71.522" viewBox="0 0 73.618 71.522"><defs><style>.a{fill:#b550a4;}.b{fill:#d55293;}.c{fill:#653387;}.d{fill:#4ba6de;}.e{fill:#d56176;}.f{fill:#ee9d2e;}.g{fill:#c90045;}.h{fill:#f3cc23;}.i{fill:#a8d42e;}.j{fill:#969798;}.k{fill:#636569;}</style></defs><g transform="translate(-187.382 -23.535)"><path class="a" d="M201.706,38.126,187.382,64.3h8.925l9.861-18.023Z"/><path class="b" d="M201.706,38.126,209.7,52.735l7.994-14.6-7.989-14.6Z"/><path class="c" d="M196.308,64.3h7.062l6.331-11.57-3.531-6.454Z"/><path class="d" d="M209.7,52.735l7.993-14.6L224.022,49.7,216.029,64.3Z"/><path class="e" d="M246.337,38.126,260.661,64.3h-8.925l-9.862-18.023Z"/><path class="f" d="M246.337,38.126l-7.994,14.609-7.994-14.6,7.989-14.6Z"/><path class="g" d="M251.736,64.3h-7.063l-6.33-11.57,3.53-6.454Z"/><path class="h" d="M238.343,52.735l-7.994-14.6L224.022,49.7,232.015,64.3Z"/><path class="i" d="M224.022,49.7,216.029,64.3h15.986Z"/><path class="j" d="M188.236,84.752h2.5a2.01,2.01,0,0,1,.1,4.016h-2.6ZM189.327,88h1.215c.719,0,1.045-.432,1.045-1.282,0-.742-.315-1.2-1.146-1.2h-1.114Z"/><path class="j" d="M193.337,84.752h3.751v.765h-2.66v.832h2.525v.731h-2.525V88h2.683v.765h-3.773Z"/><path class="j" d="M201.1,86.271a1.065,1.065,0,0,0-1.147-.866,1.36,1.36,0,0,0,0,2.711,1.064,1.064,0,0,0,1.147-.89h1.187c-.135,1.17-1.1,1.654-2.373,1.654-1.463,0-2.372-.63-2.372-2.12s.909-2.12,2.372-2.12c.967,0,2.2.248,2.362,1.631Z"/><rect class="j" width="1.09" height="4.015" transform="translate(202.814 84.752)"/><path class="j" d="M207.385,85.917c-.067-.523-.567-.58-1.006-.58s-.742.2-.742.473c0,.214.179.331.461.376l1.366.22c.731.117,1.288.394,1.288,1.124,0,.748-.507,1.35-2.086,1.35-.979,0-2.25-.123-2.261-1.378h1.226c.01.551.562.647,1.035.647.512,0,.86-.152.86-.5,0-.309-.247-.394-.68-.462l-1-.152c-.7-.106-1.372-.315-1.372-1.135,0-.894.731-1.26,1.991-1.26.826,0,2.052.14,2.125,1.277Z"/><rect class="j" width="1.09" height="4.015" transform="translate(209.253 84.752)"/><path class="j" d="M213.38,84.64c2.16,0,2.5,1.282,2.5,2.12s-.337,2.12-2.5,2.12-2.5-1.282-2.5-2.12.338-2.12,2.5-2.12m0,3.476a1.356,1.356,0,1,0-1.338-1.356,1.266,1.266,0,0,0,1.338,1.356"/><path class="j" d="M219.8,84.752h1.058v4.015h-1.187l-2.187-2.8h-.011v2.8h-1.058V84.752h1.265l2.109,2.8h.011Z"/><path class="j" d="M221.625,84.752h3.751v.765h-2.66v.832h2.525v.731h-2.525V88H225.4v.765h-3.774Z"/><path class="j" d="M228.718,85.917c-.068-.523-.569-.58-1.008-.58s-.742.2-.742.473c0,.214.18.331.461.376l1.367.22c.731.117,1.287.394,1.287,1.124,0,.748-.506,1.35-2.086,1.35-.978,0-2.249-.123-2.261-1.378h1.226c.012.551.563.647,1.035.647.512,0,.86-.152.86-.5,0-.309-.246-.394-.681-.462l-.994-.152c-.7-.106-1.373-.315-1.373-1.135,0-.894.731-1.26,1.992-1.26.825,0,2.052.14,2.124,1.277Z"/><path class="j" d="M232.666,84.752h3.587v.765h-2.5v.877h2.34v.765h-2.34v1.609h-1.09Z"/><rect class="j" width="1.091" height="4.015" transform="translate(236.725 84.752)"/><path class="j" d="M238.582,84.752H241.5c1.113,0,1.3.681,1.3,1.091a.914.914,0,0,1-.652.967v.012c.477.073.552.68.552,1.075a1.482,1.482,0,0,0,.207.871h-1.192a1.473,1.473,0,0,1-.107-.771c0-.562-.242-.7-.58-.7h-1.355v1.474h-1.09Zm1.09,1.777h1.446a.487.487,0,0,0,.523-.511c0-.4-.316-.5-.58-.5h-1.389Z"/><path class="j" d="M247.36,84.752h1.6v4.015h-1.058V85.552h-.012l-1.271,3.216h-.91l-1.271-3.216h-.011v3.216h-1.058V84.752h1.6l1.192,2.89Z"/><path class="j" d="M249.728,84.752h3.75v.765h-2.659v.832h2.525v.731h-2.525V88H253.5v.765h-3.773Z"/><path class="j" d="M256.819,85.917c-.067-.523-.567-.58-1.006-.58s-.742.2-.742.473c0,.214.18.331.461.376l1.367.22c.731.117,1.288.394,1.288,1.124,0,.748-.507,1.35-2.087,1.35-.978,0-2.25-.123-2.261-1.378h1.226c.012.551.562.647,1.035.647.512,0,.86-.152.86-.5,0-.309-.247-.394-.68-.462l-.994-.152c-.7-.106-1.374-.315-1.374-1.135,0-.894.731-1.26,1.991-1.26.826,0,2.052.14,2.126,1.277Z"/><path class="j" d="M258.8,87.811h1.091v.72A1.15,1.15,0,0,1,258.8,89.8V89.4a.587.587,0,0,0,.506-.635H258.8Z"/><path class="j" d="M188.306,91.37h2.606c.995,0,1.161.609,1.161.975a.817.817,0,0,1-.584.863v.011c.428.065.493.607.493.959a1.32,1.32,0,0,0,.186.778H191.1a1.31,1.31,0,0,1-.1-.687c0-.5-.216-.629-.518-.629h-1.21v1.316h-.974Zm.974,1.588h1.29a.435.435,0,0,0,.467-.457c0-.357-.281-.447-.517-.447h-1.24Z"/><path class="j" d="M192.585,91.37h3.349v.683h-2.375V92.8h2.255v.652h-2.255v.824h2.4v.683h-3.37Z"/><path class="j" d="M198.919,92.41c-.06-.467-.508-.518-.9-.518s-.663.181-.663.423c0,.19.161.295.412.336l1.221.195c.653.107,1.15.353,1.15,1,0,.669-.452,1.206-1.863,1.206-.874,0-2.009-.111-2.02-1.231h1.1c.01.493.5.578.925.578.457,0,.769-.135.769-.447,0-.277-.221-.352-.608-.411l-.89-.136c-.622-.1-1.225-.282-1.225-1.015,0-.8.653-1.125,1.778-1.125.738,0,1.833.125,1.9,1.14Z"/><path class="j" d="M200.546,91.37h.975v2.06c0,.351.015.944.909.944s.909-.593.909-.944V91.37h.974v2.3c0,.4-.05,1.386-1.883,1.386s-1.884-.984-1.884-1.386Z"/><path class="j" d="M204.957,91.37h.974v2.873h2.185v.713h-3.159Z"/><path class="j" d="M209.107,92.054h-1.33V91.37h3.636v.683h-1.331v2.9h-.974Z"/><path class="j" d="M214.14,94.218h-1.647l-.292.738h-1.049l1.577-3.586H213.9l1.576,3.586h-1.05Zm-.824-2.074-.562,1.422h1.125Z"/><path class="j" d="M215.753,91.37h2.235a1.8,1.8,0,0,1,.085,3.586h-2.32Zm.974,2.9h1.085c.643,0,.934-.388.934-1.146,0-.663-.281-1.074-1.024-1.074h-.995Z"/><path class="j" d="M222.338,91.27c1.929,0,2.23,1.145,2.23,1.893s-.3,1.894-2.23,1.894-2.23-1.145-2.23-1.894.3-1.893,2.23-1.893m0,3.1a1.211,1.211,0,1,0-1.2-1.211,1.131,1.131,0,0,0,1.2,1.211"/><path class="j" d="M227.476,92.41c-.06-.467-.506-.518-.9-.518s-.662.181-.662.423c0,.19.16.295.411.336l1.222.195c.651.107,1.15.353,1.15,1,0,.669-.453,1.206-1.864,1.206-.874,0-2.009-.111-2.019-1.231h1.094c.011.493.5.578.925.578.457,0,.768-.135.768-.447,0-.277-.22-.352-.607-.411l-.889-.136c-.623-.1-1.226-.282-1.226-1.015,0-.8.653-1.125,1.778-1.125.739,0,1.833.125,1.9,1.14Z"/><path class="j" d="M231,91.37h3.2v.683h-2.231v.784h2.09v.683h-2.09v1.436H231Z"/><path class="j" d="M234.589,91.37h.975v2.06c0,.351.015.944.909.944s.909-.593.909-.944V91.37h.974v2.3c0,.4-.05,1.386-1.883,1.386s-1.884-.984-1.884-1.386Z"/><path class="j" d="M239,91.37h3.349v.683h-2.376V92.8h2.256v.652h-2.256v.824h2.4v.683H239Z"/><path class="j" d="M242.909,91.37h2.605c1,0,1.161.609,1.161.975a.816.816,0,0,1-.583.863v.011c.427.065.492.607.492.959a1.328,1.328,0,0,0,.186.778h-1.065a1.321,1.321,0,0,1-.1-.687c0-.5-.215-.629-.518-.629h-1.21v1.316h-.973Zm.973,1.588h1.291a.435.435,0,0,0,.467-.457c0-.357-.281-.447-.518-.447h-1.24Z"/><path class="j" d="M248.172,92.054h-1.331V91.37h3.636v.683h-1.33v2.9h-.974Z"/><path class="j" d="M250.814,91.37h3.35v.683h-2.377V92.8h2.255v.652h-2.255v.824h2.4v.683h-3.371Z"/><path class="j" d="M257.148,92.41c-.061-.467-.508-.518-.9-.518s-.663.181-.663.423c0,.19.161.295.412.336l1.22.195c.653.107,1.151.353,1.151,1,0,.669-.453,1.206-1.864,1.206-.874,0-2.01-.111-2.02-1.231h1.1c.01.493.5.578.924.578.457,0,.768-.135.768-.447,0-.277-.221-.352-.608-.411l-.888-.136c-.623-.1-1.226-.282-1.226-1.015,0-.8.653-1.125,1.778-1.125.738,0,1.833.125,1.9,1.14Z"/><rect class="j" width="0.974" height="0.854" transform="translate(258.916 94.103)"/><path class="j" d="M187.7,68.749h9.294v1.895H190.4v2.062h6.256v1.812H190.4V76.8h6.646v1.9H187.7Z"/><path class="j" d="M198.312,68.749h6.2c3.414,0,4.891,1.978,4.891,4.974S207.87,78.7,204.75,78.7h-6.438Zm2.7,8.053h3.009c1.784,0,2.592-1.073,2.592-3.176,0-1.84-.78-2.982-2.843-2.982h-2.758Z"/><path class="j" d="M216.51,68.47c5.352,0,6.187,3.177,6.187,5.253s-.835,5.252-6.187,5.252-6.186-3.176-6.186-5.252.837-5.253,6.186-5.253m0,8.611a3.358,3.358,0,1,0-3.315-3.358,3.135,3.135,0,0,0,3.315,3.358"/><path class="k" d="M233.914,68.749h3.971V78.7h-2.619V70.727h-.028L232.088,78.7h-2.257l-3.149-7.971h-.028V78.7h-2.619V68.749h3.972l2.953,7.162Z"/><path class="k" d="M239.553,68.749h9.294v1.895h-6.59v2.062h6.256v1.812h-6.256V76.8H248.9v1.9h-9.35Z"/><path class="k" d="M253.657,73.57l-3.874-4.821h3.248l2.188,3.092,2.187-3.092h3.247l-3.873,4.821L261,78.7h-3.358l-2.424-3.358L252.793,78.7h-3.358Z"/><path class="k" d="M243.535,66.725h2.755l-2.184,1.426h-1.921Z"/></g></svg>