<svg xmlns="http://www.w3.org/2000/svg" width="43.697" height="11.917" viewBox="0 0 43.697 11.917"><defs><style>.a{fill:#636569;}</style></defs><g transform="translate(-4085.193 -151.415)"><path class="a" d="M4091.152,159.359a1.986,1.986,0,1,0-1.986-1.986A1.986,1.986,0,0,0,4091.152,159.359Zm0,3.973a5.959,5.959,0,1,1,5.958-5.959A5.959,5.959,0,0,1,4091.152,163.332Z"/><path class="a" d="M4107.041,159.359a1.986,1.986,0,1,0-1.986-1.986A1.986,1.986,0,0,0,4107.041,159.359Zm0,3.973a5.959,5.959,0,1,1,5.959-5.959A5.959,5.959,0,0,1,4107.041,163.332Z"/><path class="a" d="M4122.931,159.359a1.986,1.986,0,1,0-1.986-1.986A1.986,1.986,0,0,0,4122.931,159.359Zm0,3.973a5.959,5.959,0,1,1,5.959-5.959A5.959,5.959,0,0,1,4122.931,163.332Z"/></g></svg>