<svg xmlns="http://www.w3.org/2000/svg" width="36.34" height="36.34" viewBox="0 0 36.34 36.34"><defs><style>.a{fill:#636569;}</style></defs><g transform="translate(-7897.66 -788)"><path class="a" d="M7924.158,824.34A9.842,9.842,0,1,1,7934,814.5a9.853,9.853,0,0,1-9.842,9.842Zm0-17.413a7.571,7.571,0,1,0,7.571,7.571,7.58,7.58,0,0,0-7.571-7.571Zm0,0"/><path class="a" d="M7924.158,819.8a1.136,1.136,0,0,1-1.136-1.136v-8.328a1.135,1.135,0,0,1,2.271,0v8.328a1.135,1.135,0,0,1-1.135,1.136Zm0,0"/><path class="a" d="M7928.322,815.634h-8.328a1.135,1.135,0,1,1,0-2.271h8.328a1.135,1.135,0,0,1,0,2.271Zm0,0"/><path class="a" d="M7911.575,819.8h-9.751a4.168,4.168,0,0,1-4.164-4.164V796.707a4.167,4.167,0,0,1,4.164-4.164h2.846a1.135,1.135,0,1,1,0,2.271h-2.846a1.9,1.9,0,0,0-1.893,1.893v18.927a1.9,1.9,0,0,0,1.893,1.893h9.751a1.135,1.135,0,0,1,0,2.271Zm0,0"/><path class="a" d="M7922.265,802.521a1.137,1.137,0,0,1-1.136-1.136v-4.678a1.9,1.9,0,0,0-1.892-1.893H7916.4a1.135,1.135,0,1,1,0-2.271h2.832a4.168,4.168,0,0,1,4.164,4.164v4.678a1.136,1.136,0,0,1-1.136,1.136Zm0,0"/><path class="a" d="M7914.694,797.842h-8.328a2.653,2.653,0,0,1-2.65-2.65v-3.028a1.137,1.137,0,0,1,1.136-1.136h1.672a4.165,4.165,0,0,1,8.013,0h1.671a1.137,1.137,0,0,1,1.136,1.136v3.028a2.653,2.653,0,0,1-2.65,2.65Zm-8.706-4.542v1.892a.379.379,0,0,0,.378.379h8.328a.38.38,0,0,0,.379-.379V793.3h-1.514a1.137,1.137,0,0,1-1.136-1.136,1.893,1.893,0,1,0-3.786,0,1.136,1.136,0,0,1-1.135,1.136Zm0,0"/><path class="a" d="M7917.723,802.385h-14.385a1.136,1.136,0,0,1,0-2.272h14.385a1.136,1.136,0,0,1,0,2.272Zm0,0"/><path class="a" d="M7914.194,806.927h-10.856a1.135,1.135,0,1,1,0-2.271h10.856a1.135,1.135,0,1,1,0,2.271Zm0,0"/><path class="a" d="M7911.575,811.47h-8.237a1.135,1.135,0,1,1,0-2.271h8.237a1.135,1.135,0,0,1,0,2.271Zm0,0"/></g></svg>