<?xml version="1.0"?>
<svg xmlns="http://www.w3.org/2000/svg" xmlns:xlink="http://www.w3.org/1999/xlink" xmlns:svgjs="http://svgjs.com/svgjs" version="1.1" width="512" height="512" x="0" y="0" viewBox="0 0 512 512" style="enable-background:new 0 0 512 512" xml:space="preserve" class=""><circle r="256" cx="256" cy="256" fill="#1862a5" shape="circle"/><g transform="matrix(0.7,0,0,0.7,76.79985351562502,76.79985237121582)"><g xmlns="http://www.w3.org/2000/svg"><path d="m256 216.795-65.528 89.31h38.368v144.153h54.32v-144.153h38.368z" fill="#ffffff" data-original="#000000" style="" class=""/><path d="m411.62 164.869c-8.342-27.393-24.797-52.042-47.151-70.326-25.86-21.153-58.533-32.802-91.999-32.802-30.058 0-58.908 9.097-83.432 26.308-20.881 14.654-37.352 34.23-48.111 57.06-36.388.571-66.198 28.732-69.387 64.438-40.576 7.005-71.54 42.456-71.54 85.002 0 47.563 38.695 86.258 86.258 86.258h112.582v-44.702h-67.589l124.749-170.023 124.749 170.023h-67.589v44.702h90.733c59.61 0 108.106-48.496 108.106-108.106.001-57.012-44.36-103.857-100.379-107.832z" fill="#ffffff" data-original="#000000" style="" class=""/></g></g></svg>
