<svg xmlns="http://www.w3.org/2000/svg" width="27.252" height="27.252" viewBox="0 0 27.252 27.252"><defs><style>.a{fill:#636569;}</style></defs><path class="a" d="M-8.012,120.43a6.148,6.148,0,0,0-2.994.771l-.756-1.157a6.139,6.139,0,0,0,2.432-4.889A6.161,6.161,0,0,0-15.484,109a6.161,6.161,0,0,0-6.154,6.153,6.118,6.118,0,0,0,2.427,4.9l-.753,1.151a6.153,6.153,0,0,0-2.992-.774,6.16,6.16,0,0,0-6.154,6.154,6.16,6.16,0,0,0,6.154,6.153,6.106,6.106,0,0,0,3.224-.912,3.511,3.511,0,0,0,.939,1.067l.672.505v2.857h7.912V132.33a6.187,6.187,0,0,0,2.2.407,6.16,6.16,0,0,0,6.154-6.153,6.16,6.16,0,0,0-6.154-6.154Zm5.275,6.154a5.234,5.234,0,0,1-.818,2.808,4.973,4.973,0,0,0-2.8-2.517,2.635,2.635,0,0,0,.98-2.05,2.64,2.64,0,0,0-2.638-2.637,2.639,2.639,0,0,0-2.588,2.141,1.313,1.313,0,0,0-.928-.383,1.309,1.309,0,0,0-.49.1,1.312,1.312,0,0,0-.278-.519,5.231,5.231,0,0,1,4.284-2.215,5.281,5.281,0,0,1,5.275,5.275Zm-7.472-.3a2.641,2.641,0,0,0,.538.593,4.682,4.682,0,0,0-.538.227Zm2.2.3a1.761,1.761,0,0,1-1.758-1.759h3.517a1.761,1.761,0,0,1-1.759,1.759Zm-1.513-2.638a1.752,1.752,0,0,1,1.513-.879,1.753,1.753,0,0,1,1.514.879Zm1.513,3.517a3.987,3.987,0,0,1,.87.1.878.878,0,0,1-.87.781.878.878,0,0,1-.868-.775,4.056,4.056,0,0,1,.868-.1Zm-3.728-5.779a6.158,6.158,0,0,0-1.335,1.4,1.228,1.228,0,0,0-.211-.022,1.314,1.314,0,0,0-.491.1,1.315,1.315,0,0,0-1.267-.976,1.311,1.311,0,0,0-.44.081v-.96a6.107,6.107,0,0,0,2.989-.779Zm-3.744-1.254c-.028,0-.054,0-.082,0a1.317,1.317,0,0,0-1.237-.876,1.314,1.314,0,0,0-.922.378,5.28,5.28,0,0,1-1.6-1.152,4.078,4.078,0,0,1,2.127-2.359,1.759,1.759,0,0,0,1.713,1.375,1.759,1.759,0,0,0,1.713-1.374,4.073,4.073,0,0,1,2.123,2.345,5.253,5.253,0,0,1-3.836,1.666Zm-1.758-7.033h3.516a1.759,1.759,0,0,1-1.758,1.758,1.76,1.76,0,0,1-1.758-1.758Zm.244-.879a1.753,1.753,0,0,1,1.514-.879,1.753,1.753,0,0,1,1.514.879Zm1.514,3.516a3.978,3.978,0,0,1,.869.1.876.876,0,0,1-.869.78.876.876,0,0,1-.869-.78,3.978,3.978,0,0,1,.869-.1Zm0-6.153a5.28,5.28,0,0,1,5.275,5.274,5.237,5.237,0,0,1-.818,2.809,4.976,4.976,0,0,0-2.8-2.518,2.633,2.633,0,0,0,.98-2.049,2.639,2.639,0,0,0-2.637-2.637,2.64,2.64,0,0,0-2.637,2.637,2.633,2.633,0,0,0,.98,2.049,4.975,4.975,0,0,0-2.8,2.527,5.267,5.267,0,0,1-.812-2.818,5.28,5.28,0,0,1,5.274-5.274Zm-2.991,10.651c.121.066.243.13.369.189a1.216,1.216,0,0,0-.015.148v1.909a6.189,6.189,0,0,0-1.107-1.093Zm-4.481.777a5.263,5.263,0,0,1,4.835,3.169v.515l-1.393.7a2.235,2.235,0,0,0-1.17,1.447,5.086,5.086,0,0,0-.612-.264,2.637,2.637,0,0,0,.977-2.048,2.64,2.64,0,0,0-2.637-2.637,2.639,2.639,0,0,0-2.637,2.637,2.628,2.628,0,0,0,.98,2.049,4.973,4.973,0,0,0-2.8,2.518,5.234,5.234,0,0,1-.818-2.808,5.281,5.281,0,0,1,5.275-5.275Zm-1.758,3.516H-21.2a1.761,1.761,0,0,1-1.758,1.759,1.76,1.76,0,0,1-1.758-1.759Zm.244-.879a1.753,1.753,0,0,1,1.514-.879,1.753,1.753,0,0,1,1.514.879Zm1.514,3.517a4.052,4.052,0,0,1,.869.1.876.876,0,0,1-.869.784.877.877,0,0,1-.869-.781,3.978,3.978,0,0,1,.869-.1Zm0,4.4a5.256,5.256,0,0,1-3.836-1.665,4.072,4.072,0,0,1,2.123-2.346,1.759,1.759,0,0,0,1.713,1.374,1.76,1.76,0,0,0,1.714-1.377,4.064,4.064,0,0,1,.529.3c0,.016,0,.033.008.05l.589,2.651c.012.052.028.1.042.155a5.223,5.223,0,0,1-2.882.86Zm11.868,3.517h-6.154v-1.926a7.129,7.129,0,0,1,6.154,0Zm0-2.892a8.014,8.014,0,0,0-6.544.182l-.633-.476a2.64,2.64,0,0,1-.993-1.537L-19.846,128a1.288,1.288,0,0,1-.033-.3,1.364,1.364,0,0,1,.758-1.228l1-.5v.944a1.145,1.145,0,0,1-.636,1.029l.393.786a2.021,2.021,0,0,0,1.122-1.815v-6.051a.44.44,0,0,1,.439-.439.44.44,0,0,1,.44.439V127.9h.879v-4.395a.441.441,0,0,1,.44-.44.44.44,0,0,1,.439.44V127.9h.879v-3.516a.441.441,0,0,1,.44-.44.44.44,0,0,1,.439.44V127.9h.88v-2.637a.44.44,0,0,1,.439-.44.441.441,0,0,1,.44.44Zm3.076-.625a5.28,5.28,0,0,1-2.2-.489v-3.248a4.136,4.136,0,0,1,.485-.272,1.759,1.759,0,0,0,1.712,1.372A1.759,1.759,0,0,0-6.3,127.847a4.072,4.072,0,0,1,2.123,2.346,5.256,5.256,0,0,1-3.836,1.665Zm0,0" transform="translate(29.11 -109.002)"/></svg>