<svg xmlns="http://www.w3.org/2000/svg" width="26.634" height="27.255" viewBox="0 0 26.634 27.255"><defs><style>.a{fill:#636569;}</style></defs><g transform="translate(-4093.582 -532.002)"><path class="a" d="M4119.273,532c-19.035,0-17.768,0-18.04.007a7.994,7.994,0,0,0-3.166,15.169h-1.774a1.813,1.813,0,0,0,0,3.625h.478a1.811,1.811,0,0,0,0,2.012h-.478a1.812,1.812,0,0,0,0,3.624h.147a1.814,1.814,0,0,0,1.508,2.817h21.325a.944.944,0,0,0,.943-.943V532.946a.944.944,0,0,0-.943-.943ZM4096.293,550a1,1,0,0,1,0-2.009h10.819a1,1,0,1,1,0,2.009Zm7.6,2.818h-5.611a1,1,0,0,1,0-2.009h5.611a1.815,1.815,0,0,0,0,2.009Zm10.344.81a1,1,0,0,1,0,2.008h-10.82a1,1,0,0,1,0-2.008Zm-17.94,2.008a1,1,0,0,1,0-2.008h5.612a1.808,1.808,0,0,0,0,2.008Zm7.267,2.817h-5.612a1,1,0,0,1,0-2.009h5.612a1.811,1.811,0,0,0,0,2.009Zm12.327,0h-10.819a1,1,0,0,1,0-2.009h10.819a1,1,0,0,1,0,2.009Zm3.521-.135a.135.135,0,0,1-.135.135H4117.4a1.814,1.814,0,0,0-1.508-2.817h-.146a1.812,1.812,0,0,0,0-2.01h.477a1.813,1.813,0,1,0,0-3.625h-2.355a.4.4,0,1,0,0,.808h2.355a1,1,0,1,1,0,2.009H4105.4a1,1,0,0,1,0-2.009h6.847a.4.4,0,0,0,0-.808h-3.625a1.812,1.812,0,0,0-1.508-2.818h-2.039a8.011,8.011,0,0,0,3.24-2.885.4.4,0,0,0-.681-.435,7.181,7.181,0,1,1,.681-1.367.4.4,0,0,0,.758.281,8,8,0,0,0-3.986-9.962h14.188a.135.135,0,0,1,.135.135Zm0,0"/><path class="a" d="M4101.441,542.505a1.45,1.45,0,0,1-1.144-.492c-.118-.115-.21-.206-.33-.206-.215,0-.4.263-.4.478,0,.381.629.94,1.6,1.039v.838a.4.4,0,0,0,.808,0v-.867a1.716,1.716,0,0,0,1.464-1.846c0-2.386-2.835-1.684-2.835-3.042,0-.674.594-.816,1.091-.816a1.806,1.806,0,0,1,.924.231.631.631,0,0,0,.274.1c.257,0,.391-.311.391-.477,0-.407-.717-.594-1.309-.639v-.976a.4.4,0,1,0-.808,0v1.013a1.576,1.576,0,0,0-1.448,1.636c0,2.149,2.835,1.394,2.835,3.042,0,.637-.4.987-1.117.987Zm0,0"/><path class="a" d="M4096.812,536.608a.4.4,0,0,0,.658.469,5.04,5.04,0,1,1-.672,1.329.4.4,0,0,0-.768-.253,5.842,5.842,0,1,0,.782-1.545Zm0,0"/><path class="a" d="M4118.135,535.043h-8.055a.4.4,0,1,0,0,.808h8.055a.4.4,0,1,0,0-.808Zm0,0"/><path class="a" d="M4118.135,538.06h-7.112a.4.4,0,0,0,0,.808h7.112a.4.4,0,1,0,0-.808Zm0,0"/><path class="a" d="M4117.671,540.867a.406.406,0,0,0-.576-.222l-2.4,1.31a.4.4,0,0,0,.387.709l1.453-.793-1.915,4.575-2.519-1.77a.405.405,0,0,0-.476.009l-2.053,1.55a.4.4,0,0,0,.487.645l1.818-1.373,2.69,1.889a.4.4,0,0,0,.6-.174l2.1-5.028.477,1.371a.4.4,0,1,0,.763-.265Zm0,0"/></g></svg>