<svg xmlns="http://www.w3.org/2000/svg" width="27.254" height="22.794" viewBox="0 0 27.254 22.794"><defs><style>.a{fill:#636569;}</style></defs><g transform="translate(-4093.272 -445.28)"><path class="a" d="M4109.336,458.829a.481.481,0,1,0-.962,0,1.71,1.71,0,0,0,1.542,1.562v.077a.481.481,0,0,0,.963,0v-.077a1.71,1.71,0,0,0,1.542-1.562,1.959,1.959,0,0,0-1.542-1.785v-1.677c.356.116.58.351.58.569a.481.481,0,1,0,.962,0,1.708,1.708,0,0,0-1.542-1.561V454.3a.481.481,0,0,0-.963,0v.078a1.708,1.708,0,0,0-1.542,1.561,1.959,1.959,0,0,0,1.542,1.785V459.4C4109.56,459.282,4109.336,459.047,4109.336,458.829Zm2.123,0c0,.218-.224.453-.58.569v-1.3C4111.361,458.33,4111.459,458.536,4111.459,458.829Zm-2.123-2.893c0-.217.224-.453.58-.569v1.3C4109.434,456.436,4109.336,456.229,4109.336,455.936Z"/><path class="a" d="M4099.6,448.515h2.158a.4.4,0,0,1,.4.4v2.158a.4.4,0,0,1-.4.4H4099.6a.4.4,0,0,1-.4-.4v-2.158a.4.4,0,0,1,.4-.4Zm1.759.8H4100v1.36h1.359Zm-1.759,12.946a.4.4,0,0,1,0-.8h4.173a.4.4,0,0,1,0,.8Zm3.709-12.946a.4.4,0,1,1,0-.8h4.637a.4.4,0,1,1,0,.8Zm0,2.158a.4.4,0,1,1,0-.8h4.637a.4.4,0,1,1,0,.8Zm-3.709,2.156a.4.4,0,1,1,0-.8h4.173a.4.4,0,0,1,0,.8Zm0,2.158a.4.4,0,1,1,0-.8h4.173a.4.4,0,0,1,0,.8Zm0,2.158a.4.4,0,1,1,0-.8h4.173a.4.4,0,0,1,0,.8Zm0,2.158a.4.4,0,0,1,0-.8h4.173a.4.4,0,0,1,0,.8Zm14.787.692.664.664a1.425,1.425,0,0,1,1.683.242l3.383,3.383a1.417,1.417,0,0,1-2,2.005l-3.385-3.383a1.425,1.425,0,0,1-.241-1.682l-.664-.664a5.176,5.176,0,0,1-2.991,1.237v3.359a2.074,2.074,0,0,1-.621,1.5,2.367,2.367,0,0,1-1.532.621h-7.023a.4.4,0,0,1,0-.795h5.4a2.118,2.118,0,0,1-.461-1.323v-.46h-12.526c0,.16,0,.318,0,.478a1.334,1.334,0,0,0,.391.919,1.279,1.279,0,0,0,.932.385h4.455a.4.4,0,0,1,0,.8h-4.455a2.074,2.074,0,0,1-1.5-.622,2.129,2.129,0,0,1-.621-1.471v-.533a.736.736,0,0,1,.218-.564.754.754,0,0,1,.533-.188h2.686v-7.574a.4.4,0,1,1,.8,0V464.7h9.113a.764.764,0,0,1,.561.188.72.72,0,0,1,.205.564v.506a1.323,1.323,0,0,0,1.292,1.322,1.234,1.234,0,0,0,.965-.39,1.279,1.279,0,0,0,.385-.932V462.6a5.206,5.206,0,0,1,0-10.382V447.4a2.115,2.115,0,0,1,.463-1.322h-11.65a1.169,1.169,0,0,0-.946.386,1.339,1.339,0,0,0-.39.92l0,7.932a.4.4,0,1,1-.8,0l0-7.942a2.128,2.128,0,0,1,.621-1.471,2.3,2.3,0,0,1,1.514-.62h13.221a2.2,2.2,0,0,1,1.58.619,2.117,2.117,0,0,1,.622,1.5v1.581a.738.738,0,0,1-.211.562.746.746,0,0,1-.542.191h-2.688v2.482a5.189,5.189,0,0,1,2.941,1.2.4.4,0,0,1-.511.612,4.4,4.4,0,1,0,1.047,1.277.4.4,0,0,1,.7-.381,5.208,5.208,0,0,1-.621,5.876Zm.906,1.47a.621.621,0,0,0,0,.875l3.384,3.385a.619.619,0,0,0,.876-.875l-3.385-3.385a.624.624,0,0,0-.875,0Zm-3.14-16.186a1.321,1.321,0,0,0-1.321,1.32v1.536h2.641V447.4a1.32,1.32,0,0,0-1.32-1.32Z"/></g></svg>