<svg xmlns="http://www.w3.org/2000/svg" width="23.954" height="27.255" viewBox="0 0 23.954 27.255"><defs><style>.a{fill:#636569;}</style></defs><g transform="translate(-8210.922 -263)"><path class="a" d="M8225.694,290.255H8212.12a1.2,1.2,0,0,1-1.2-1.2V269.079a1.2,1.2,0,0,1,1.2-1.2h2.294a.4.4,0,1,1,0,.8h-2.294a.4.4,0,0,0-.4.4v19.978a.4.4,0,0,0,.4.4h13.574a.4.4,0,0,0,.4-.4v-9.289h-9.183a1.2,1.2,0,0,1-1.2-1.2V264.2a1.2,1.2,0,0,1,1.2-1.2h11.978a1.2,1.2,0,0,1,1.2,1.2v3.992a.4.4,0,1,1-.8,0V264.2a.4.4,0,0,0-.4-.4H8216.91a.4.4,0,0,0-.4.4V278.57a.4.4,0,0,0,.4.4h11.978a.4.4,0,0,0,.4-.4v-8.783a.4.4,0,0,1,.4-.4h2.4a.4.4,0,1,1,0,.8h-2v1.6h2a.4.4,0,0,1,0,.8h-2v1.6h2a.4.4,0,1,1,0,.8h-2v1.6h2a.4.4,0,0,1,0,.8h-2v1.2a1.21,1.21,0,0,1-.068.4h2.065a.4.4,0,1,1,0,.8h-5.191v1.6h5.191a.4.4,0,1,1,0,.8h-5.191v2.5h6.788a.4.4,0,0,0,.4-.4V266.683a.4.4,0,0,0-.4-.4h-2.4a.4.4,0,1,1,0-.8h2.4a1.2,1.2,0,0,1,1.2,1.2v17.583a1.2,1.2,0,0,1-1.2,1.2h-6.788v2.4h4.393a.4.4,0,0,0,.4-.4v-.8a.4.4,0,1,1,.8,0v.8a1.2,1.2,0,0,1-1.2,1.2h-4.393v.4a1.2,1.2,0,0,1-1.2,1.2Zm2.395-12.084h-10.38a.4.4,0,0,1-.4-.4v-1.387c0-2.052,1.356-2.521,2.347-2.864.817-.282,1.282-.473,1.363-1.088a3.34,3.34,0,0,1-1.461-2.76v-1.646a3.34,3.34,0,0,1,6.681,0v1.646a3.337,3.337,0,0,1-1.461,2.76c.082.615.546.806,1.363,1.088.99.343,2.347.812,2.347,2.864v1.387a.4.4,0,0,1-.4.4Zm-9.98-.8h9.582v-.988c0-1.483-.839-1.773-1.81-2.109-.718-.248-1.582-.548-1.839-1.464a3.351,3.351,0,0,1-2.286,0c-.257.916-1.121,1.216-1.838,1.464-.971.336-1.81.626-1.81,2.109Zm4.791-11.887a2.544,2.544,0,0,0-2.541,2.541v1.646a2.541,2.541,0,1,0,5.082,0v-1.646a2.544,2.544,0,0,0-2.541-2.541Zm0,0"/></g></svg>