<svg xmlns="http://www.w3.org/2000/svg" width="24.268" height="27.255" viewBox="0 0 24.268 27.255"><defs><style>.a{fill:#636569;}</style></defs><g transform="translate(-4094.765 -306)"><path class="a" d="M4117.033,318.587h-.667v-8.619L4112.4,306h-14.966v9.387h-.667a2,2,0,0,0-2,2v13.868a2,2,0,0,0,2,2h20.268a2,2,0,0,0,2-2V321.121c0-1.009-.8-2.534-2-2.534Zm-4.4-11.221,2.368,2.367h-2.368Zm-14.4-.566h13.6v3.734h3.733v8.053h-7.009a2.274,2.274,0,0,1-1.416-.5l-2.54-2.032a3.079,3.079,0,0,0-1.916-.672h-4.453Zm20,24.455a1.2,1.2,0,0,1-1.2,1.2h-20.268a1.2,1.2,0,0,1-1.2-1.2V317.387a1.2,1.2,0,0,1,1.2-1.2h5.92a2.28,2.28,0,0,1,1.417.5l2.539,2.031a3.072,3.072,0,0,0,1.916.672h8.476c.595,0,1.2,1.009,1.2,1.734Zm0,0"/><path class="a" d="M4100.387,324.5l2.187.855a.3.3,0,0,1,.192.282v3.474a.3.3,0,0,0,.083.209l.027.028c.046.049,1.169,1.191,4.023,1.191s3.977-1.142,4.023-1.191l.027-.028a.3.3,0,0,0,.084-.209v-3.474a.3.3,0,0,1,.192-.282l.782-.306a.3.3,0,0,1,.412.281v2.853a.3.3,0,0,0,.3.3h.2a.3.3,0,0,0,.3-.3v-3.4a.3.3,0,0,1,.192-.281h0a.3.3,0,0,0,0-.563l-6.4-2.505a.3.3,0,0,0-.22,0l-6.4,2.505A.3.3,0,0,0,4100.387,324.5Zm9.845,4.229a.3.3,0,0,1-.136.252,7.134,7.134,0,0,1-6.394,0,.3.3,0,0,1-.136-.253v-2.543a.3.3,0,0,1,.412-.281l2.811,1.1a.308.308,0,0,0,.22,0l2.811-1.1a.3.3,0,0,1,.412.281Zm-3.443-2.583-4.207-1.646a.3.3,0,0,1,0-.563l4.207-1.646a.3.3,0,0,1,.22,0l4.207,1.646a.3.3,0,0,1,0,.563l-4.207,1.646A.308.308,0,0,1,4106.789,326.142Zm.11.043"/><path class="a" d="M4105.539,313.494a3.051,3.051,0,0,0-1.492-2.633v0a1.724,1.724,0,0,0,.16-.725v-.489a1.734,1.734,0,1,0-3.467-.044v.533a1.723,1.723,0,0,0,.159.725v0a3.054,3.054,0,0,0-1.492,2.633v.8a.134.134,0,0,0,.134.133h5.867a.134.134,0,0,0,.133-.133Zm-4-3.894a.934.934,0,0,1,.978-.932.952.952,0,0,1,.888.962v.474a.953.953,0,0,1-.888.962.934.934,0,0,1-.978-.933Zm3.067,4.027h-4.267a.134.134,0,0,1-.134-.133h0a2.257,2.257,0,0,1,1.195-2h0a1.727,1.727,0,0,0,2.139,0h0a2.256,2.256,0,0,1,1.194,2h0A.133.133,0,0,1,4104.606,313.627Zm.133,0"/><rect class="a" width="7.147" height="0.8" rx="0.4" transform="translate(4107.112 311.974)"/><rect class="a" width="3.733" height="0.8" rx="0.4" transform="translate(4107.112 310.374)"/><rect class="a" width="3.733" height="0.8" rx="0.4" transform="translate(4107.112 308.774)"/><rect class="a" width="7.147" height="0.8" rx="0.4" transform="translate(4107.112 313.574)"/><rect class="a" width="5.014" height="0.8" rx="0.4" transform="translate(4107.112 315.174)"/></g></svg>