<svg xmlns="http://www.w3.org/2000/svg" width="24.262" height="27.255" viewBox="0 0 24.262 27.255"><defs><style>.a{fill:#636569;}</style></defs><g transform="translate(-4094.768 -353)"><path class="a" d="M4103.507,366.651h-5.367a.4.4,0,0,0,0,.8h5.367a.4.4,0,1,0,0-.8Zm0,0"/><path class="a" d="M4103.507,370.133h-5.367a.4.4,0,0,0,0,.8h5.367a.4.4,0,1,0,0-.8Zm0,0"/><path class="a" d="M4103.507,373.616h-5.367a.4.4,0,0,0,0,.8h5.367a.4.4,0,1,0,0-.8Zm0,0"/><path class="a" d="M4107.985,369.636h.847a.4.4,0,0,0,0-.8h-.847a.4.4,0,0,0,0,.8Zm0,0"/><path class="a" d="M4111.406,368.838h-.847a.4.4,0,0,0,0,.8h.847a.4.4,0,1,0,0-.8Zm0,0"/><path class="a" d="M4113.98,368.838h-.847a.4.4,0,0,0,0,.8h.847a.4.4,0,1,0,0-.8Zm0,0"/><path class="a" d="M4116.554,368.838h-.847a.4.4,0,0,0,0,.8h.847a.4.4,0,0,0,0-.8Zm0,0"/><path class="a" d="M4107.985,371.712h.847a.4.4,0,0,0,0-.8h-.847a.4.4,0,0,0,0,.8Zm0,0"/><path class="a" d="M4111.406,370.914h-.847a.4.4,0,0,0,0,.8h.847a.4.4,0,1,0,0-.8Zm0,0"/><path class="a" d="M4113.98,370.914h-.847a.4.4,0,0,0,0,.8h.847a.4.4,0,1,0,0-.8Zm0,0"/><path class="a" d="M4116.554,370.914h-.847a.4.4,0,0,0,0,.8h.847a.4.4,0,0,0,0-.8Zm0,0"/><path class="a" d="M4107.985,373.788h.847a.4.4,0,0,0,0-.8h-.847a.4.4,0,0,0,0,.8Zm0,0"/><path class="a" d="M4111.406,372.99h-.847a.4.4,0,0,0,0,.8h.847a.4.4,0,1,0,0-.8Zm0,0"/><path class="a" d="M4113.98,372.99h-.847a.4.4,0,0,0,0,.8h.847a.4.4,0,1,0,0-.8Zm0,0"/><path class="a" d="M4116.554,372.99h-.847a.4.4,0,0,0,0,.8h.847a.4.4,0,0,0,0-.8Zm0,0"/><path class="a" d="M4099.021,362.675a.4.4,0,1,0-.437.669,2.673,2.673,0,0,0,1.5.512v.537a.4.4,0,0,0,.8,0v-.567a2.155,2.155,0,0,0,1.734-1.778,1.888,1.888,0,0,0-1.3-2.162q-.234-.082-.433-.159v-2.233a1.439,1.439,0,0,1,.64.292.4.4,0,0,0,.539-.589,2.277,2.277,0,0,0-1.179-.511V356.2a.4.4,0,0,0-.8,0v.512c-.078.016-.159.036-.241.061a1.781,1.781,0,0,0-1.222,1.4,1.564,1.564,0,0,0,.51,1.543,4.388,4.388,0,0,0,.953.541v2.794a1.879,1.879,0,0,1-1.065-.382Zm1.864-2.1.167.06a1.1,1.1,0,0,1,.78,1.277,1.371,1.371,0,0,1-.947,1.089Zm-1.259-1.485a.78.78,0,0,1-.219-.767,1,1,0,0,1,.668-.785l.011,0v1.841a2.942,2.942,0,0,1-.46-.286Zm0,0"/><path class="a" d="M4115.681,377.9a.4.4,0,0,0-.4.4v.286a.867.867,0,0,1-.866.866h-17.983a.868.868,0,0,1-.866-.866V354.665a.868.868,0,0,1,.866-.867H4110.4a1.035,1.035,0,0,1,.125.01v3.339a1.409,1.409,0,0,0,1.407,1.407h3.338a.887.887,0,0,1,.01.125v1.906a.4.4,0,0,0,.8,0v-1.906a1.741,1.741,0,0,0-.479-1.168l-4.023-4.023-.009-.009h0l0,0A1.665,1.665,0,0,0,4110.4,353h-13.969a1.666,1.666,0,0,0-1.664,1.665V378.59a1.666,1.666,0,0,0,1.664,1.665h17.983a1.667,1.667,0,0,0,1.665-1.665V378.3a.4.4,0,0,0-.4-.4Zm-4.357-23.542,3.393,3.393h-2.784a.609.609,0,0,1-.609-.609Zm0,0"/><path class="a" d="M4117.645,362.059H4106.9a1.388,1.388,0,0,0-1.386,1.386v1.343a.4.4,0,0,0,.8,0v-1.343a.589.589,0,0,1,.588-.588h10.75a.589.589,0,0,1,.587.588v12.009a.589.589,0,0,1-.587.587H4106.9a.588.588,0,0,1-.588-.587v-8.8a.4.4,0,1,0-.8,0v8.8a1.388,1.388,0,0,0,1.386,1.386h10.75a1.387,1.387,0,0,0,1.385-1.386V363.445a1.387,1.387,0,0,0-1.385-1.386Zm0,0"/><path class="a" d="M4116.953,364.7a.707.707,0,0,0-.706-.706h-7.955a.707.707,0,0,0-.706.706v2.044a.707.707,0,0,0,.706.706h7.955a.707.707,0,0,0,.706-.706Zm-.8,1.951h-7.771v-1.859h7.771Zm0,0"/></g></svg>