<svg xmlns="http://www.w3.org/2000/svg" width="20.918" height="27.252" viewBox="0 0 20.918 27.252"><defs><style>.a{fill:#636569;}</style></defs><g transform="translate(53.671 -193.872)"><path class="a" d="M-33.152,202.78a.4.4,0,0,0,.4-.4v-2.787a1.2,1.2,0,0,0-1.2-1.2h-.4v-1.064a1.2,1.2,0,0,0-1.2-1.2h-.4V195.07a1.2,1.2,0,0,0-1.2-1.2H-52.473a1.2,1.2,0,0,0-1.2,1.2v2.2a.4.4,0,0,0,.4.4.4.4,0,0,0,.4-.4v-2.2a.4.4,0,0,1,.4-.4h15.329a.4.4,0,0,1,.4.4V215.4a.4.4,0,0,1-.4.4H-52.473a.4.4,0,0,1-.4-.4V198.975a.4.4,0,0,0-.4-.4.4.4,0,0,0-.4.4V215.4a1.2,1.2,0,0,0,1.2,1.2h.4v1.064a1.2,1.2,0,0,0,1.2,1.2h.4v1.065a1.2,1.2,0,0,0,1.2,1.2h15.33a1.2,1.2,0,0,0,1.2-1.2V204.074a.4.4,0,0,0-.4-.4.4.4,0,0,0-.4.4v15.853a.4.4,0,0,1-.4.4H-49.28a.4.4,0,0,1-.4-.4v-1.065h9.867a.4.4,0,0,0,.4-.4.4.4,0,0,0-.4-.4H-50.876a.4.4,0,0,1-.4-.4V216.6h14.132a1.2,1.2,0,0,0,1.2-1.2V196.933h.4a.4.4,0,0,1,.4.4v20.332a.4.4,0,0,1-.4.4h-2.572a.4.4,0,0,0-.4.4.4.4,0,0,0,.4.4h2.572a1.2,1.2,0,0,0,1.2-1.2V199.2h.4a.4.4,0,0,1,.4.4v2.787a.4.4,0,0,0,.4.4Zm0,0"/><path class="a" d="M-50.983,200.472v2.768a.613.613,0,0,0,.612.612H-47.6a.613.613,0,0,0,.612-.612v-2.059l.818-.7a.4.4,0,0,0,.045-.563.4.4,0,0,0-.563-.044l-.369.315a.611.611,0,0,0-.543-.331h-2.768a.613.613,0,0,0-.612.612Zm.8.187h2.395v.154l-.792.676-.379-.409a.4.4,0,0,0-.564-.023.4.4,0,0,0-.022.564l.638.692a.4.4,0,0,0,.553.033l.566-.483v1.191h-2.395Zm0,0"/><path class="a" d="M-39.033,200.5h-6.388a.4.4,0,0,0-.4.4.4.4,0,0,0,.4.4h6.388a.4.4,0,0,0,.4-.4.4.4,0,0,0-.4-.4Zm0,0"/><path class="a" d="M-39.033,202.2h-6.388a.4.4,0,0,0-.4.4.4.4,0,0,0,.4.4h6.388a.4.4,0,0,0,.4-.4.4.4,0,0,0-.4-.4Zm0,0"/><path class="a" d="M-50.983,208.4a.613.613,0,0,0,.612.612H-47.6a.613.613,0,0,0,.612-.612v-2.768a.613.613,0,0,0-.612-.612h-2.768a.613.613,0,0,0-.612.612Zm.8-2.581h2.395v2.395h-2.395Zm0,0"/><path class="a" d="M-39.033,205.662h-6.388a.4.4,0,0,0-.4.4.4.4,0,0,0,.4.4h6.388a.4.4,0,0,0,.4-.4.4.4,0,0,0-.4-.4Zm0,0"/><path class="a" d="M-39.033,207.365h-6.388a.4.4,0,0,0-.4.4.4.4,0,0,0,.4.4h6.388a.4.4,0,0,0,.4-.4.4.4,0,0,0-.4-.4Zm0,0"/><path class="a" d="M-50.983,213.566a.613.613,0,0,0,.612.612H-47.6a.613.613,0,0,0,.612-.612V210.8a.613.613,0,0,0-.612-.612h-2.768a.613.613,0,0,0-.612.612Zm.8-2.582h2.395v2.4h-2.395Zm0,0"/><path class="a" d="M-39.033,210.825h-6.388a.4.4,0,0,0-.4.4.4.4,0,0,0,.4.4h6.388a.4.4,0,0,0,.4-.4.4.4,0,0,0-.4-.4Zm0,0"/><path class="a" d="M-39.033,212.528h-6.388a.4.4,0,0,0-.4.4.4.4,0,0,0,.4.4h6.388a.4.4,0,0,0,.4-.4.4.4,0,0,0-.4-.4Zm0,0"/><path class="a" d="M-41.056,195.762H-48.4a1.332,1.332,0,0,0-1.331,1.33,1.332,1.332,0,0,0,1.331,1.331h7.345a1.332,1.332,0,0,0,1.331-1.331,1.332,1.332,0,0,0-1.331-1.33Zm0,1.863H-48.4a.533.533,0,0,1-.533-.533.533.533,0,0,1,.533-.532h7.345a.532.532,0,0,1,.532.532.533.533,0,0,1-.532.533Zm0,0"/></g></svg>