<svg xmlns="http://www.w3.org/2000/svg" width="22.474" height="27.255" viewBox="0 0 22.474 27.255"><defs><style>.a{fill:#636569;}</style></defs><g transform="translate(-4095.662 -580.002)"><path class="a" d="M4108.122,585.717a1.022,1.022,0,0,0-1.021,1.022v2.632l-.423-.423a1.022,1.022,0,0,0-1.445,1.445l2.167,2.167a1.024,1.024,0,0,0,1.445,0l2.166-2.167a1.02,1.02,0,0,0,0-1.445h0a1.024,1.024,0,0,0-1.445,0l-.422.423v-2.633A1.022,1.022,0,0,0,4108.122,585.717Zm2.009,3.8a.223.223,0,1,1,.316.316l-2.167,2.166a.224.224,0,0,1-.316,0l-2.166-2.166a.223.223,0,0,1,.315-.316l1.1,1.1a.4.4,0,0,0,.682-.282v-3.6a.223.223,0,1,1,.446,0v3.6a.4.4,0,0,0,.682.282Z"/><path class="a" d="M4114.4,594.119V591.85a1.022,1.022,0,0,0-2.044,0v2.02h-8.474v-2.02a1.021,1.021,0,1,0-2.043,0v2.269a1.8,1.8,0,0,0,1.794,1.795h8.972A1.8,1.8,0,0,0,4114.4,594.119Zm-11.763,0V591.85a.223.223,0,1,1,.447,0v2.269a.55.55,0,0,0,.549.55h8.972a.551.551,0,0,0,.55-.55V591.85a.223.223,0,1,1,.446,0v2.269a1,1,0,0,1-1,1h-8.972A1,1,0,0,1,4102.64,594.119Z"/><path class="a" d="M4111.108,599.235a.4.4,0,0,0-.4-.4h-5.172a.4.4,0,0,0,0,.8h5.172A.4.4,0,0,0,4111.108,599.235Z"/><path class="a" d="M4106.717,600.835a.4.4,0,0,0,0,.8h2.81a.4.4,0,1,0,0-.8Z"/><path class="a" d="M4116.909,580h-7.855a.4.4,0,0,0,0,.8h7.855a.429.429,0,0,1,.429.429V592.7a.4.4,0,0,0,.8,0V581.23A1.229,1.229,0,0,0,4116.909,580Z"/><path class="a" d="M4117.737,594.162a.4.4,0,0,0-.4.4v6.345h-4.325a1.229,1.229,0,0,0-1.227,1.228v4.324h-12a.43.43,0,0,1-.429-.429v-24.8a.429.429,0,0,1,.429-.429h7.407a.4.4,0,0,0,0-.8h-10.3a1.229,1.229,0,0,0-1.227,1.228v24.8a1.229,1.229,0,0,0,1.227,1.228h15.3a.4.4,0,0,0,.276-.117l5.552-5.552a.4.4,0,0,0,.117-.282v-6.745A.4.4,0,0,0,4117.737,594.162Zm-19.1,12.3h-1.745a.43.43,0,0,1-.429-.429v-24.8a.429.429,0,0,1,.429-.429h1.745a1.253,1.253,0,0,0-.077.429v24.8A1.245,1.245,0,0,0,4098.634,606.458Zm13.95-.564v-3.76a.429.429,0,0,1,.429-.429h3.76Z"/></g></svg>