<svg xmlns="http://www.w3.org/2000/svg" width="27.255" height="25.781" viewBox="0 0 27.255 25.781"><defs><style>.a{fill:#636569;}</style></defs><g transform="translate(-4093.271 -215.976)"><path class="a" d="M4116.206,229.944v10.211a.8.8,0,0,1-.8.8h-.619a.4.4,0,0,0,0,.8h.619a1.6,1.6,0,0,0,1.6-1.6v-9.38l.813.846a.946.946,0,0,0,1.351.014l1.083-1.083a.951.951,0,0,0,.014-1.324l-12.289-12.793a1.494,1.494,0,0,0-2.154,0l-12.289,12.793a.95.95,0,0,0,.014,1.324l1.083,1.083a.945.945,0,0,0,1.351-.014l.813-.845v1.939a.4.4,0,1,0,.8,0v-2.771l9-9.372a.422.422,0,0,1,.608,0c7.175,7.469,5.754,5.991,9,9.372Zm3.481.043-1.083,1.083a.148.148,0,0,1-.211,0l-10.614-11.049,0,0a1.218,1.218,0,0,0-1.757,0l-9.115,9.488h0l-1.5,1.561a.148.148,0,0,1-.211,0l-1.082-1.083a.146.146,0,0,1,0-.206l12.288-12.792a.694.694,0,0,1,1,0l12.289,12.792a.148.148,0,0,1,0,.206Zm0,0"/><path class="a" d="M4112.912,240.958h-2.369v-4.521a3.644,3.644,0,0,0-7.288,0v4.521H4098.4a.8.8,0,0,1-.8-.8v-5.576a.4.4,0,1,0-.8,0v5.576a1.6,1.6,0,0,0,1.6,1.6h14.516a.4.4,0,0,0,0-.8Zm-8.858-4.521a2.845,2.845,0,1,1,5.69,0v4.521h-5.69Zm0,0"/></g></svg>