<svg xmlns="http://www.w3.org/2000/svg" width="27.152" height="27.255" viewBox="0 0 27.152 27.255"><defs><style>.a{fill:#636569;}</style></defs><g transform="translate(-4093.323 -489.002)"><path class="a" d="M4114.337,502.1v-.578h.37a1.255,1.255,0,1,0,0-2.511h-2.652a1.256,1.256,0,0,0-.724.23V490.3a1.3,1.3,0,0,0-1.3-1.3H4094.62a1.3,1.3,0,0,0-1.3,1.3V514.96a1.3,1.3,0,0,0,1.3,1.3h15.414a1.3,1.3,0,0,0,.974-.44,7.094,7.094,0,1,0,3.329-13.714Zm-2.282-2.283h2.652a.449.449,0,0,1,0,.9h-2.652a.449.449,0,0,1,0-.9Zm1.475,1.7v.514c-.1,0-.2,0-.3,0v-.514Zm-2.2-.231a1.249,1.249,0,0,0,.724.231h.37v.577a7.082,7.082,0,0,0-1.094.236Zm6.927,11.806a6.293,6.293,0,0,1-11-2.549.4.4,0,1,0-.785.182,7.065,7.065,0,0,0,3.666,4.707c-.077.016.8.011-15.516.011a.491.491,0,0,1-.491-.491V490.3a.491.491,0,0,1,.491-.49h15.414a.49.49,0,0,1,.491.49v12.336a7.1,7.1,0,0,0-4.238,6.4.4.4,0,0,0,.807.011,6.287,6.287,0,1,1,11.164,4.052Zm0,0"/><path class="a" d="M4118.052,505.67a5.814,5.814,0,1,0-1.208,8.134,5.811,5.811,0,0,0,1.208-8.134Zm-1.688,7.486a5.008,5.008,0,1,1,1.041-7.006,5.015,5.015,0,0,1-1.041,7.006Zm0,0"/><path class="a" d="M4113.381,506.09a.4.4,0,0,0,.4-.4v-.877a.4.4,0,0,0-.806,0v.877a.4.4,0,0,0,.4.4Zm0,0"/><path class="a" d="M4115.744,505.04a.4.4,0,0,0-.551.147l-.438.759a.4.4,0,0,0,.7.4l.439-.76a.4.4,0,0,0-.148-.55Zm0,0"/><path class="a" d="M4116.567,507.758l.759-.438a.4.4,0,1,0-.4-.7l-.759.438a.4.4,0,1,0,.4.7Zm0,0"/><path class="a" d="M4117.7,508.729h-.877a.4.4,0,1,0,0,.806h.877a.4.4,0,0,0,0-.806Zm0,0"/><path class="a" d="M4117.326,510.944l-.759-.438a.4.4,0,1,0-.4.7l.759.439a.4.4,0,1,0,.4-.7Zm0,0"/><path class="a" d="M4115.453,511.915a.4.4,0,1,0-.7.4l.438.759a.4.4,0,0,0,.7-.4Zm0,0"/><path class="a" d="M4113.381,512.175a.4.4,0,0,0-.4.4v.877a.4.4,0,0,0,.806,0v-.877a.4.4,0,0,0-.4-.4Zm0,0"/><path class="a" d="M4111.86,511.767a.4.4,0,0,0-.551.148l-.438.759a.4.4,0,1,0,.7.4l.438-.759a.4.4,0,0,0-.147-.551Zm0,0"/><path class="a" d="M4110.195,510.506l-.759.438a.4.4,0,0,0,.2.753c.143,0,.144-.022.961-.493a.4.4,0,0,0-.4-.7Zm0,0"/><path class="a" d="M4110.338,509.132a.4.4,0,0,0-.4-.4h-.877a.4.4,0,1,0,0,.806h.877a.4.4,0,0,0,.4-.4Zm0,0"/><path class="a" d="M4109.436,507.32c.825.477.819.492.96.492a.4.4,0,0,0,.2-.752l-.76-.438a.4.4,0,1,0-.4.7Zm0,0"/><path class="a" d="M4111.569,505.187a.4.4,0,0,0-.7.4l.438.76a.4.4,0,1,0,.7-.4Zm0,0"/><path class="a" d="M4114.8,507.749a.4.4,0,1,0-.679-.435l-.435.678a1.181,1.181,0,1,0,.661.464Zm-1.2,1.685a.376.376,0,1,1-.228-.677.376.376,0,0,1,.228.677Zm0,0"/><path class="a" d="M4096.188,492.508h12.278a.4.4,0,1,0,0-.806h-12.278a.4.4,0,1,0,0,.806Zm0,0"/><path class="a" d="M4101.456,493.716a.4.4,0,0,0,0,.806h3.656a.4.4,0,1,0,0-.806Zm0,0"/><path class="a" d="M4096.188,494.522h3.655a.4.4,0,1,0,0-.806h-3.655a.4.4,0,1,0,0,.806Zm0,0"/><path class="a" d="M4105.6,498.007h-9.407a.4.4,0,0,0,0,.807h9.407a.4.4,0,1,0,0-.807Zm0,0"/><path class="a" d="M4108.466,498.007h-1.258a.4.4,0,0,0,0,.807h1.258a.4.4,0,0,0,0-.807Zm0,0"/><path class="a" d="M4096.188,500.827h3.5a.4.4,0,1,0,0-.806h-3.5a.4.4,0,1,0,0,.806Zm0,0"/><path class="a" d="M4104.976,504.313h-8.788a.4.4,0,1,0,0,.806h8.788a.4.4,0,0,0,0-.806Zm0,0"/><path class="a" d="M4096.188,507.133h3.225a.4.4,0,0,0,0-.806h-3.225a.4.4,0,1,0,0,.806Zm0,0"/><path class="a" d="M4104.252,506.327h-3.226a.4.4,0,0,0,0,.806h3.226a.4.4,0,0,0,0-.806Zm0,0"/><path class="a" d="M4102.362,508.906l-4.324,3.935-1.459-2.169a.4.4,0,1,0-.669.45l1.477,2.2a.778.778,0,0,0,1.17.141l4.348-3.957a.4.4,0,1,0-.543-.6Zm0,0"/></g></svg>