<svg xmlns="http://www.w3.org/2000/svg" width="27.156" height="27.252" viewBox="0 0 27.156 27.252"><defs><style>.a{fill:#636569;}</style></defs><g transform="translate(74.111 -109.002)"><path class="a" d="M-61.8,115.6a.44.44,0,0,1-.439.439.44.44,0,0,1-.44-.439.44.44,0,0,1,.44-.44.44.44,0,0,1,.439.44Zm0,0"/><path class="a" d="M-58.287,115.6a.44.44,0,0,1-.44.439.44.44,0,0,1-.44-.439.44.44,0,0,1,.44-.44.44.44,0,0,1,.44.44Zm0,0"/><path class="a" d="M-60.046,118.672H-61.8v.879h1.758a1.761,1.761,0,0,0,1.759-1.758h-.88a.88.88,0,0,1-.879.879Zm0,0"/><rect class="a" width="0.879" height="1.758" transform="translate(-60.925 115.155)"/><rect class="a" width="0.879" height="0.879" transform="translate(-72.353 127.463)"/><rect class="a" width="2.637" height="0.879" transform="translate(-70.595 127.463)"/><rect class="a" width="4.395" height="0.879" transform="translate(-72.353 129.221)"/><rect class="a" width="4.395" height="0.879" transform="translate(-72.353 130.979)"/><path class="a" d="M-51.823,131.547l-.622.622,1.666,1.666,3.824-4.779-.687-.549-3.209,4.012Zm0,0"/><path class="a" d="M-48.617,134.495h-4.4V130.1h2.637v-.879h-3.516v2.637h-4.4v-.439a2.19,2.19,0,0,0-.1-.651,10.566,10.566,0,0,0,8.45-10.338,10.5,10.5,0,0,0-5.73-9.383A4.831,4.831,0,0,0-59.61,109h-1.585a3.906,3.906,0,0,0-3.173,1.621,10.61,10.61,0,0,0-6.666,9.807,10.485,10.485,0,0,0,1.412,5.274h-3.61a.88.88,0,0,0-.879.88v7.911a.88.88,0,0,0,.879.88h6.154a.881.881,0,0,0,.879-.88v-1.758h3.516v2.2a1.321,1.321,0,0,0,1.319,1.319h1.758a1.321,1.321,0,0,0,1.319-1.319v-2.2h4.4v2.638h6.154v-3.517h-.879Zm-10.55-3.076v.439H-61.8v-.439a1.314,1.314,0,0,1,.108-.516,10.8,10.8,0,0,0,1.211.076,10.576,10.576,0,0,0,1.213-.072,1.332,1.332,0,0,1,.1.512Zm8.352-10.989a9.681,9.681,0,0,1-9.67,9.67,9.564,9.564,0,0,1-5.714-1.876V127.1a8.746,8.746,0,0,0,5.714,2.124,8.8,8.8,0,0,0,8.791-8.791,8.757,8.757,0,0,0-3.081-6.68,4.843,4.843,0,0,0-.193-1.265,9.617,9.617,0,0,1,4.153,7.945Zm-13.626-2.637a.88.88,0,0,1-.879-.88.88.88,0,0,1,.879-.879Zm-1.652-2.94.212,1.058a1.734,1.734,0,0,0-.318,1,1.76,1.76,0,0,0,1.758,1.759h.035a3.083,3.083,0,0,0,1.977,2.444l-.169.679a5.347,5.347,0,0,0-4.161,3.436,7.86,7.86,0,0,1-1.638-4.8,7.876,7.876,0,0,1,2.3-5.577Zm9.564,1.181a.881.881,0,0,1,.879.879.881.881,0,0,1-.879.88Zm-.035,2.638h.035a1.761,1.761,0,0,0,1.758-1.759,1.746,1.746,0,0,0-.318-1l.211-1.058a7.879,7.879,0,0,1,2.3,5.578,7.86,7.86,0,0,1-1.638,4.8,5.351,5.351,0,0,0-4.161-3.436l-.17-.68a3.081,3.081,0,0,0,1.978-2.443Zm-4.8,2.637h1.758c.069,0,.136-.006.2-.01l.178.71-1.281.948-1.241-.943.179-.716c.067.005.135.011.2.011Zm2.969,1.371-.22,1.1-1-.394,1-.741c.072.011.145.019.215.032Zm-1.992,2.145h-.246l-.233-.7.358-.145.356.141Zm-1-1.436-.965.391-.22-1.1c.07-.013.141-.021.212-.031Zm-2.031-.456.412,2.059,1.327-.537.277.829-.7,2.889a7.908,7.908,0,0,1-3.969-2.152,4.46,4.46,0,0,1,2.655-3.088ZM-60.6,125.7h.193l.668,2.6c-.245.023-.492.038-.742.038s-.5-.015-.751-.038Zm1.735,2.471-.743-2.894.278-.836,1.374.544.411-2.056a4.457,4.457,0,0,1,2.655,3.089,7.9,7.9,0,0,1-3.975,2.153Zm1.461-9.943a2.2,2.2,0,0,1-2.2,2.2h-1.758a2.2,2.2,0,0,1-2.2-2.2v-3.516a1.32,1.32,0,0,1,1.319-1.319h.233a2.629,2.629,0,0,0,1.964.879h2.2a.441.441,0,0,1,.44.44Zm-3.787-8.351h1.585a3.965,3.965,0,0,1,3.96,3.96,3.965,3.965,0,0,1-.077.776l-.135.672a1.745,1.745,0,0,0-.667-.134v-.439a1.321,1.321,0,0,0-1.319-1.319h-2.2a1.76,1.76,0,0,1-1.758-1.758h-.879a2.639,2.639,0,0,0,.157.9,2.2,2.2,0,0,0-1.915,2.18v.439a1.746,1.746,0,0,0-.668.134l-.166-.83A2.34,2.34,0,0,1-65.32,114a2.327,2.327,0,0,1,1.039-1.941l.2-.131.051-.128a3.043,3.043,0,0,1,2.838-1.92Zm-8.96,10.549A9.735,9.735,0,0,1-65.7,112.3a3.19,3.19,0,0,0-.479,1.443,8.755,8.755,0,0,0-3.093,6.69A8.731,8.731,0,0,0-67.5,125.7h-1.084a9.617,9.617,0,0,1-1.57-5.274Zm-3.077,14.065v-7.911h6.154v7.911Zm7.033-2.637V129.3a10.41,10.41,0,0,0,3.616,1.464,2.212,2.212,0,0,0-.1.655v.439Zm7.032,3.077a.44.44,0,0,1-.439.44h-1.758a.441.441,0,0,1-.44-.44v-2.2h2.637Zm0,0"/><rect class="a" width="4.395" height="0.879" transform="translate(-72.353 132.737)"/></g></svg>