<svg xmlns="http://www.w3.org/2000/svg" width="27.094" height="27.255" viewBox="0 0 27.094 27.255"><defs><style>.a{fill:#636569;}</style></defs><path class="a" d="M4120.446,722.508a1.262,1.262,0,0,0-1.261-1.261h-7.213v-5.155l2.975-1.056a.4.4,0,0,0-.268-.755l-4.455,1.582v-5.892l8.3,2.946-2.335.829a.4.4,0,0,0,.268.755l2.56-.909a.717.717,0,0,0,0-1.35c-9.337-3.314-8.7-3.107-8.878-3.107a.717.717,0,0,0-.715.716v11.4h-1.876a.4.4,0,1,0,0,.8h11.638a.46.46,0,0,1,.46.46v3.519h-15.253v-3.519a.46.46,0,0,1,.46-.46h1.093a.4.4,0,1,0,0-.8h-1.093a1.263,1.263,0,0,0-1.261,1.261v3.519h-3.859a1.263,1.263,0,0,0-1.261,1.261v3.519h-3.859a1.261,1.261,0,0,0-1.26,1.261v3.058a1.261,1.261,0,0,0,1.26,1.261h1.62a.4.4,0,1,0,0-.8h-1.62a.46.46,0,0,1-.46-.46v-3.058a.461.461,0,0,1,.46-.461h25.034v3.519a.461.461,0,0,1-.461.46h-21.351a.4.4,0,0,0,0,.8h21.351a1.262,1.262,0,0,0,1.261-1.261c0-.44,0-12.086,0-12.618Zm-9.275-1.261h-.947v-4.554a5.308,5.308,0,0,0,.947-.317Zm8.475,9.56h-20.374v-3.519a.461.461,0,0,1,.46-.461h19.914Zm0,0" transform="translate(-4093.352 -709.132)"/></svg>