<svg xmlns="http://www.w3.org/2000/svg" width="20.428" height="27.255" viewBox="0 0 20.428 27.255"><defs><style>.a{fill:#636569;}</style></defs><g transform="translate(-4096.685 -395)"><path class="a" d="M4116.713,401.4a.4.4,0,0,0-.4.4v19.629a.027.027,0,0,1-.027.027h-18.776a.027.027,0,0,1-.027-.027v-25.6a.027.027,0,0,1,.027-.027h14.109v3.867a.827.827,0,0,0,.826.826h4.267a.4.4,0,0,0,.283-.681l-4.694-4.694-.01-.01h0a.4.4,0,0,0-.267-.105h-14.511a.828.828,0,0,0-.826.826v25.6a.828.828,0,0,0,.826.826h18.776a.827.827,0,0,0,.826-.826V401.8A.4.4,0,0,0,4116.713,401.4Zm-4.294-5.038,3.331,3.331h-3.3a.027.027,0,0,1-.027-.028Z"/><path class="a" d="M4100.471,401.293a.4.4,0,0,0-.8,0,1.419,1.419,0,0,0,1.281,1.3v.064a.4.4,0,1,0,.8,0v-.064a1.418,1.418,0,0,0,1.28-1.3,1.626,1.626,0,0,0-1.28-1.481V398.42c.3.1.482.292.482.473a.4.4,0,1,0,.8,0,1.418,1.418,0,0,0-1.28-1.3v-.064a.4.4,0,1,0-.8,0v.064a1.419,1.419,0,0,0-1.281,1.3,1.626,1.626,0,0,0,1.281,1.481v1.392C4100.657,401.669,4100.471,401.474,4100.471,401.293Zm1.762,0c0,.181-.186.376-.482.473v-1.083C4102.151,400.879,4102.233,401.05,4102.233,401.293Zm-1.762-2.4c0-.181.186-.376.482-.472V399.5C4100.552,399.307,4100.471,399.136,4100.471,398.893Z"/><path class="a" d="M4114.552,404.787a.4.4,0,0,0-.4-.4h-14.508a.4.4,0,0,0-.4.4v7.681a.4.4,0,0,0,.4.4h14.508a.4.4,0,0,0,.4-.4v-7.681Zm-6.827,4.721v-1.762h2.615v1.762Zm2.615.8v1.762h-2.615v-1.762Zm-10.3-2.561h6.883v1.762h-6.883Zm7.681-.8v-1.762h2.615v1.762Zm3.414.8h2.615v1.762h-2.615Zm2.615-.8h-2.615v-1.762h2.615Zm-6.827-1.762v1.762h-6.883v-1.762Zm-6.883,5.121h6.883v1.762h-6.883Zm11.1,1.762v-1.762h2.615v1.762Z"/><path class="a" d="M4104.366,416.735a2.533,2.533,0,1,0,2.533-2.533A2.536,2.536,0,0,0,4104.366,416.735Zm4.267,0A1.734,1.734,0,1,1,4106.9,415,1.736,1.736,0,0,1,4108.633,416.735Z"/><path class="a" d="M4106.073,416.735a.826.826,0,1,0,.826-.826A.827.827,0,0,0,4106.073,416.735Z"/><path class="a" d="M4103.059,415.482h-3.414a.4.4,0,0,0,0,.8h3.414a.4.4,0,0,0,0-.8Z"/><path class="a" d="M4103.059,417.189H4100.5a.4.4,0,0,0,0,.8h2.561a.4.4,0,0,0,0-.8Z"/><path class="a" d="M4113.726,415.055h-2.56a.828.828,0,0,0-.826.826v1.707a.827.827,0,0,0,.826.826h2.56a.826.826,0,0,0,.826-.826v-1.707A.827.827,0,0,0,4113.726,415.055Zm.028,2.533a.028.028,0,0,1-.028.028h-2.56a.028.028,0,0,1-.027-.028v-1.707a.027.027,0,0,1,.027-.027h2.56a.027.027,0,0,1,.028.027v1.707Z"/><path class="a" d="M4109.032,398.786a.4.4,0,1,0,0-.8h-.853a.4.4,0,0,0,0,.8Z"/><path class="a" d="M4104.765,398.786h1.707a.4.4,0,1,0,0-.8h-1.707a.4.4,0,0,0,0,.8Z"/><path class="a" d="M4104.765,400.492h5.548a.4.4,0,0,0,0-.8h-5.548a.4.4,0,0,0,0,.8Z"/><path class="a" d="M4110.313,401.4h-.854a.4.4,0,0,0,0,.8h.854a.4.4,0,0,0,0-.8Z"/><path class="a" d="M4104.765,402.2h2.987a.4.4,0,1,0,0-.8h-2.987a.4.4,0,0,0,0,.8Z"/></g></svg>