<svg xmlns="http://www.w3.org/2000/svg" width="27.252" height="27.252" viewBox="0 0 27.252 27.252"><defs><style>.a{fill:#fff;}</style></defs><path class="a" d="M-8.012,77.629a6.138,6.138,0,0,0-2.994.772l-.756-1.157A6.14,6.14,0,0,0-9.33,72.355,6.161,6.161,0,0,0-15.484,66.2a6.161,6.161,0,0,0-6.154,6.154,6.116,6.116,0,0,0,2.427,4.9l-.753,1.152a6.143,6.143,0,0,0-2.992-.775,6.161,6.161,0,0,0-6.154,6.154,6.161,6.161,0,0,0,6.154,6.154,6.1,6.1,0,0,0,3.224-.913,3.515,3.515,0,0,0,.939,1.068l.672.5v2.857h7.912V89.53a6.187,6.187,0,0,0,2.2.407,6.161,6.161,0,0,0,6.154-6.154,6.161,6.161,0,0,0-6.154-6.154Zm5.275,6.154a5.24,5.24,0,0,1-.818,2.809,4.975,4.975,0,0,0-2.8-2.518,2.633,2.633,0,0,0,.98-2.049,2.64,2.64,0,0,0-2.638-2.637A2.639,2.639,0,0,0-10.6,81.529a1.313,1.313,0,0,0-.928-.383,1.308,1.308,0,0,0-.49.1,1.308,1.308,0,0,0-.278-.518,5.229,5.229,0,0,1,4.284-2.216,5.281,5.281,0,0,1,5.275,5.275Zm-7.472-.3a2.636,2.636,0,0,0,.538.592,5.064,5.064,0,0,0-.538.227Zm2.2.3A1.76,1.76,0,0,1-9.77,82.025h3.517a1.761,1.761,0,0,1-1.759,1.758Zm-1.513-2.637a1.752,1.752,0,0,1,1.513-.879,1.753,1.753,0,0,1,1.514.879Zm1.513,3.516a4.048,4.048,0,0,1,.87.1.878.878,0,0,1-.87.781.877.877,0,0,1-.868-.774,4.057,4.057,0,0,1,.868-.1Zm-3.728-5.778a6.153,6.153,0,0,0-1.335,1.4,1.335,1.335,0,0,0-.211-.021,1.314,1.314,0,0,0-.491.1,1.315,1.315,0,0,0-1.267-.975,1.31,1.31,0,0,0-.44.08v-.96a6.107,6.107,0,0,0,2.989-.779Zm-3.744-1.255c-.028,0-.054,0-.082,0A1.317,1.317,0,0,0-16.8,76.75a1.311,1.311,0,0,0-.922.379,5.282,5.282,0,0,1-1.6-1.153A4.076,4.076,0,0,1-17.2,73.618a1.759,1.759,0,0,0,1.713,1.374,1.759,1.759,0,0,0,1.713-1.374,4.075,4.075,0,0,1,2.123,2.346,5.256,5.256,0,0,1-3.836,1.665ZM-17.242,70.6h3.516a1.76,1.76,0,0,1-1.758,1.758A1.76,1.76,0,0,1-17.242,70.6Zm.244-.88a1.753,1.753,0,0,1,1.514-.879,1.753,1.753,0,0,1,1.514.879Zm1.514,3.517a3.977,3.977,0,0,1,.869.1.877.877,0,0,1-.869.781.877.877,0,0,1-.869-.781,3.977,3.977,0,0,1,.869-.1Zm0-6.154a5.281,5.281,0,0,1,5.275,5.275,5.234,5.234,0,0,1-.818,2.808,4.975,4.975,0,0,0-2.8-2.517,2.634,2.634,0,0,0,.98-2.049,2.64,2.64,0,0,0-2.637-2.638A2.64,2.64,0,0,0-18.121,70.6a2.631,2.631,0,0,0,.98,2.048,4.98,4.98,0,0,0-2.8,2.528,5.267,5.267,0,0,1-.812-2.818,5.28,5.28,0,0,1,5.274-5.275Zm-2.991,10.651c.121.067.243.13.369.19a1.2,1.2,0,0,0-.015.148v1.909a6.156,6.156,0,0,0-1.107-1.093Zm-4.481.777a5.263,5.263,0,0,1,4.835,3.169v.516l-1.393.7a2.236,2.236,0,0,0-1.17,1.448,4.938,4.938,0,0,0-.612-.265,2.634,2.634,0,0,0,.977-2.047,2.639,2.639,0,0,0-2.637-2.637,2.639,2.639,0,0,0-2.637,2.637,2.626,2.626,0,0,0,.98,2.048,4.977,4.977,0,0,0-2.8,2.518,5.234,5.234,0,0,1-.818-2.808,5.281,5.281,0,0,1,5.275-5.275Zm-1.758,3.517H-21.2a1.76,1.76,0,0,1-1.758,1.758,1.76,1.76,0,0,1-1.758-1.758Zm.244-.879a1.753,1.753,0,0,1,1.514-.879,1.753,1.753,0,0,1,1.514.879Zm1.514,3.516a4.116,4.116,0,0,1,.869.1.876.876,0,0,1-.869.784.877.877,0,0,1-.869-.781,4.039,4.039,0,0,1,.869-.1Zm0,4.4a5.253,5.253,0,0,1-3.836-1.666,4.073,4.073,0,0,1,2.123-2.345,1.759,1.759,0,0,0,1.713,1.373,1.759,1.759,0,0,0,1.714-1.376,4.055,4.055,0,0,1,.529.3c0,.017,0,.034.008.05l.589,2.651c.012.053.028.1.042.155a5.224,5.224,0,0,1-2.882.861Zm11.868,3.516h-6.154V90.648a7.136,7.136,0,0,1,6.154,0Zm0-2.891a8.014,8.014,0,0,0-6.544.181l-.633-.475a2.639,2.639,0,0,1-.993-1.538l-.588-2.651a1.288,1.288,0,0,1-.033-.3,1.365,1.365,0,0,1,.758-1.228l1-.5v.944a1.145,1.145,0,0,1-.636,1.029l.393.787a2.022,2.022,0,0,0,1.122-1.816v-6.05a.44.44,0,0,1,.439-.44.44.44,0,0,1,.44.44V85.1h.879v-4.4a.44.44,0,0,1,.44-.439.44.44,0,0,1,.439.439v4.4h.879V81.585a.44.44,0,0,1,.44-.439.44.44,0,0,1,.439.439V85.1h.88V82.464a.44.44,0,0,1,.439-.439.44.44,0,0,1,.44.439Zm3.076-.625a5.28,5.28,0,0,1-2.2-.489V85.321a4.144,4.144,0,0,1,.485-.273A1.759,1.759,0,0,0-8.012,86.42,1.759,1.759,0,0,0-6.3,85.047a4.073,4.073,0,0,1,2.123,2.345,5.253,5.253,0,0,1-3.836,1.666Zm0,0" transform="translate(29.11 -66.201)"/></svg>