<svg xmlns="http://www.w3.org/2000/svg" width="27.254" height="22.794" viewBox="0 0 27.254 22.794"><defs><style>.a{fill:#fff;}</style></defs><g transform="translate(-8671.272 -445.094)"><path class="a" d="M8687.336,458.643a.481.481,0,1,0-.962,0,1.709,1.709,0,0,0,1.542,1.561v.078a.481.481,0,0,0,.963,0V460.2a1.708,1.708,0,0,0,1.542-1.561,1.959,1.959,0,0,0-1.542-1.785v-1.677c.356.116.58.351.58.569a.481.481,0,1,0,.962,0,1.708,1.708,0,0,0-1.542-1.561v-.078a.481.481,0,0,0-.963,0v.078a1.709,1.709,0,0,0-1.542,1.561,1.96,1.96,0,0,0,1.542,1.785v1.677C8687.56,459.1,8687.336,458.861,8687.336,458.643Zm2.123,0c0,.218-.224.453-.58.569v-1.3C8689.361,458.144,8689.459,458.35,8689.459,458.643Zm-2.123-2.893c0-.218.224-.453.58-.569v1.3C8687.434,456.249,8687.336,456.043,8687.336,455.75Z"/><path class="a" d="M8677.6,448.329h2.158a.4.4,0,0,1,.4.4v2.158a.4.4,0,0,1-.4.4H8677.6a.4.4,0,0,1-.4-.4v-2.158a.4.4,0,0,1,.4-.4Zm1.76.8H8678v1.36h1.359Zm-1.76,12.945a.4.4,0,0,1,0-.8h4.173a.4.4,0,0,1,0,.8Zm3.709-12.945a.4.4,0,1,1,0-.8h4.638a.4.4,0,1,1,0,.8Zm0,2.158a.4.4,0,1,1,0-.8h4.638a.4.4,0,1,1,0,.8Zm-3.709,2.156a.4.4,0,0,1,0-.8h4.173a.4.4,0,1,1,0,.8Zm0,2.158a.4.4,0,0,1,0-.8h4.173a.4.4,0,1,1,0,.8Zm0,2.158a.4.4,0,0,1,0-.8h4.173a.4.4,0,0,1,0,.8Zm0,2.157a.4.4,0,0,1,0-.8h4.173a.4.4,0,1,1,0,.8Zm14.787.693.664.664a1.426,1.426,0,0,1,1.684.242l3.383,3.383a1.417,1.417,0,0,1-2,2.005l-3.386-3.383a1.423,1.423,0,0,1-.24-1.682l-.664-.664a5.19,5.19,0,0,1-2.991,1.237v3.359a2.074,2.074,0,0,1-.621,1.5,2.368,2.368,0,0,1-1.532.621h-7.022a.4.4,0,0,1,0-.795h5.4a2.118,2.118,0,0,1-.461-1.323v-.46h-12.525c0,.16,0,.318,0,.478a1.332,1.332,0,0,0,.391.919,1.279,1.279,0,0,0,.932.385h4.455a.4.4,0,0,1,0,.8h-4.455a2.076,2.076,0,0,1-1.5-.622,2.127,2.127,0,0,1-.62-1.471v-.533a.733.733,0,0,1,.218-.564.748.748,0,0,1,.533-.189h2.686v-7.573a.4.4,0,1,1,.8,0v7.573h9.113a.757.757,0,0,1,.561.189.718.718,0,0,1,.205.564v.506a1.317,1.317,0,0,0,.389.935,1.3,1.3,0,0,0,.9.386,1.228,1.228,0,0,0,.965-.389,1.276,1.276,0,0,0,.386-.932v-3.359a5.206,5.206,0,0,1,0-10.382v-4.816a2.113,2.113,0,0,1,.463-1.322h-11.65a1.166,1.166,0,0,0-.945.386,1.334,1.334,0,0,0-.391.919l0,7.933a.4.4,0,0,1-.8,0l0-7.942a2.128,2.128,0,0,1,.621-1.471,2.3,2.3,0,0,1,1.514-.62h13.222a2.2,2.2,0,0,1,1.58.618,2.12,2.12,0,0,1,.621,1.5v1.581a.732.732,0,0,1-.211.561.74.74,0,0,1-.542.192h-2.687v2.482a5.179,5.179,0,0,1,2.94,1.2.4.4,0,0,1-.511.612,4.4,4.4,0,1,0,1.047,1.276.4.4,0,1,1,.7-.38,5.208,5.208,0,0,1-.621,5.876Zm.906,1.47a.622.622,0,0,0,0,.875l3.384,3.385a.619.619,0,0,0,.876-.876l-3.385-3.384a.622.622,0,0,0-.875,0Zm-3.14-16.187a1.323,1.323,0,0,0-1.321,1.321v1.536h2.641v-1.536a1.321,1.321,0,0,0-1.319-1.321Z"/></g></svg>