<svg xmlns="http://www.w3.org/2000/svg" width="24.262" height="27.255" viewBox="0 0 24.262 27.255"><defs><style>.a{fill:#fff;}</style></defs><g transform="translate(-32.768 -353)"><path class="a" d="M41.507,366.651H36.14a.4.4,0,0,0,0,.8h5.367a.4.4,0,1,0,0-.8Zm0,0"/><path class="a" d="M41.507,370.133H36.14a.4.4,0,0,0,0,.8h5.367a.4.4,0,1,0,0-.8Zm0,0"/><path class="a" d="M41.507,373.616H36.14a.4.4,0,0,0,0,.8h5.367a.4.4,0,1,0,0-.8Zm0,0"/><path class="a" d="M45.985,369.636h.847a.4.4,0,1,0,0-.8h-.847a.4.4,0,1,0,0,.8Zm0,0"/><path class="a" d="M49.406,368.838h-.847a.4.4,0,1,0,0,.8h.847a.4.4,0,1,0,0-.8Zm0,0"/><path class="a" d="M51.98,368.838h-.847a.4.4,0,1,0,0,.8h.847a.4.4,0,1,0,0-.8Zm0,0"/><path class="a" d="M54.554,368.838h-.847a.4.4,0,1,0,0,.8h.847a.4.4,0,1,0,0-.8Zm0,0"/><path class="a" d="M45.985,371.712h.847a.4.4,0,0,0,0-.8h-.847a.4.4,0,1,0,0,.8Zm0,0"/><path class="a" d="M49.406,370.914h-.847a.4.4,0,0,0,0,.8h.847a.4.4,0,1,0,0-.8Zm0,0"/><path class="a" d="M51.98,370.914h-.847a.4.4,0,0,0,0,.8h.847a.4.4,0,1,0,0-.8Zm0,0"/><path class="a" d="M54.554,370.914h-.847a.4.4,0,1,0,0,.8h.847a.4.4,0,0,0,0-.8Zm0,0"/><path class="a" d="M45.985,373.788h.847a.4.4,0,0,0,0-.8h-.847a.4.4,0,1,0,0,.8Zm0,0"/><path class="a" d="M49.406,372.99h-.847a.4.4,0,0,0,0,.8h.847a.4.4,0,1,0,0-.8Zm0,0"/><path class="a" d="M51.98,372.99h-.847a.4.4,0,0,0,0,.8h.847a.4.4,0,1,0,0-.8Zm0,0"/><path class="a" d="M54.554,372.99h-.847a.4.4,0,1,0,0,.8h.847a.4.4,0,0,0,0-.8Zm0,0"/><path class="a" d="M37.021,362.675a.4.4,0,1,0-.437.669,2.673,2.673,0,0,0,1.5.512v.537a.4.4,0,0,0,.8,0v-.567a2.155,2.155,0,0,0,1.734-1.778,1.888,1.888,0,0,0-1.3-2.162c-.156-.055-.3-.108-.433-.159v-2.233a1.439,1.439,0,0,1,.64.292.4.4,0,0,0,.539-.589,2.278,2.278,0,0,0-1.179-.511V356.2a.4.4,0,0,0-.8,0v.512c-.078.016-.159.036-.241.061a1.782,1.782,0,0,0-1.222,1.4,1.564,1.564,0,0,0,.51,1.543,4.382,4.382,0,0,0,.953.541v2.794a1.879,1.879,0,0,1-1.065-.382Zm1.864-2.1.167.06a1.1,1.1,0,0,1,.78,1.277,1.371,1.371,0,0,1-.947,1.089Zm-1.259-1.485a.779.779,0,0,1-.219-.767,1,1,0,0,1,.668-.785l.011,0v1.841a2.939,2.939,0,0,1-.46-.286Zm0,0"/><path class="a" d="M53.681,377.9a.4.4,0,0,0-.4.4v.286a.867.867,0,0,1-.866.866H34.432a.868.868,0,0,1-.866-.866V354.665a.868.868,0,0,1,.866-.867H48.4a1.035,1.035,0,0,1,.125.01v3.339a1.408,1.408,0,0,0,1.407,1.407h3.338a.866.866,0,0,1,.01.125v1.906a.4.4,0,0,0,.8,0v-1.906a1.74,1.74,0,0,0-.479-1.168l-4.023-4.023-.009-.009h0l0,0A1.666,1.666,0,0,0,48.4,353H34.432a1.666,1.666,0,0,0-1.664,1.665V378.59a1.666,1.666,0,0,0,1.664,1.665H52.415a1.667,1.667,0,0,0,1.665-1.665V378.3a.4.4,0,0,0-.4-.4Zm-4.357-23.542c.3.3,2.991,2.991,3.393,3.393H49.933a.609.609,0,0,1-.609-.609Zm0,0"/><path class="a" d="M55.645,362.059H44.9a1.388,1.388,0,0,0-1.386,1.386v1.343a.4.4,0,1,0,.8,0v-1.343a.589.589,0,0,1,.588-.588h10.75a.589.589,0,0,1,.587.588v12.009a.589.589,0,0,1-.587.587H44.9a.588.588,0,0,1-.588-.587v-8.8a.4.4,0,1,0-.8,0v8.8A1.388,1.388,0,0,0,44.9,376.84h10.75a1.387,1.387,0,0,0,1.385-1.386V363.445a1.387,1.387,0,0,0-1.385-1.386Zm0,0"/><path class="a" d="M54.953,364.7a.707.707,0,0,0-.706-.706H46.292a.707.707,0,0,0-.706.706v2.044a.707.707,0,0,0,.706.706h7.955a.707.707,0,0,0,.706-.706Zm-.8,1.951H46.384v-1.859h7.771Zm0,0"/></g></svg>