<svg xmlns="http://www.w3.org/2000/svg" width="20.118" height="27.255" viewBox="0 0 20.118 27.255"><defs><style>.a{fill:#fff;}</style></defs><g transform="translate(-2546.84 -2183.078)"><path class="a" d="M2555.091,2188.981c-1.5,4.893-1.484,4.81-1.484,4.861,0,.37.858.595.959.213l.289-1.012h1.742l.289,1.012c.1.388.959.147.959-.213a.32.32,0,0,0-.016-.076l-1.468-4.785C2556.228,2188.535,2555.225,2188.531,2555.091,2188.981Zm1.293,3.286h-1.324l.662-2.335Z"/><path class="a" d="M2559.6,2190.9a.381.381,0,0,0-.411.312v.806h-.814c-.394,0-.418.814,0,.814h.814v.814c0,.183.183.3.411.3.244,0,.4-.122.4-.3v-.814h.806a.367.367,0,0,0,.319-.4.385.385,0,0,0-.319-.411h-.806v-.806A.362.362,0,0,0,2559.6,2190.9Z"/><path class="a" d="M2557.789,2186.34a5.57,5.57,0,0,1,2.556.508.4.4,0,1,0,.388-.7,6.465,6.465,0,0,0-3.013-.609,5.911,5.911,0,1,0,0,11.821c7.2,0,6.985-11.77-.949-10.286a.4.4,0,0,0,.147.787c6.436-1.2,6.81,7.707,1.707,8.618a5.11,5.11,0,1,1-.835-10.139Z"/><path class="a" d="M2551.905,2186.966h-2.524a.4.4,0,1,0,0,.8h2.524a.4.4,0,1,0,0-.8Z"/><path class="a" d="M2549.381,2190.832h1.262a.4.4,0,0,0,0-.8h-1.262a.4.4,0,1,0,0,.8Z"/><path class="a" d="M2549.381,2193.9h1.485a.4.4,0,0,0,0-.8h-1.485a.4.4,0,1,0,0,.8Z"/><path class="a" d="M2549.381,2196.96h3.118a.4.4,0,1,0,0-.8h-3.118a.4.4,0,1,0,0,.8Z"/><path class="a" d="M2549.381,2200.024h12.843a.4.4,0,1,0,0-.8h-12.843a.4.4,0,1,0,0,.8Z"/><path class="a" d="M2549.381,2203.088h12.843a.4.4,0,1,0,0-.8h-12.843a.4.4,0,1,0,0,.8Z"/><path class="a" d="M2549.381,2206.153h8.983a.4.4,0,0,0,0-.8h-8.983a.4.4,0,1,0,0,.8Z"/><path class="a" d="M2566.338,2184.8h-1.267v-1.1a.622.622,0,0,0-.621-.621h-16.99a.621.621,0,0,0-.62.621v17.655a.4.4,0,0,0,.8,0V2183.88h16.629v8.275a.4.4,0,1,0,.8,0V2185.6h1.086v23.933h-16.629v-.919c12.24-.044,11.712.108,11.937-.119l1.894-1.917c1.692-1.712,1.712-1.665,1.712-1.9v-10.923a.4.4,0,1,0-.8,0v10.523h-3.09a.4.4,0,0,0-.4.4v3.131h-13.138v-4.856a.4.4,0,1,0-.8,0v5.037a.62.62,0,0,0,.62.62h1.267v1.1a.621.621,0,0,0,.621.62h16.99a.621.621,0,0,0,.62-.62v-24.294A.621.621,0,0,0,2566.338,2184.8Zm-4.757,20.284h2.13l-2.13,2.155Z"/></g></svg>