<svg xmlns="http://www.w3.org/2000/svg" width="20.918" height="27.252" viewBox="0 0 20.918 27.252"><defs><style>.a{fill:#fff;}</style></defs><g transform="translate(82.298 -185.928)"><path class="a" d="M-61.779,194.836a.4.4,0,0,0,.4-.4V191.65a1.2,1.2,0,0,0-1.2-1.2h-.4v-1.064a1.2,1.2,0,0,0-1.2-1.2h-.4v-1.064a1.2,1.2,0,0,0-1.2-1.2H-81.1a1.2,1.2,0,0,0-1.2,1.2v2.2a.4.4,0,0,0,.4.4.4.4,0,0,0,.4-.4v-2.2a.4.4,0,0,1,.4-.4h15.329a.4.4,0,0,1,.4.4v20.332a.4.4,0,0,1-.4.4H-81.1a.4.4,0,0,1-.4-.4V191.031a.4.4,0,0,0-.4-.4.4.4,0,0,0-.4.4v16.427a1.2,1.2,0,0,0,1.2,1.2h.4v1.064a1.2,1.2,0,0,0,1.2,1.2h.4v1.064a1.2,1.2,0,0,0,1.2,1.2h15.329a1.2,1.2,0,0,0,1.2-1.2V196.13a.4.4,0,0,0-.4-.4.4.4,0,0,0-.4.4v15.852a.4.4,0,0,1-.4.4H-77.906a.4.4,0,0,1-.4-.4v-1.064h9.867a.4.4,0,0,0,.4-.4.4.4,0,0,0-.4-.4H-79.5a.4.4,0,0,1-.4-.4v-1.064h14.131a1.2,1.2,0,0,0,1.2-1.2V188.989h.4a.4.4,0,0,1,.4.4V209.72a.4.4,0,0,1-.4.4h-2.572a.4.4,0,0,0-.4.4.4.4,0,0,0,.4.4h2.572a1.2,1.2,0,0,0,1.2-1.2V191.251h.4a.4.4,0,0,1,.4.4v2.787a.4.4,0,0,0,.4.4Zm0,0"/><path class="a" d="M-79.61,192.528V195.3a.613.613,0,0,0,.612.612h2.768a.613.613,0,0,0,.612-.612v-2.059l.818-.7a.4.4,0,0,0,.045-.563.4.4,0,0,0-.563-.044l-.368.314a.615.615,0,0,0-.544-.33H-79a.613.613,0,0,0-.612.612Zm.8.186h2.395v.155l-.792.676-.378-.409a.4.4,0,0,0-.565-.023.4.4,0,0,0-.022.564l.639.692a.4.4,0,0,0,.552.033l.566-.483v1.191h-2.395Zm0,0"/><path class="a" d="M-67.66,192.555h-6.387a.4.4,0,0,0-.4.4.4.4,0,0,0,.4.4h6.387a.4.4,0,0,0,.4-.4.4.4,0,0,0-.4-.4Zm0,0"/><path class="a" d="M-67.66,194.258h-6.387a.4.4,0,0,0-.4.4.4.4,0,0,0,.4.4h6.387a.4.4,0,0,0,.4-.4.4.4,0,0,0-.4-.4Zm0,0"/><path class="a" d="M-79.61,200.459a.613.613,0,0,0,.612.612h2.768a.613.613,0,0,0,.612-.612v-2.768a.613.613,0,0,0-.612-.612H-79a.613.613,0,0,0-.612.612Zm.8-2.582h2.395v2.4h-2.395Zm0,0"/><path class="a" d="M-67.66,197.718h-6.387a.4.4,0,0,0-.4.4.4.4,0,0,0,.4.4h6.387a.4.4,0,0,0,.4-.4.4.4,0,0,0-.4-.4Zm0,0"/><path class="a" d="M-67.66,199.421h-6.387a.4.4,0,0,0-.4.4.4.4,0,0,0,.4.4h6.387a.4.4,0,0,0,.4-.4.4.4,0,0,0-.4-.4Zm0,0"/><path class="a" d="M-79.61,205.622a.613.613,0,0,0,.612.612h2.768a.613.613,0,0,0,.612-.612v-2.768a.613.613,0,0,0-.612-.612H-79a.613.613,0,0,0-.612.612Zm.8-2.582h2.395v2.4h-2.395Zm0,0"/><path class="a" d="M-67.66,202.881h-6.387a.4.4,0,0,0-.4.4.4.4,0,0,0,.4.4h6.387a.4.4,0,0,0,.4-.4.4.4,0,0,0-.4-.4Zm0,0"/><path class="a" d="M-67.66,204.584h-6.387a.4.4,0,0,0-.4.4.4.4,0,0,0,.4.4h6.387a.4.4,0,0,0,.4-.4.4.4,0,0,0-.4-.4Zm0,0"/><path class="a" d="M-69.683,187.818h-7.345a1.332,1.332,0,0,0-1.331,1.33,1.332,1.332,0,0,0,1.331,1.331h7.345a1.332,1.332,0,0,0,1.331-1.331,1.332,1.332,0,0,0-1.331-1.33Zm0,1.863h-7.345a.533.533,0,0,1-.532-.533.532.532,0,0,1,.532-.532h7.345a.532.532,0,0,1,.532.532.533.533,0,0,1-.532.533Zm0,0"/></g></svg>