<svg xmlns="http://www.w3.org/2000/svg" width="26.453" height="27.255" viewBox="0 0 26.453 27.255"><defs><style>.a{fill:#fff;}</style></defs><g transform="translate(-4553.673 -623.132)"><path class="a" d="M4572.656,635.344H4559.68a.4.4,0,1,0,0,.8h12.977a.4.4,0,1,0,0-.8Zm0,0"/><path class="a" d="M4572.656,632.851H4559.68a.4.4,0,1,0,0,.8h12.977a.4.4,0,1,0,0-.8Zm0,0"/><path class="a" d="M4560.955,627.426h.687a.4.4,0,0,0,0-.8h-.687a1.543,1.543,0,0,0-1.377.815,2.484,2.484,0,0,0,0,2.346,1.542,1.542,0,0,0,1.377.811h.834a.4.4,0,0,0,0-.8h-.834a.755.755,0,0,1-.686-.412,1.688,1.688,0,0,1,0-1.548.757.757,0,0,1,.686-.416Zm0,0"/><path class="a" d="M4563.647,630.273a.508.508,0,0,0,.457.328h0a.5.5,0,0,0,.458-.322l.012-.03,1.072-3.091a.4.4,0,0,0-.755-.262l-.787,2.272-.788-2.272a.4.4,0,0,0-.755.262l1.072,3.091.009.024Zm0,0"/><path class="a" d="M4564.843,643.625a.4.4,0,1,0,0-.8h-5.163a.4.4,0,1,0,0,.8Zm0,0"/><path class="a" d="M4576.088,641.446a.4.4,0,0,0-.562.05l-2.92,3.488-1.38-1.172a.4.4,0,1,0-.517.608l1.686,1.433a.4.4,0,0,0,.259.095h.033a.4.4,0,0,0,.273-.142l3.178-3.8a.4.4,0,0,0-.05-.562Zm0,0"/><path class="a" d="M4578.215,639.217a6.505,6.505,0,0,0-2.506-1.566v-3.372a.4.4,0,1,0-.8,0v3.155a6.631,6.631,0,0,0-1.319-.133,6.526,6.526,0,0,0-2.6.538H4559.68a.4.4,0,1,0,0,.8h9.952a6.693,6.693,0,0,0-.662.579h0a6.523,6.523,0,0,0-.894,1.115h-8.4a.4.4,0,1,0,0,.8h7.964a6.586,6.586,0,0,0,.118,5.67H4556.95v-22.87h14.08l0,2.02a1.685,1.685,0,0,0,1.683,1.683h2.2v4.8a.4.4,0,1,0,.8,0v-5.13a.6.6,0,0,0-.235-.468c-.019-.017-3.562-3.4-3.562-3.4l-.055-.052a.68.68,0,0,0-.509-.254h-14.476a.72.72,0,0,0-.719.72v1.522h-1.761a.72.72,0,0,0-.718.719v10.614a.4.4,0,1,0,.8,0V626.173h1.681v20.708a.72.72,0,0,0,.719.719h11.368a6.572,6.572,0,0,0,.731.871,6.467,6.467,0,0,0,.652.572h-15.151V638.551a.4.4,0,1,0-.8,0v10.572a.72.72,0,0,0,.718.719h16.58a6.544,6.544,0,0,0,7.244-10.625Zm-6.387-14.754,2.485,2.373h-1.6a.886.886,0,0,1-.885-.884Zm5.822,23.444a5.744,5.744,0,0,1-6.4,1.186.336.336,0,0,0-.052-.023,5.755,5.755,0,0,1-2.594-8.073.385.385,0,0,0,.079-.134,5.769,5.769,0,0,1,2.531-2.251.426.426,0,0,0,.052-.024,5.784,5.784,0,0,1,3.916-.265l.019.006a5.7,5.7,0,0,1,2.445,1.453,5.759,5.759,0,0,1,0,8.125Zm0,0"/></g></svg>