<svg xmlns="http://www.w3.org/2000/svg" width="27.152" height="27.255" viewBox="0 0 27.152 27.255"><defs><style>.a{fill:#fff;}</style></defs><g transform="translate(-31.323 -2065.63)"><path class="a" d="M52.337,2078.73v-.577h.37a1.255,1.255,0,1,0,0-2.511H50.055a1.247,1.247,0,0,0-.724.23v-8.945a1.3,1.3,0,0,0-1.3-1.3H32.62a1.3,1.3,0,0,0-1.3,1.3v24.661a1.3,1.3,0,0,0,1.3,1.3H48.034a1.3,1.3,0,0,0,.974-.441,7.094,7.094,0,1,0,3.329-13.714Zm-2.282-2.282h2.652a.449.449,0,1,1,0,.9H50.055a.449.449,0,1,1,0-.9Zm1.475,1.705v.514c-.1,0-.2,0-.3,0v-.514Zm-2.2-.231a1.25,1.25,0,0,0,.724.231h.37v.577a7.062,7.062,0,0,0-1.094.236Zm6.927,11.806a6.294,6.294,0,0,1-11-2.549.4.4,0,1,0-.785.182,7.061,7.061,0,0,0,3.666,4.706c-.077.017.8.011-15.516.011a.49.49,0,0,1-.491-.49v-24.661a.491.491,0,0,1,.491-.491H48.034a.491.491,0,0,1,.491.491v12.336a7.1,7.1,0,0,0-4.238,6.4.4.4,0,1,0,.807.01,6.288,6.288,0,1,1,11.164,4.053Zm0,0"/><path class="a" d="M56.052,2082.3a5.815,5.815,0,1,0-1.208,8.134,5.811,5.811,0,0,0,1.208-8.134Zm-1.688,7.486a5.008,5.008,0,1,1,1.041-7.006,5.013,5.013,0,0,1-1.041,7.006Zm0,0"/><path class="a" d="M51.381,2082.717a.4.4,0,0,0,.4-.4v-.877a.4.4,0,1,0-.806,0v.877a.4.4,0,0,0,.4.4Zm0,0"/><path class="a" d="M53.744,2081.667a.4.4,0,0,0-.551.148l-.438.759a.4.4,0,1,0,.7.4l.439-.759a.4.4,0,0,0-.148-.551Zm0,0"/><path class="a" d="M54.567,2084.386l.759-.438a.4.4,0,1,0-.4-.7l-.759.439a.4.4,0,1,0,.4.7Zm0,0"/><path class="a" d="M55.7,2085.357h-.877a.4.4,0,0,0,0,.806H55.7a.4.4,0,0,0,0-.806Zm0,0"/><path class="a" d="M55.326,2087.572l-.759-.438a.4.4,0,1,0-.4.7l.759.438a.4.4,0,1,0,.4-.7Zm0,0"/><path class="a" d="M53.453,2088.543a.4.4,0,1,0-.7.4l.438.759a.4.4,0,0,0,.7-.4Zm0,0"/><path class="a" d="M51.381,2088.8a.4.4,0,0,0-.4.4v.876a.4.4,0,1,0,.806,0v-.876a.4.4,0,0,0-.4-.4Zm0,0"/><path class="a" d="M49.86,2088.4a.4.4,0,0,0-.551.147l-.438.76a.4.4,0,1,0,.7.4l.438-.759a.4.4,0,0,0-.147-.551Zm0,0"/><path class="a" d="M48.195,2087.134l-.759.438a.4.4,0,0,0,.2.752c.143,0,.144-.021.961-.492a.4.4,0,1,0-.4-.7Zm0,0"/><path class="a" d="M48.338,2085.76a.4.4,0,0,0-.4-.4h-.877a.4.4,0,0,0,0,.806h.877a.4.4,0,0,0,.4-.4Zm0,0"/><path class="a" d="M47.436,2083.948c.825.476.819.492.96.492a.4.4,0,0,0,.2-.752l-.76-.439a.4.4,0,1,0-.4.7Zm0,0"/><path class="a" d="M49.569,2081.815a.4.4,0,1,0-.7.4l.438.759a.4.4,0,1,0,.7-.4Zm0,0"/><path class="a" d="M52.8,2084.377a.4.4,0,1,0-.679-.435l-.435.678a1.181,1.181,0,1,0,.661.464Zm-1.2,1.684a.375.375,0,1,1-.228-.677.375.375,0,0,1,.228.677Zm0,0"/><path class="a" d="M34.188,2069.136H46.466a.4.4,0,0,0,0-.807H34.188a.4.4,0,0,0,0,.807Zm0,0"/><path class="a" d="M39.456,2070.343a.4.4,0,0,0,0,.807h3.656a.4.4,0,0,0,0-.807Zm0,0"/><path class="a" d="M34.188,2071.15h3.655a.4.4,0,0,0,0-.807H34.188a.4.4,0,0,0,0,.807Zm0,0"/><path class="a" d="M43.6,2074.635H34.188a.4.4,0,1,0,0,.806H43.6a.4.4,0,1,0,0-.806Zm0,0"/><path class="a" d="M46.466,2074.635H45.208a.4.4,0,1,0,0,.806h1.258a.4.4,0,1,0,0-.806Zm0,0"/><path class="a" d="M34.188,2077.455h3.5a.4.4,0,1,0,0-.806h-3.5a.4.4,0,0,0,0,.806Zm0,0"/><path class="a" d="M42.976,2080.941H34.188a.4.4,0,0,0,0,.806h8.788a.4.4,0,0,0,0-.806Zm0,0"/><path class="a" d="M34.188,2083.761h3.225a.4.4,0,0,0,0-.807H34.188a.4.4,0,0,0,0,.807Zm0,0"/><path class="a" d="M42.252,2082.954H39.026a.4.4,0,0,0,0,.807h3.226a.4.4,0,0,0,0-.807Zm0,0"/><path class="a" d="M40.362,2085.533l-4.324,3.936-1.459-2.17a.4.4,0,0,0-.669.45l1.477,2.2a.779.779,0,0,0,1.17.141l4.348-3.957a.4.4,0,0,0-.543-.6Zm0,0"/></g></svg>