<svg xmlns="http://www.w3.org/2000/svg" width="27.156" height="27.252" viewBox="0 0 27.156 27.252"><defs><style>.a{fill:#fff;}</style></defs><g transform="translate(74.111 -66.201)"><path class="a" d="M-61.8,72.794a.44.44,0,0,1-.439.44.44.44,0,0,1-.44-.44.44.44,0,0,1,.44-.439.44.44,0,0,1,.439.439Zm0,0"/><path class="a" d="M-58.287,72.794a.44.44,0,0,1-.44.44.44.44,0,0,1-.44-.44.44.44,0,0,1,.44-.439.44.44,0,0,1,.44.439Zm0,0"/><path class="a" d="M-60.046,75.871H-61.8v.879h1.758a1.76,1.76,0,0,0,1.759-1.758h-.88a.88.88,0,0,1-.879.879Zm0,0"/><rect class="a" width="0.879" height="1.758" transform="translate(-60.925 72.355)"/><rect class="a" width="0.879" height="0.879" transform="translate(-72.353 84.662)"/><rect class="a" width="2.637" height="0.879" transform="translate(-70.595 84.662)"/><rect class="a" width="4.395" height="0.879" transform="translate(-72.353 86.42)"/><rect class="a" width="4.395" height="0.879" transform="translate(-72.353 88.179)"/><path class="a" d="M-51.823,88.747l-.622.621,1.666,1.666,3.824-4.779-.687-.549-3.209,4.012Zm0,0"/><path class="a" d="M-48.617,91.695h-4.4V87.3h2.637V86.42h-3.516v2.638h-4.4v-.44a2.184,2.184,0,0,0-.1-.65,10.567,10.567,0,0,0,8.45-10.339,10.5,10.5,0,0,0-5.73-9.382A4.83,4.83,0,0,0-59.61,66.2h-1.585a3.906,3.906,0,0,0-3.173,1.621,10.61,10.61,0,0,0-6.666,9.807A10.488,10.488,0,0,0-69.622,82.9h-3.61a.88.88,0,0,0-.879.879v7.912a.88.88,0,0,0,.879.879h6.154a.88.88,0,0,0,.879-.879V89.937h3.516v2.2a1.32,1.32,0,0,0,1.319,1.319h1.758a1.32,1.32,0,0,0,1.319-1.319v-2.2h4.4v2.637h6.154V89.058h-.879Zm-10.55-3.077v.44H-61.8v-.44A1.318,1.318,0,0,1-61.7,88.1a10.8,10.8,0,0,0,1.211.077,10.809,10.809,0,0,0,1.213-.072,1.327,1.327,0,0,1,.1.511Zm8.352-10.989a9.681,9.681,0,0,1-9.67,9.67A9.57,9.57,0,0,1-66.2,85.424V84.3a8.741,8.741,0,0,0,5.714,2.124,8.8,8.8,0,0,0,8.791-8.791,8.759,8.759,0,0,0-3.081-6.68,4.836,4.836,0,0,0-.193-1.264,9.614,9.614,0,0,1,4.153,7.944Zm-13.626-2.637a.88.88,0,0,1-.879-.879.88.88,0,0,1,.879-.879Zm-1.652-2.94.212,1.058a1.739,1.739,0,0,0-.318,1,1.76,1.76,0,0,0,1.758,1.758h.035a3.082,3.082,0,0,0,1.977,2.444L-62.6,79a5.348,5.348,0,0,0-4.161,3.436,7.865,7.865,0,0,1-1.638-4.8,7.876,7.876,0,0,1,2.3-5.577Zm9.564,1.182a.88.88,0,0,1,.879.879.88.88,0,0,1-.879.879Zm-.035,2.637h.035a1.76,1.76,0,0,0,1.758-1.758,1.752,1.752,0,0,0-.318-1l.211-1.058a7.881,7.881,0,0,1,2.3,5.578,7.86,7.86,0,0,1-1.638,4.8,5.352,5.352,0,0,0-4.161-3.436l-.17-.679a3.083,3.083,0,0,0,1.978-2.444Zm-4.8,2.637h1.758c.069,0,.136-.005.2-.01l.178.711-1.281.948-1.241-.944.179-.715c.067,0,.135.01.2.01Zm2.969,1.371-.22,1.1-1-.4,1-.741c.072.011.145.019.215.032Zm-1.992,2.146h-.246l-.233-.7.358-.145.356.14Zm-1-1.437-.965.391-.22-1.1c.07-.013.141-.022.212-.031Zm-2.031-.456.412,2.059,1.327-.536.277.828-.7,2.889a7.907,7.907,0,0,1-3.969-2.151,4.463,4.463,0,0,1,2.655-3.089ZM-60.6,82.9h.193l.668,2.6c-.245.024-.492.038-.742.038s-.5-.014-.751-.038Zm1.735,2.47-.743-2.893.278-.837,1.374.544.411-2.056a4.461,4.461,0,0,1,2.655,3.089,7.9,7.9,0,0,1-3.975,2.153Zm1.461-9.942a2.2,2.2,0,0,1-2.2,2.2h-1.758a2.2,2.2,0,0,1-2.2-2.2V71.915A1.319,1.319,0,0,1-62.243,70.6h.233a2.632,2.632,0,0,0,1.964.879h2.2a.44.44,0,0,1,.44.439Zm-3.787-8.352h1.585a3.965,3.965,0,0,1,3.96,3.96,3.968,3.968,0,0,1-.077.777l-.135.671a1.745,1.745,0,0,0-.667-.133v-.44A1.32,1.32,0,0,0-57.848,70.6h-2.2A1.761,1.761,0,0,1-61.8,68.838h-.879a2.635,2.635,0,0,0,.157.9,2.2,2.2,0,0,0-1.915,2.18v.44a1.746,1.746,0,0,0-.668.133l-.166-.829a2.355,2.355,0,0,1-.045-.458,2.326,2.326,0,0,1,1.039-1.941l.2-.132.051-.127a3.044,3.044,0,0,1,2.838-1.921Zm-8.96,10.549A9.736,9.736,0,0,1-65.7,69.5a3.194,3.194,0,0,0-.479,1.443,8.757,8.757,0,0,0-3.093,6.69A8.732,8.732,0,0,0-67.5,82.9h-1.084a9.618,9.618,0,0,1-1.57-5.275Zm-3.077,14.066V83.783h6.154v7.912Zm7.033-2.637V86.5a10.39,10.39,0,0,0,3.616,1.464,2.212,2.212,0,0,0-.1.655v.44Zm7.032,3.076a.44.44,0,0,1-.439.44h-1.758a.441.441,0,0,1-.44-.44v-2.2h2.637Zm0,0"/><rect class="a" width="4.395" height="0.879" transform="translate(-72.353 89.937)"/></g></svg>