<svg xmlns="http://www.w3.org/2000/svg" width="27.094" height="27.255" viewBox="0 0 27.094 27.255"><defs><style>.a{fill:#fff;}</style></defs><path class="a" d="M58.446,722.508a1.262,1.262,0,0,0-1.261-1.261H49.972v-5.155l2.975-1.056a.4.4,0,0,0-.268-.755l-4.455,1.582v-5.892l8.3,2.946-2.335.829a.4.4,0,0,0,.268.755l2.56-.909a.716.716,0,0,0,0-1.35c-9.337-3.314-8.7-3.107-8.878-3.107a.716.716,0,0,0-.715.716v11.4H45.547a.4.4,0,1,0,0,.8H57.185a.46.46,0,0,1,.46.46v3.519H42.392v-3.519a.46.46,0,0,1,.46-.46h1.093a.4.4,0,1,0,0-.8H42.852a1.263,1.263,0,0,0-1.261,1.261v3.519H37.732a1.263,1.263,0,0,0-1.261,1.261v3.519H32.612a1.261,1.261,0,0,0-1.26,1.261v3.058a1.261,1.261,0,0,0,1.26,1.261h1.62a.4.4,0,1,0,0-.8h-1.62a.46.46,0,0,1-.46-.46v-3.058a.461.461,0,0,1,.46-.461H57.646v3.519a.461.461,0,0,1-.461.46H35.834a.4.4,0,0,0,0,.8H57.185a1.262,1.262,0,0,0,1.261-1.261c0-.44,0-12.086,0-12.618Zm-9.275-1.261h-.947v-4.554a5.309,5.309,0,0,0,.947-.317Zm8.475,9.56H37.272v-3.519a.461.461,0,0,1,.46-.461H57.646Zm0,0" transform="translate(-31.352 -709.132)"/></svg>