<svg xmlns="http://www.w3.org/2000/svg" width="120" height="120" viewBox="0 0 120 120"><defs><style>.a{fill:#581;}</style></defs><path class="a" d="M-234.7-168.212a27.043,27.043,0,0,0-13.184,3.4l-3.332-5.1a27.035,27.035,0,0,0,10.71-21.528,27.127,27.127,0,0,0-27.1-27.1,27.127,27.127,0,0,0-27.1,27.1,26.932,26.932,0,0,0,10.686,21.565l-3.315,5.07a27.1,27.1,0,0,0-13.177-3.409,27.126,27.126,0,0,0-27.1,27.1,27.127,27.127,0,0,0,27.1,27.1,26.876,26.876,0,0,0,14.2-4.018,15.429,15.429,0,0,0,4.134,4.7l2.957,2.22v12.581h34.839v-17.276a27.241,27.241,0,0,0,9.677,1.792,27.127,27.127,0,0,0,27.1-27.1,27.126,27.126,0,0,0-27.1-27.1Zm23.226,27.1a23.058,23.058,0,0,1-3.6,12.368A21.9,21.9,0,0,0-227.4-139.834a11.593,11.593,0,0,0,4.316-9.024A11.624,11.624,0,0,0-234.7-160.47a11.628,11.628,0,0,0-11.4,9.428,5.775,5.775,0,0,0-4.084-1.687,5.77,5.77,0,0,0-2.159.426,5.737,5.737,0,0,0-1.224-2.284,23.037,23.037,0,0,1,18.867-9.754,23.251,23.251,0,0,1,23.226,23.225Zm-32.9-1.335a11.66,11.66,0,0,0,2.371,2.609,21.86,21.86,0,0,0-2.371,1Zm9.677,1.335a7.751,7.751,0,0,1-7.742-7.742h15.484a7.751,7.751,0,0,1-7.742,7.742Zm-6.666-11.613A7.718,7.718,0,0,1-234.7-156.6a7.717,7.717,0,0,1,6.666,3.871Zm6.666,15.484a17.544,17.544,0,0,1,3.827.433,3.861,3.861,0,0,1-3.827,3.438,3.863,3.863,0,0,1-3.824-3.409,17.809,17.809,0,0,1,3.824-.462Zm-16.416-25.443A27.129,27.129,0,0,0-257-156.505a5.681,5.681,0,0,0-.929-.1,5.77,5.77,0,0,0-2.159.426,5.8,5.8,0,0,0-5.582-4.3,5.756,5.756,0,0,0-1.936.356v-4.227a26.9,26.9,0,0,0,13.162-3.432Zm-16.487-5.524c-.122,0-.239-.012-.36-.014a5.8,5.8,0,0,0-5.446-3.857,5.785,5.785,0,0,0-4.062,1.665,23.214,23.214,0,0,1-7.04-5.074,17.941,17.941,0,0,1,9.365-10.384,7.747,7.747,0,0,0,7.543,6.051,7.747,7.747,0,0,0,7.543-6.049,17.94,17.94,0,0,1,9.348,10.328,23.144,23.144,0,0,1-16.891,7.334Zm-7.742-30.968h15.484a7.751,7.751,0,0,1-7.742,7.742,7.751,7.751,0,0,1-7.742-7.742Zm1.076-3.871a7.715,7.715,0,0,1,6.666-3.871,7.715,7.715,0,0,1,6.666,3.871Zm6.666,15.484a17.606,17.606,0,0,1,3.827.432A3.862,3.862,0,0,1-267.6-183.7a3.862,3.862,0,0,1-3.827-3.439,17.606,17.606,0,0,1,3.827-.432Zm0-27.1a23.251,23.251,0,0,1,23.226,23.226,23.061,23.061,0,0,1-3.6,12.368A21.907,21.907,0,0,0-260.3-190.157a11.593,11.593,0,0,0,4.316-9.023A11.624,11.624,0,0,0-267.6-210.793a11.624,11.624,0,0,0-11.613,11.613,11.586,11.586,0,0,0,4.316,9.021,21.906,21.906,0,0,0-12.35,11.129,23.187,23.187,0,0,1-3.579-12.408A23.251,23.251,0,0,1-267.6-214.664Zm-13.169,46.9c.53.293,1.068.574,1.622.834a5.429,5.429,0,0,0-.066.653v8.406a26.949,26.949,0,0,0-4.875-4.813Zm-19.734,3.423a23.169,23.169,0,0,1,21.29,13.952v2.271l-6.131,3.066a9.84,9.84,0,0,0-5.153,6.375,21.692,21.692,0,0,0-2.7-1.165,11.6,11.6,0,0,0,4.3-9.016,11.624,11.624,0,0,0-11.613-11.612,11.624,11.624,0,0,0-11.613,11.612,11.583,11.583,0,0,0,4.316,9.021,21.9,21.9,0,0,0-12.328,11.088,23.052,23.052,0,0,1-3.6-12.367,23.251,23.251,0,0,1,23.226-23.225Zm-7.742,15.483h15.484a7.751,7.751,0,0,1-7.742,7.742,7.751,7.751,0,0,1-7.742-7.742Zm1.076-3.871a7.717,7.717,0,0,1,6.666-3.871,7.718,7.718,0,0,1,6.666,3.871Zm6.666,15.484a17.988,17.988,0,0,1,3.828.42,3.862,3.862,0,0,1-3.828,3.451,3.861,3.861,0,0,1-3.827-3.438,17.544,17.544,0,0,1,3.827-.433Zm0,19.355a23.143,23.143,0,0,1-16.891-7.333,17.934,17.934,0,0,1,9.348-10.328,7.746,7.746,0,0,0,7.543,6.048,7.746,7.746,0,0,0,7.547-6.062,17.838,17.838,0,0,1,2.329,1.311c.015.073.022.147.037.22L-288-122.36c.052.23.121.454.184.682a23.014,23.014,0,0,1-12.691,3.788Zm52.258,15.484h-27.1v-8.479a31.392,31.392,0,0,1,27.1,0Zm0-12.732a35.282,35.282,0,0,0-28.813.8l-2.79-2.093a11.624,11.624,0,0,1-4.369-6.77l-2.593-11.675a5.913,5.913,0,0,1-.145-1.308,6.01,6.01,0,0,1,3.341-5.406l4.4-2.2v4.155a5.04,5.04,0,0,1-2.8,4.532l1.733,3.463a8.9,8.9,0,0,0,4.939-7.995v-26.641a1.937,1.937,0,0,1,1.936-1.935,1.937,1.937,0,0,1,1.935,1.935v30.968h3.871v-19.355a1.938,1.938,0,0,1,1.936-1.936,1.938,1.938,0,0,1,1.935,1.936v19.355h3.871v-15.484a1.938,1.938,0,0,1,1.935-1.936,1.938,1.938,0,0,1,1.936,1.936v15.484h3.871v-11.613a1.938,1.938,0,0,1,1.935-1.936,1.938,1.938,0,0,1,1.936,1.936Zm13.548-2.752a23.276,23.276,0,0,1-9.677-2.152v-14.3a18.039,18.039,0,0,1,2.137-1.2,7.746,7.746,0,0,0,7.54,6.041,7.746,7.746,0,0,0,7.543-6.048,17.939,17.939,0,0,1,9.349,10.328A23.147,23.147,0,0,1-234.7-117.89Zm0,0" transform="translate(327.602 218.535)"/></svg>