<svg xmlns="http://www.w3.org/2000/svg" width="120" height="100.36" viewBox="0 0 120 100.36"><defs><style>.a{fill:#581;}</style></defs><g transform="translate(-384.34 -1402.416)"><path class="a" d="M455.07,1462.07a2.118,2.118,0,0,0-4.236,0c0,3.383,2.851,6.14,6.792,6.876v.341a2.118,2.118,0,1,0,4.236,0v-.341c3.941-.736,6.792-3.492,6.792-6.876,0-4.728-3.777-6.715-6.792-7.858v-7.384c1.569.512,2.556,1.547,2.556,2.507a2.118,2.118,0,1,0,4.236,0c0-3.384-2.851-6.14-6.792-6.876v-.341a2.118,2.118,0,1,0-4.236,0v.341c-3.941.736-6.792,3.492-6.792,6.876,0,4.727,3.777,6.714,6.792,7.857v7.385C456.057,1464.064,455.07,1463.029,455.07,1462.07Zm9.348,0c0,.959-.987,1.995-2.556,2.507v-5.744C463.986,1459.872,464.418,1460.78,464.418,1462.07Zm-9.348-12.735c0-.96.987-1.995,2.556-2.507v5.744C455.5,1451.532,455.07,1450.625,455.07,1449.335Z"/><path class="a" d="M412.185,1416.66h9.5a1.759,1.759,0,0,1,1.761,1.753v9.5a1.764,1.764,0,0,1-1.761,1.76h-9.5a1.758,1.758,0,0,1-1.755-1.76v-9.5a1.752,1.752,0,0,1,1.755-1.753Zm7.746,3.514h-5.986v5.985h5.986Zm-7.746,57a1.761,1.761,0,0,1,0-3.521h18.376a1.761,1.761,0,0,1,0,3.521Zm16.33-57a1.757,1.757,0,1,1,0-3.514h20.416a1.757,1.757,0,1,1,0,3.514Zm0,9.5a1.757,1.757,0,1,1,0-3.515h20.416a1.757,1.757,0,1,1,0,3.515Zm-16.33,9.495a1.757,1.757,0,0,1,0-3.515h18.376a1.757,1.757,0,0,1,0,3.515Zm0,9.5a1.757,1.757,0,0,1,0-3.514h18.376a1.757,1.757,0,0,1,0,3.514Zm0,9.5a1.757,1.757,0,0,1,0-3.515h18.376a1.757,1.757,0,0,1,0,3.515Zm0,9.5a1.758,1.758,0,0,1,0-3.515h18.376a1.758,1.758,0,0,1,0,3.515Zm65.108,3.049,2.924,2.924a6.277,6.277,0,0,1,7.408,1.063L502.52,1489.6a6.241,6.241,0,0,1-8.823,8.829l-14.9-14.9a6.272,6.272,0,0,1-1.062-7.407l-2.924-2.924a22.816,22.816,0,0,1-13.169,5.448v14.789a9.118,9.118,0,0,1-2.736,6.591,10.425,10.425,0,0,1-6.744,2.737H421.24a1.751,1.751,0,0,1,0-3.5h23.784a9.336,9.336,0,0,1-2.032-5.827v-2.026H387.841c0,.7-.006,1.4,0,2.1a5.881,5.881,0,0,0,1.722,4.047,5.639,5.639,0,0,0,4.105,1.694h19.613a1.758,1.758,0,0,1,0,3.515H393.668a9.133,9.133,0,0,1-6.591-2.738,9.386,9.386,0,0,1-2.737-6.477v-2.347a3.225,3.225,0,0,1,.964-2.484,3.307,3.307,0,0,1,2.345-.83h11.826v-33.345a1.76,1.76,0,1,1,3.521,0V1487.9h40.123a3.352,3.352,0,0,1,2.47.83,3.172,3.172,0,0,1,.9,2.484v2.227a5.819,5.819,0,0,0,5.687,5.819,5.417,5.417,0,0,0,4.251-1.714,5.642,5.642,0,0,0,1.7-4.1v-14.79a22.92,22.92,0,0,1,0-45.708v-21.206a9.287,9.287,0,0,1,2.04-5.82h-51.3a5.139,5.139,0,0,0-4.165,1.7,5.867,5.867,0,0,0-1.715,4.047l.007,34.925a1.76,1.76,0,0,1-3.521,0l.007-34.965a9.383,9.383,0,0,1,2.737-6.478,10.1,10.1,0,0,1,6.664-2.73H467.1a9.68,9.68,0,0,1,6.956,2.723,9.316,9.316,0,0,1,2.738,6.6v6.962a3.24,3.24,0,0,1-.93,2.471,3.275,3.275,0,0,1-2.385.844H461.64v10.929a22.828,22.828,0,0,1,12.949,5.262,1.757,1.757,0,0,1-2.252,2.7,19.36,19.36,0,1,0,4.611,5.62,1.751,1.751,0,1,1,3.076-1.673,22.937,22.937,0,0,1-2.731,25.87Zm3.987,6.471a2.743,2.743,0,0,0,0,3.854l14.9,14.9a2.725,2.725,0,0,0,3.854-3.854l-14.9-14.9a2.744,2.744,0,0,0-3.853,0Zm-13.826-71.267a5.82,5.82,0,0,0-5.814,5.814v6.763h11.627v-6.763a5.816,5.816,0,0,0-5.813-5.814Z"/></g></svg>