<svg xmlns="http://www.w3.org/2000/svg" width="117.267" height="120" viewBox="0 0 117.267 120"><defs><style>.a{fill:#581;}</style></defs><g transform="translate(-1073.66 -1392.387)"><path class="a" d="M1186.776,1392.392c-83.81,0-78.233-.022-79.427.028a35.2,35.2,0,0,0-13.94,66.788H1085.6a7.98,7.98,0,0,0,0,15.961h2.1a7.978,7.978,0,0,0,0,8.857h-2.1a7.979,7.979,0,1,0,0,15.959h.645a7.989,7.989,0,0,0,6.642,12.4h93.893a4.156,4.156,0,0,0,4.151-4.151V1396.542a4.155,4.155,0,0,0-4.151-4.15ZM1085.6,1471.61a4.422,4.422,0,0,1,0-8.843h47.637a4.422,4.422,0,1,1,0,8.843Zm33.447,12.409h-24.706a4.422,4.422,0,0,1,0-8.844h24.706a7.976,7.976,0,0,0,0,8.844Zm45.54,3.566a4.422,4.422,0,0,1,0,8.843h-47.637a4.422,4.422,0,1,1,0-8.843Zm-78.987,8.843a4.422,4.422,0,0,1,0-8.843H1110.3a7.973,7.973,0,0,0,0,8.843Zm32,12.4h-24.709a4.422,4.422,0,1,1,0-8.844h24.709a7.971,7.971,0,0,0,0,8.844Zm54.276,0h-47.635a4.422,4.422,0,0,1,0-8.844h47.635a4.422,4.422,0,0,1,0,8.844Zm15.5-.593a.594.594,0,0,1-.594.593h-8.27a7.985,7.985,0,0,0-6.638-12.4h-.646a7.965,7.965,0,0,0,0-8.851h2.1a7.979,7.979,0,1,0,0-15.959h-10.373a1.779,1.779,0,1,0,0,3.557h10.373a4.422,4.422,0,0,1,0,8.844h-47.637a4.422,4.422,0,1,1,0-8.844h30.147a1.779,1.779,0,1,0,0-3.557H1139.87a7.98,7.98,0,0,0-6.637-12.41h-8.981a35.257,35.257,0,0,0,14.269-12.7,1.78,1.78,0,1,0-3-1.917,31.634,31.634,0,1,1-24.328-48.561c21.414,1.542,34.491,23.266,27.327,42.544a1.779,1.779,0,0,0,3.337,1.237,35.238,35.238,0,0,0-17.551-43.86h62.469a.594.594,0,0,1,.594.593Zm0,0"/><path class="a" d="M1108.262,1438.631a6.394,6.394,0,0,1-5.038-2.167c-.516-.506-.924-.906-1.451-.906-.947,0-1.76,1.155-1.76,2.1,0,1.68,2.767,4.14,7.06,4.576v3.689a1.779,1.779,0,0,0,3.559,0v-3.817c4.078-.753,6.447-3.672,6.447-8.129,0-10.5-12.483-7.413-12.483-13.394,0-2.967,2.613-3.59,4.8-3.59a7.926,7.926,0,0,1,4.066,1.017,2.779,2.779,0,0,0,1.209.426c1.129,0,1.721-1.369,1.721-2.1,0-1.788-3.159-2.613-5.764-2.811v-4.3a1.779,1.779,0,0,0-3.559,0v4.457c-2.725.494-6.378,2.108-6.378,7.2,0,9.466,12.485,6.142,12.485,13.394,0,2.805-1.747,4.349-4.919,4.349Zm0,0"/><path class="a" d="M1087.881,1412.668a1.779,1.779,0,1,0,2.9,2.064,22.2,22.2,0,0,1,36.406.366c10.844,15.908-2.551,37.177-21.512,34.423a22.184,22.184,0,0,1-17.855-28.939,1.779,1.779,0,0,0-3.379-1.115,25.721,25.721,0,1,0,3.442-6.8Zm0,0"/><path class="a" d="M1181.764,1405.775H1146.3a1.779,1.779,0,1,0,0,3.557h35.463a1.779,1.779,0,1,0,0-3.557Zm0,0"/><path class="a" d="M1181.764,1419.059h-31.312a1.779,1.779,0,1,0,0,3.558h31.312a1.779,1.779,0,1,0,0-3.558Zm0,0"/><path class="a" d="M1179.72,1431.419a1.78,1.78,0,0,0-2.533-.978l-10.569,5.765a1.779,1.779,0,0,0,1.7,3.124l6.4-3.49-8.43,20.142-11.093-7.792a1.782,1.782,0,0,0-2.095.036l-9.041,6.825a1.779,1.779,0,1,0,2.144,2.84l8.006-6.044,11.842,8.318a1.779,1.779,0,0,0,2.664-.769l9.265-22.136,2.1,6.039a1.779,1.779,0,1,0,3.361-1.169Zm0,0"/></g></svg>