<svg xmlns="http://www.w3.org/2000/svg" width="105.468" height="120" viewBox="0 0 105.468 120"><defs><style>.a{fill:#581;}</style></defs><g transform="translate(-391.408 -1048.95)"><path class="a" d="M456.447,1168.95H396.681a5.279,5.279,0,0,1-5.273-5.274v-87.961a5.279,5.279,0,0,1,5.273-5.274h10.1a1.758,1.758,0,1,1,0,3.516h-10.1a1.76,1.76,0,0,0-1.758,1.758v87.961a1.76,1.76,0,0,0,1.758,1.758h59.766a1.76,1.76,0,0,0,1.758-1.758v-40.9h-40.43a5.28,5.28,0,0,1-5.274-5.274v-63.281a5.279,5.279,0,0,1,5.274-5.273h52.734a5.279,5.279,0,0,1,5.274,5.273V1071.8a1.758,1.758,0,0,1-3.516,0v-17.578a1.76,1.76,0,0,0-1.758-1.758H417.775a1.761,1.761,0,0,0-1.758,1.758V1117.5a1.76,1.76,0,0,0,1.758,1.758h52.734a1.759,1.759,0,0,0,1.758-1.758v-38.672a1.758,1.758,0,0,1,1.758-1.757h10.547a1.758,1.758,0,1,1,0,3.515h-8.789v7.031h8.789a1.758,1.758,0,1,1,0,3.516h-8.789v7.031h8.789a1.758,1.758,0,1,1,0,3.516h-8.789v7.031h8.789a1.758,1.758,0,1,1,0,3.516h-8.789v5.273a5.252,5.252,0,0,1-.3,1.758h9.091a1.758,1.758,0,1,1,0,3.516H461.72v7.031h22.852a1.758,1.758,0,1,1,0,3.516H461.72v11.015H491.6a1.76,1.76,0,0,0,1.758-1.758v-77.414a1.76,1.76,0,0,0-1.758-1.758H481.056a1.758,1.758,0,1,1,0-3.516H491.6a5.279,5.279,0,0,1,5.273,5.274v77.414a5.279,5.279,0,0,1-5.273,5.274H461.72V1158.4h19.336a1.76,1.76,0,0,0,1.758-1.758v-3.516a1.758,1.758,0,1,1,3.516,0v3.516a5.279,5.279,0,0,1-5.274,5.273H461.72v1.758a5.279,5.279,0,0,1-5.273,5.274Zm10.547-53.2h-45.7a1.758,1.758,0,0,1-1.758-1.757v-6.106c0-9.033,5.971-11.1,10.332-12.609,3.6-1.245,5.643-2.085,6-4.791a14.7,14.7,0,0,1-6.431-12.151v-7.249a14.7,14.7,0,0,1,29.41,0v7.249a14.7,14.7,0,0,1-6.431,12.151c.36,2.706,2.405,3.546,6,4.791,4.36,1.509,10.331,3.576,10.331,12.609v6.106a1.757,1.757,0,0,1-1.757,1.757Zm-43.946-3.515h42.188v-4.348c0-6.53-3.691-7.808-7.966-9.287-3.159-1.093-6.963-2.41-8.1-6.447a14.723,14.723,0,0,1-10.066,0c-1.132,4.037-4.936,5.354-8.094,6.447-4.275,1.479-7.967,2.757-7.967,9.287Zm21.094-52.337a11.2,11.2,0,0,0-11.189,11.189v7.249a11.189,11.189,0,0,0,22.378,0v-7.249a11.2,11.2,0,0,0-11.189-11.189Zm0,0"/></g></svg>