<svg xmlns="http://www.w3.org/2000/svg" width="106.826" height="120" viewBox="0 0 106.826 120"><defs><style>.a{fill:#581;}</style></defs><g transform="translate(-1080.871 -1048.95)"><path class="a" d="M1119.351,1109.055h-23.632a1.757,1.757,0,0,0,0,3.515h23.632a1.757,1.757,0,1,0,0-3.515Zm0,0"/><path class="a" d="M1119.351,1124.386h-23.632a1.758,1.758,0,0,0,0,3.516h23.632a1.758,1.758,0,1,0,0-3.516Zm0,0"/><path class="a" d="M1119.351,1139.719h-23.632a1.758,1.758,0,0,0,0,3.515h23.632a1.758,1.758,0,1,0,0-3.515Zm0,0"/><path class="a" d="M1139.064,1122.2h3.73a1.758,1.758,0,1,0,0-3.516h-3.73a1.758,1.758,0,0,0,0,3.516Zm0,0"/><path class="a" d="M1154.129,1118.681H1150.4a1.758,1.758,0,0,0,0,3.516h3.732a1.758,1.758,0,0,0,0-3.516Zm0,0"/><path class="a" d="M1165.462,1118.681h-3.731a1.758,1.758,0,0,0,0,3.516h3.731a1.758,1.758,0,0,0,0-3.516Zm0,0"/><path class="a" d="M1176.8,1118.681h-3.731a1.758,1.758,0,0,0,0,3.516h3.731a1.758,1.758,0,0,0,0-3.516Zm0,0"/><path class="a" d="M1139.064,1131.337h3.73a1.758,1.758,0,1,0,0-3.515h-3.73a1.758,1.758,0,1,0,0,3.515Zm0,0"/><path class="a" d="M1154.129,1127.822H1150.4a1.758,1.758,0,1,0,0,3.515h3.732a1.758,1.758,0,1,0,0-3.515Zm0,0"/><path class="a" d="M1165.462,1127.822h-3.731a1.758,1.758,0,0,0,0,3.515h3.731a1.758,1.758,0,1,0,0-3.515Zm0,0"/><path class="a" d="M1176.8,1127.822h-3.731a1.758,1.758,0,0,0,0,3.515h3.731a1.758,1.758,0,1,0,0-3.515Zm0,0"/><path class="a" d="M1139.064,1140.478h3.73a1.758,1.758,0,1,0,0-3.516h-3.73a1.758,1.758,0,0,0,0,3.516Zm0,0"/><path class="a" d="M1154.129,1136.962H1150.4a1.758,1.758,0,0,0,0,3.516h3.732a1.758,1.758,0,0,0,0-3.516Zm0,0"/><path class="a" d="M1165.462,1136.962h-3.731a1.758,1.758,0,0,0,0,3.516h3.731a1.758,1.758,0,0,0,0-3.516Zm0,0"/><path class="a" d="M1176.8,1136.962h-3.731a1.758,1.758,0,0,0,0,3.516h3.731a1.758,1.758,0,0,0,0-3.516Zm0,0"/><path class="a" d="M1099.6,1091.55a1.757,1.757,0,1,0-1.925,2.941,11.763,11.763,0,0,0,6.617,2.255v2.367a1.758,1.758,0,1,0,3.515,0v-2.5a9.49,9.49,0,0,0,7.638-7.826,8.321,8.321,0,0,0-5.731-9.52c-.686-.243-1.318-.475-1.907-.7v-9.831a6.353,6.353,0,0,1,2.817,1.282,1.758,1.758,0,0,0,2.374-2.593,10.036,10.036,0,0,0-5.191-2.249v-2.117a1.758,1.758,0,1,0-3.515,0v2.252q-.519.107-1.063.269a7.861,7.861,0,0,0-5.381,6.169,6.892,6.892,0,0,0,2.248,6.8,19.28,19.28,0,0,0,4.2,2.384v12.3a8.319,8.319,0,0,1-4.692-1.681Zm8.207-9.23.735.262a4.849,4.849,0,0,1,3.436,5.624,6.043,6.043,0,0,1-4.171,4.8Zm-5.542-6.541a3.423,3.423,0,0,1-.962-3.377,4.388,4.388,0,0,1,2.941-3.455l.048-.013v8.107a12.833,12.833,0,0,1-2.027-1.262Zm0,0"/><path class="a" d="M1172.948,1158.6a1.758,1.758,0,0,0-1.757,1.758v1.258a3.819,3.819,0,0,1-3.814,3.813H1088.2a3.819,3.819,0,0,1-3.814-3.813V1056.279a3.819,3.819,0,0,1,3.814-3.814h61.5a4.01,4.01,0,0,1,.551.044v14.7a6.2,6.2,0,0,0,6.2,6.2h14.7a4.022,4.022,0,0,1,.044.551v8.391a1.758,1.758,0,0,0,3.515,0v-8.391a7.649,7.649,0,0,0-2.109-5.144c-.722-.722-17.693-17.7-17.713-17.714l-.04-.041,0,0h0l-.015-.015a7.334,7.334,0,0,0-5.123-2.087h-61.5a7.337,7.337,0,0,0-7.329,7.329v105.34a7.338,7.338,0,0,0,7.329,7.331h79.177a7.339,7.339,0,0,0,7.329-7.331v-1.256a1.758,1.758,0,0,0-1.758-1.758Zm-19.18-103.653,14.937,14.936h-12.257a2.683,2.683,0,0,1-2.68-2.68Zm0,0"/><path class="a" d="M1181.6,1088.835h-47.332a6.11,6.11,0,0,0-6.1,6.1v5.914a1.758,1.758,0,1,0,3.516,0v-5.914a2.588,2.588,0,0,1,2.586-2.586H1181.6a2.588,2.588,0,0,1,2.585,2.586v52.874a2.589,2.589,0,0,1-2.585,2.586h-47.332a2.588,2.588,0,0,1-2.586-2.586v-38.742a1.758,1.758,0,0,0-3.516,0v38.742a6.11,6.11,0,0,0,6.1,6.1H1181.6a6.108,6.108,0,0,0,6.1-6.1v-52.874a6.109,6.109,0,0,0-6.1-6.1Zm0,0"/><path class="a" d="M1178.553,1100.465a3.115,3.115,0,0,0-3.11-3.11h-35.026a3.115,3.115,0,0,0-3.111,3.11v9a3.113,3.113,0,0,0,3.111,3.109h35.026a3.113,3.113,0,0,0,3.11-3.109Zm-3.516,8.59h-34.215v-8.184h34.215Zm0,0"/></g></svg>