<svg xmlns="http://www.w3.org/2000/svg" width="106.848" height="120" viewBox="0 0 106.848 120"><defs><style>.a{fill:#581;}</style></defs><g transform="translate(-737.496 -1048.95)"><path class="a" d="M835.538,1104.371H832.6V1066.42l-17.471-17.47h-65.9v41.33H746.3a8.816,8.816,0,0,0-8.806,8.806v61.057a8.816,8.816,0,0,0,8.806,8.807h89.236a8.816,8.816,0,0,0,8.806-8.807v-44.617c0-4.441-3.512-11.155-8.806-11.155Zm-19.374-49.408,10.426,10.425H816.164Zm-63.405-2.491h59.883v16.439H829.08v35.46H798.218a10.02,10.02,0,0,1-6.235-2.188l-11.18-8.944a13.548,13.548,0,0,0-8.435-2.959H752.759Zm88.063,107.671a5.289,5.289,0,0,1-5.284,5.284H746.3a5.29,5.29,0,0,1-5.285-5.284v-61.057a5.289,5.289,0,0,1,5.285-5.283h26.066a10.023,10.023,0,0,1,6.235,2.186l11.18,8.944a13.55,13.55,0,0,0,8.435,2.959h37.32c2.622,0,5.284,4.441,5.284,7.634Zm0,0"/><path class="a" d="M762.246,1130.384l9.629,3.768a1.33,1.33,0,0,1,.845,1.239v15.3a1.33,1.33,0,0,0,.368.919l.119.124c.2.214,5.148,5.242,17.713,5.242s17.508-5.028,17.712-5.242l.119-.124a1.33,1.33,0,0,0,.368-.919v-15.3a1.331,1.331,0,0,1,.846-1.239l3.445-1.349a1.331,1.331,0,0,1,1.815,1.239V1146.6a1.33,1.33,0,0,0,1.33,1.33h.863a1.329,1.329,0,0,0,1.33-1.33v-14.979a1.329,1.329,0,0,1,.846-1.238h0a1.331,1.331,0,0,0,0-2.478l-28.189-11.03a1.332,1.332,0,0,0-.97,0l-28.189,11.03A1.33,1.33,0,0,0,762.246,1130.384ZM805.6,1149a1.322,1.322,0,0,1-.6,1.113c-1.874,1.216-6.261,3.333-14.075,3.333s-12.209-2.12-14.076-3.33a1.324,1.324,0,0,1-.6-1.113v-11.2a1.331,1.331,0,0,1,1.815-1.239l12.377,4.843a1.328,1.328,0,0,0,.969,0l12.377-4.843a1.33,1.33,0,0,1,1.815,1.239Zm-15.161-11.372-18.522-7.248a1.33,1.33,0,0,1,0-2.478l18.522-7.247a1.328,1.328,0,0,1,.969,0l18.523,7.247a1.331,1.331,0,0,1,0,2.478l-18.522,7.248A1.331,1.331,0,0,1,790.435,1137.632Zm.485.19"/><path class="a" d="M784.931,1081.944a13.434,13.434,0,0,0-6.567-11.59.012.012,0,0,1-.005-.015,7.584,7.584,0,0,0,.7-3.19V1065a7.633,7.633,0,1,0-15.264-.195v2.348a7.6,7.6,0,0,0,.7,3.19.011.011,0,0,1-.005.015,13.438,13.438,0,0,0-6.567,11.59v3.522a.587.587,0,0,0,.588.587h25.831a.587.587,0,0,0,.587-.587ZM767.319,1064.8a4.114,4.114,0,0,1,4.307-4.1,4.2,4.2,0,0,1,3.912,4.234v2.09a4.2,4.2,0,0,1-3.912,4.235,4.116,4.116,0,0,1-4.307-4.106Zm13.5,17.73H762.035a.587.587,0,0,1-.587-.587h0a9.932,9.932,0,0,1,5.26-8.8.011.011,0,0,1,.013,0,7.607,7.607,0,0,0,9.416,0,.011.011,0,0,1,.013,0,9.933,9.933,0,0,1,5.259,8.8h0A.587.587,0,0,1,780.822,1082.531Zm.587,0"/><rect class="a" width="31.467" height="3.523" rx="1.761" transform="translate(791.86 1075.251)"/><rect class="a" width="16.438" height="3.522" rx="1.761" transform="translate(791.86 1068.206)"/><rect class="a" width="16.438" height="3.522" rx="1.761" transform="translate(791.86 1061.161)"/><rect class="a" width="31.467" height="3.523" rx="1.761" transform="translate(791.86 1082.296)"/><rect class="a" width="22.074" height="3.522" rx="1.761" transform="translate(791.86 1089.341)"/></g></svg>