<svg xmlns="http://www.w3.org/2000/svg" width="88.581" height="120" viewBox="0 0 88.581 120"><defs><style>.a{fill:#581;}</style></defs><g transform="translate(-746.305 -1736.149)"><path class="a" d="M782.633,1762.136c-6.6,21.546-6.532,21.18-6.532,21.405,0,1.63,3.779,2.617,4.221.938l1.273-4.455h7.671l1.273,4.455c.449,1.709,4.22.648,4.22-.938a1.44,1.44,0,0,0-.067-.335l-6.465-21.07C787.639,1760.175,783.227,1760.156,782.633,1762.136Zm5.7,14.471H782.5l2.914-10.283Z"/><path class="a" d="M802.5,1770.578a1.674,1.674,0,0,0-1.809,1.373v3.551H797.1c-1.738,0-1.844,3.584,0,3.584h3.584v3.584c0,.8.8,1.34,1.809,1.34,1.072,0,1.775-.536,1.775-1.34v-3.584h3.551a1.617,1.617,0,0,0,1.407-1.776,1.7,1.7,0,0,0-1.407-1.809h-3.551v-3.55A1.592,1.592,0,0,0,802.5,1770.578Z"/><path class="a" d="M794.514,1750.511c4.907.066,8.692.818,11.252,2.238a1.764,1.764,0,0,0,1.711-3.086c-3.812-2.113-8.927-2.682-13.269-2.682a26.026,26.026,0,1,0,0,52.051c31.693,0,30.753-51.824-4.18-45.292a1.764,1.764,0,0,0,.648,3.468c28.338-5.3,29.984,33.931,7.517,37.944a22.751,22.751,0,0,1-3.985.352,22.5,22.5,0,1,1,.307-44.993Z"/><path class="a" d="M768.608,1753.266H757.495a1.764,1.764,0,1,0,0,3.528h11.113a1.764,1.764,0,1,0,0-3.528Z"/><path class="a" d="M757.495,1770.286h5.556a1.764,1.764,0,1,0,0-3.528h-5.556a1.764,1.764,0,1,0,0,3.528Z"/><path class="a" d="M757.495,1783.777h6.537a1.764,1.764,0,1,0,0-3.528h-6.537a1.764,1.764,0,1,0,0,3.528Z"/><path class="a" d="M757.495,1797.269h13.728a1.764,1.764,0,0,0,0-3.528H757.495a1.764,1.764,0,0,0,0,3.528Z"/><path class="a" d="M757.495,1810.76h56.546a1.764,1.764,0,1,0,0-3.528H757.495a1.764,1.764,0,1,0,0,3.528Z"/><path class="a" d="M757.495,1824.252h56.546a1.764,1.764,0,1,0,0-3.528H757.495a1.764,1.764,0,1,0,0,3.528Z"/><path class="a" d="M757.495,1837.744h39.549a1.765,1.765,0,0,0,0-3.529H757.495a1.765,1.765,0,0,0,0,3.529Z"/><path class="a" d="M832.153,1743.72h-5.577v-4.84a2.734,2.734,0,0,0-2.733-2.731H749.036a2.735,2.735,0,0,0-2.731,2.731v77.733a1.764,1.764,0,0,0,3.528,0v-76.936h73.215v36.436a1.764,1.764,0,0,0,3.528,0v-28.865h4.782v105.373H758.143v-4.043c53.889-.2,51.567.472,52.557-.525l8.34-8.44c7.45-7.54,7.536-7.33,7.536-8.349v-48.1a1.764,1.764,0,0,0-3.528,0V1829.5h-13.6a1.763,1.763,0,0,0-1.764,1.764v13.785H749.833v-21.381a1.764,1.764,0,0,0-3.528,0v22.176a2.737,2.737,0,0,0,2.731,2.733h5.579v4.84a2.734,2.734,0,0,0,2.733,2.731h74.8a2.734,2.734,0,0,0,2.733-2.731V1746.453A2.735,2.735,0,0,0,832.153,1743.72Zm-20.944,89.309h9.379l-9.379,9.489Z"/></g></svg>