<svg xmlns="http://www.w3.org/2000/svg" width="92.11" height="120" viewBox="0 0 92.11 120"><defs><style>.a{fill:#581;}</style></defs><g transform="translate(346.18 39.941)"><path class="a" d="M-255.828-.715a1.759,1.759,0,0,0,1.758-1.758V-14.746a5.279,5.279,0,0,0-5.274-5.273H-261.1v-4.688a5.278,5.278,0,0,0-5.273-5.273h-1.758v-4.688a5.278,5.278,0,0,0-5.273-5.273h-67.5a5.279,5.279,0,0,0-5.274,5.273v9.695a1.758,1.758,0,0,0,1.758,1.758,1.758,1.758,0,0,0,1.758-1.758v-9.695a1.76,1.76,0,0,1,1.758-1.758h67.5a1.76,1.76,0,0,1,1.758,1.758V54.863a1.76,1.76,0,0,1-1.758,1.758h-67.5a1.759,1.759,0,0,1-1.758-1.758V-17.473a1.759,1.759,0,0,0-1.758-1.758,1.759,1.759,0,0,0-1.758,1.758V54.863a5.28,5.28,0,0,0,5.274,5.274h1.758v4.687a5.279,5.279,0,0,0,5.273,5.274h1.758v4.687a5.279,5.279,0,0,0,5.273,5.274h67.5a5.28,5.28,0,0,0,5.274-5.274V4.983a1.759,1.759,0,0,0-1.758-1.758,1.759,1.759,0,0,0-1.758,1.758v69.8a1.759,1.759,0,0,1-1.758,1.758h-67.5a1.76,1.76,0,0,1-1.758-1.758V70.1h43.445A1.758,1.758,0,0,0-283.4,68.34a1.758,1.758,0,0,0-1.758-1.758h-48.718a1.76,1.76,0,0,1-1.758-1.758V60.137h62.227a5.279,5.279,0,0,0,5.273-5.274V-26.465h1.758a1.76,1.76,0,0,1,1.758,1.758V64.824a1.76,1.76,0,0,1-1.758,1.758H-277.7a1.758,1.758,0,0,0-1.758,1.758A1.758,1.758,0,0,0-277.7,70.1h11.324a5.279,5.279,0,0,0,5.273-5.274V-16.5h1.758a1.76,1.76,0,0,1,1.758,1.758V-2.473a1.759,1.759,0,0,0,1.758,1.758Zm0,0"/><path class="a" d="M-334.344-10.879V1.309a2.7,2.7,0,0,0,2.7,2.7h12.187a2.7,2.7,0,0,0,2.7-2.7V-7.756l3.6-3.075a1.757,1.757,0,0,0,.2-2.478,1.757,1.757,0,0,0-2.478-.195l-1.622,1.385a2.7,2.7,0,0,0-2.393-1.455h-12.187a2.7,2.7,0,0,0-2.7,2.7Zm3.516.82h10.547v.682L-323.769-6.4l-1.666-1.8a1.759,1.759,0,0,0-2.484-.1,1.759,1.759,0,0,0-.1,2.484l2.812,3.047a1.759,1.759,0,0,0,2.433.144l2.492-2.126V.488h-10.547Zm0,0"/><path class="a" d="M-281.727-10.762h-28.125A1.758,1.758,0,0,0-311.609-9a1.758,1.758,0,0,0,1.757,1.758h28.125A1.759,1.759,0,0,0-279.969-9a1.759,1.759,0,0,0-1.758-1.758Zm0,0"/><path class="a" d="M-281.727-3.262h-28.125A1.758,1.758,0,0,0-311.609-1.5,1.758,1.758,0,0,0-309.852.254h28.125A1.759,1.759,0,0,0-279.969-1.5a1.759,1.759,0,0,0-1.758-1.758Zm0,0"/><path class="a" d="M-334.344,24.043a2.7,2.7,0,0,0,2.7,2.7h12.187a2.7,2.7,0,0,0,2.7-2.7V11.856a2.7,2.7,0,0,0-2.7-2.7h-12.187a2.7,2.7,0,0,0-2.7,2.7Zm3.516-11.367h10.547V23.223h-10.547Zm0,0"/><path class="a" d="M-281.727,11.973h-28.125a1.758,1.758,0,0,0-1.757,1.758,1.757,1.757,0,0,0,1.757,1.757h28.125a1.758,1.758,0,0,0,1.758-1.757,1.758,1.758,0,0,0-1.758-1.758Zm0,0"/><path class="a" d="M-281.727,19.473h-28.125a1.758,1.758,0,0,0-1.757,1.758,1.757,1.757,0,0,0,1.757,1.757h28.125a1.758,1.758,0,0,0,1.758-1.757,1.758,1.758,0,0,0-1.758-1.758Zm0,0"/><path class="a" d="M-334.344,46.777a2.7,2.7,0,0,0,2.7,2.7h12.187a2.7,2.7,0,0,0,2.7-2.7V34.59a2.7,2.7,0,0,0-2.7-2.695h-12.187a2.7,2.7,0,0,0-2.7,2.695Zm3.516-11.367h10.547V45.957h-10.547Zm0,0"/><path class="a" d="M-281.727,34.707h-28.125a1.758,1.758,0,0,0-1.757,1.758,1.758,1.758,0,0,0,1.757,1.758h28.125a1.759,1.759,0,0,0,1.758-1.758,1.759,1.759,0,0,0-1.758-1.758Zm0,0"/><path class="a" d="M-281.727,42.207h-28.125a1.758,1.758,0,0,0-1.757,1.758,1.758,1.758,0,0,0,1.757,1.758h28.125a1.759,1.759,0,0,0,1.758-1.758,1.759,1.759,0,0,0-1.758-1.758Zm0,0"/><path class="a" d="M-290.633-31.621h-32.344a5.865,5.865,0,0,0-5.859,5.859,5.865,5.865,0,0,0,5.859,5.86h32.344a5.866,5.866,0,0,0,5.86-5.86,5.866,5.866,0,0,0-5.86-5.859Zm0,8.2h-32.344a2.346,2.346,0,0,1-2.343-2.344,2.346,2.346,0,0,1,2.343-2.343h32.344a2.346,2.346,0,0,1,2.344,2.343,2.346,2.346,0,0,1-2.344,2.344Zm0,0"/></g></svg>