<svg xmlns="http://www.w3.org/2000/svg" width="98.954" height="120" viewBox="0 0 98.954 120"><defs><style>.a{fill:#581;}</style></defs><g transform="translate(-1421.544 -1392.387)"><path class="a" d="M1476.407,1417.547a4.5,4.5,0,0,0-4.5,4.5v11.59l-1.86-1.861a4.5,4.5,0,0,0-6.362,6.363l9.54,9.539a4.5,4.5,0,0,0,6.362,0l9.54-9.539a4.5,4.5,0,0,0,0-6.363h0a4.5,4.5,0,0,0-6.361,0l-1.861,1.861v-11.59A4.5,4.5,0,0,0,1476.407,1417.547Zm8.845,16.715a.983.983,0,0,1,1.39,1.39l-9.54,9.54a.985.985,0,0,1-1.39,0l-9.54-9.54a.983.983,0,0,1,1.39-1.39l4.861,4.861a1.76,1.76,0,0,0,3-1.243v-15.834a.983.983,0,0,1,1.966,0v15.834a1.759,1.759,0,0,0,3,1.243Z"/><path class="a" d="M1504.059,1454.541v-9.991a4.5,4.5,0,1,0-9,0v8.895h-37.31v-8.895a4.5,4.5,0,1,0-9,0v9.992a7.911,7.911,0,0,0,7.9,7.9h39.5A7.911,7.911,0,0,0,1504.059,1454.541Zm-51.788,0v-9.991a.982.982,0,1,1,1.965,0v9.991a2.423,2.423,0,0,0,2.42,2.42h39.5a2.422,2.422,0,0,0,2.419-2.42v-9.991a.983.983,0,1,1,1.966,0v9.991a4.391,4.391,0,0,1-4.385,4.386h-39.5A4.39,4.39,0,0,1,1452.271,1454.541Z"/><path class="a" d="M1489.551,1477.065a1.758,1.758,0,0,0-1.758-1.758h-22.772a1.758,1.758,0,1,0,0,3.516h22.772A1.758,1.758,0,0,0,1489.551,1477.065Z"/><path class="a" d="M1470.22,1484.113a1.758,1.758,0,0,0,0,3.516h12.374a1.758,1.758,0,1,0,0-3.516Z"/><path class="a" d="M1515.093,1392.387h-34.584a1.758,1.758,0,1,0,0,3.516h34.584a1.892,1.892,0,0,1,1.89,1.889v50.493a1.758,1.758,0,1,0,3.515,0v-50.493A5.411,5.411,0,0,0,1515.093,1392.387Z"/><path class="a" d="M1518.74,1454.731a1.757,1.757,0,0,0-1.757,1.758v27.937h-19.041a5.411,5.411,0,0,0-5.405,5.405v19.04H1439.7a1.892,1.892,0,0,1-1.89-1.889v-109.19a1.892,1.892,0,0,1,1.89-1.889h32.609a1.758,1.758,0,0,0,0-3.516h-45.356a5.412,5.412,0,0,0-5.405,5.405v109.19a5.412,5.412,0,0,0,5.405,5.4h67.374a1.768,1.768,0,0,0,1.215-.514l24.445-24.445a1.767,1.767,0,0,0,.515-1.243v-29.695A1.758,1.758,0,0,0,1518.74,1454.731Zm-84.109,54.14h-7.682a1.891,1.891,0,0,1-1.889-1.889v-109.19a1.891,1.891,0,0,1,1.889-1.889h7.682a5.524,5.524,0,0,0-.34,1.889v109.19A5.475,5.475,0,0,0,1434.631,1508.871Zm61.422-2.486v-16.554a1.891,1.891,0,0,1,1.889-1.89H1514.5Z"/></g></svg>