<svg xmlns="http://www.w3.org/2000/svg" width="116.468" height="120" viewBox="0 0 116.468 120"><defs><style>.a{fill:#581;}</style></defs><g transform="translate(-386.302 -1736.387)"><path class="a" d="M469.885,1790.154H412.75a1.758,1.758,0,1,0,0,3.516h57.136a1.758,1.758,0,1,0,0-3.516Zm0,0"/><path class="a" d="M469.885,1779.175H412.75a1.758,1.758,0,1,0,0,3.516h57.136a1.758,1.758,0,1,0,0-3.516Zm0,0"/><path class="a" d="M418.363,1755.292h3.026a1.758,1.758,0,1,0,0-3.516h-3.026a6.8,6.8,0,0,0-6.062,3.592,10.933,10.933,0,0,0-.009,10.328,6.8,6.8,0,0,0,6.063,3.571h3.671a1.758,1.758,0,1,0,0-3.516h-3.669a3.324,3.324,0,0,1-3.021-1.814,7.424,7.424,0,0,1,.01-6.813,3.328,3.328,0,0,1,3.017-1.832Zm0,0"/><path class="a" d="M430.218,1767.825a2.23,2.23,0,0,0,2.013,1.446h.021a2.206,2.206,0,0,0,2.017-1.417c.02-.043.037-.089.053-.135l4.718-13.61a1.758,1.758,0,0,0-3.322-1.151l-3.467,10.005-3.469-10.005a1.758,1.758,0,0,0-3.322,1.151l4.718,13.61c.012.037.025.071.04.106Zm0,0"/><path class="a" d="M435.482,1826.614a1.758,1.758,0,0,0,0-3.515H412.75a1.758,1.758,0,1,0,0,3.515Zm0,0"/><path class="a" d="M484.995,1817.019a1.759,1.759,0,0,0-2.477.22L469.661,1832.6l-6.075-5.162a1.758,1.758,0,1,0-2.277,2.678l7.425,6.31a1.748,1.748,0,0,0,1.138.418c.049,0,.1,0,.15-.006a1.751,1.751,0,0,0,1.2-.624l13.994-16.717a1.759,1.759,0,0,0-.219-2.476Zm0,0"/><path class="a" d="M494.359,1807.207a28.664,28.664,0,0,0-11.032-6.9v-14.849a1.757,1.757,0,1,0-3.515,0v13.894a28.985,28.985,0,0,0-5.806-.585,28.69,28.69,0,0,0-11.463,2.369H412.75a1.758,1.758,0,1,0,0,3.515h43.818a29.442,29.442,0,0,0-2.915,2.551v0a28.857,28.857,0,0,0-3.933,4.911H412.75a1.758,1.758,0,1,0,0,3.515h35.067a29,29,0,0,0,.516,24.965h-47.6V1739.9h61.992l-.011,8.9a7.418,7.418,0,0,0,7.411,7.41h9.688v21.144a1.757,1.757,0,1,0,3.515,0l-.006-22.583a2.623,2.623,0,0,0-1.036-2.063c-.082-.077-15.684-14.976-15.684-14.976l-.239-.228a3.008,3.008,0,0,0-2.243-1.116H400.382a3.17,3.17,0,0,0-3.166,3.167v6.7h-7.75a3.168,3.168,0,0,0-3.164,3.165v46.733a1.758,1.758,0,0,0,3.516,0v-46.383h7.4v91.177a3.168,3.168,0,0,0,3.166,3.165h50.055a28.766,28.766,0,0,0,3.216,3.836,29.261,29.261,0,0,0,2.872,2.519H389.818v-46.2a1.758,1.758,0,0,0-3.516,0v46.547a3.169,3.169,0,0,0,3.164,3.166h73a28.811,28.811,0,0,0,31.894-46.779Zm-28.122-64.963,10.944,10.449h-7.057a3.9,3.9,0,0,1-3.895-3.892Zm25.635,103.222a25.306,25.306,0,0,1-28.162,5.225,1.681,1.681,0,0,0-.229-.1,25.328,25.328,0,0,1-11.42-35.542,1.76,1.76,0,0,0,.347-.592,25.369,25.369,0,0,1,11.144-9.911,1.6,1.6,0,0,0,.23-.106,25.451,25.451,0,0,1,17.24-1.163c.027.009.055.017.082.024a25.313,25.313,0,0,1,10.768,42.17Zm0,0"/></g></svg>