<svg xmlns="http://www.w3.org/2000/svg" width="119.551" height="120" viewBox="0 0 119.551 120"><defs><style>.a{fill:#581;}</style></defs><g transform="translate(-733.494 -1392.387)"><path class="a" d="M826.018,1450.067v-2.544h1.63a5.527,5.527,0,0,0,0-11.055H815.97a5.489,5.489,0,0,0-3.185,1.014V1398.1a5.716,5.716,0,0,0-5.712-5.709H739.205a5.716,5.716,0,0,0-5.711,5.709v108.582a5.716,5.716,0,0,0,5.711,5.709h67.868a5.708,5.708,0,0,0,4.286-1.938,31.234,31.234,0,1,0,14.659-60.382Zm-10.048-10.049h11.678a1.978,1.978,0,0,1,0,3.955H815.97a1.978,1.978,0,0,1,0-3.955Zm6.5,7.505v2.265c-.439-.009-.879-.009-1.316,0v-2.265Zm-9.682-1.015a5.484,5.484,0,0,0,3.185,1.015H817.6v2.542a31.047,31.047,0,0,0-4.816,1.039Zm30.5,51.98c-14.581,17.922-43.307,11.035-48.445-11.223a1.775,1.775,0,1,0-3.459.8,31.108,31.108,0,0,0,16.144,20.724c-.339.072,3.531.048-68.318.048a2.16,2.16,0,0,1-2.16-2.159V1398.1a2.16,2.16,0,0,1,2.16-2.159h67.868a2.161,2.161,0,0,1,2.161,2.159v54.317a31.244,31.244,0,0,0-18.658,28.187,1.775,1.775,0,1,0,3.55.045,27.685,27.685,0,1,1,49.157,17.843Zm0,0"/><path class="a" d="M842.377,1465.772a25.6,25.6,0,1,0-5.322,35.813,25.589,25.589,0,0,0,5.322-35.813Zm-7.436,32.961a22.052,22.052,0,1,1,4.583-30.847,22.078,22.078,0,0,1-4.583,30.847Zm0,0"/><path class="a" d="M821.81,1467.621a1.775,1.775,0,0,0,1.774-1.776v-3.861a1.775,1.775,0,1,0-3.55,0v3.861a1.775,1.775,0,0,0,1.776,1.776Zm0,0"/><path class="a" d="M832.213,1463a1.774,1.774,0,0,0-2.425.649l-1.93,3.344a1.775,1.775,0,1,0,3.074,1.775l1.931-3.344a1.775,1.775,0,0,0-.65-2.424Zm0,0"/><path class="a" d="M835.836,1474.969l3.343-1.93a1.775,1.775,0,0,0-1.775-3.075l-3.344,1.93a1.775,1.775,0,0,0,1.776,3.075Zm0,0"/><path class="a" d="M840.842,1479.242h-3.861a1.776,1.776,0,0,0,0,3.551h3.861a1.776,1.776,0,0,0,0-3.551Zm0,0"/><path class="a" d="M839.179,1489l-3.343-1.93a1.775,1.775,0,1,0-1.776,3.075l3.344,1.93a1.775,1.775,0,0,0,1.775-3.075Zm0,0"/><path class="a" d="M830.932,1493.269a1.775,1.775,0,1,0-3.074,1.775l1.93,3.343a1.775,1.775,0,1,0,3.075-1.775Zm0,0"/><path class="a" d="M821.81,1494.413a1.775,1.775,0,0,0-1.776,1.776v3.86a1.775,1.775,0,1,0,3.55,0v-3.86a1.775,1.775,0,0,0-1.774-1.776Zm0,0"/><path class="a" d="M815.111,1492.619a1.774,1.774,0,0,0-2.425.649l-1.93,3.344a1.775,1.775,0,1,0,3.075,1.775l1.93-3.344a1.775,1.775,0,0,0-.65-2.424Zm0,0"/><path class="a" d="M807.783,1487.066l-3.344,1.93a1.777,1.777,0,0,0,.889,3.313c.631,0,.637-.095,4.23-2.168a1.775,1.775,0,0,0-1.775-3.075Zm0,0"/><path class="a" d="M808.413,1481.017a1.775,1.775,0,0,0-1.775-1.775h-3.861a1.776,1.776,0,0,0,0,3.551h3.861a1.776,1.776,0,0,0,1.775-1.776Zm0,0"/><path class="a" d="M804.439,1473.039c3.635,2.1,3.608,2.168,4.229,2.168a1.777,1.777,0,0,0,.89-3.313l-3.343-1.93a1.775,1.775,0,1,0-1.776,3.075Zm0,0"/><path class="a" d="M813.831,1463.647a1.775,1.775,0,0,0-3.075,1.775l1.93,3.344a1.775,1.775,0,1,0,3.075-1.775Zm0,0"/><path class="a" d="M828.065,1474.926a1.775,1.775,0,0,0-2.99-1.915L823.162,1476a5.2,5.2,0,1,0,2.908,2.043Zm-5.271,7.418a1.653,1.653,0,1,1-1-2.981,1.652,1.652,0,0,1,1,2.981Zm0,0"/><path class="a" d="M746.109,1407.823h54.06a1.776,1.776,0,1,0,0-3.551h-54.06a1.776,1.776,0,0,0,0,3.551Zm0,0"/><path class="a" d="M769.3,1413.139a1.775,1.775,0,0,0,0,3.551H785.4a1.775,1.775,0,0,0,0-3.551Zm0,0"/><path class="a" d="M746.109,1416.69H762.2a1.775,1.775,0,0,0,0-3.551H746.109a1.775,1.775,0,0,0,0,3.551Zm0,0"/><path class="a" d="M787.53,1432.035H746.109a1.775,1.775,0,1,0,0,3.55H787.53a1.775,1.775,0,1,0,0-3.55Zm0,0"/><path class="a" d="M800.169,1432.035h-5.538a1.775,1.775,0,1,0,0,3.55h5.538a1.775,1.775,0,1,0,0-3.55Zm0,0"/><path class="a" d="M746.109,1444.452h15.409a1.775,1.775,0,0,0,0-3.55H746.109a1.775,1.775,0,0,0,0,3.55Zm0,0"/><path class="a" d="M784.8,1459.8H746.109a1.776,1.776,0,0,0,0,3.551H784.8a1.776,1.776,0,0,0,0-3.551Zm0,0"/><path class="a" d="M746.109,1472.216h14.2a1.775,1.775,0,0,0,0-3.551h-14.2a1.775,1.775,0,0,0,0,3.551Zm0,0"/><path class="a" d="M781.613,1468.665h-14.2a1.775,1.775,0,0,0,0,3.551h14.2a1.775,1.775,0,0,0,0-3.551Zm0,0"/><path class="a" d="M773.293,1480.02l-19.039,17.327-6.423-9.551a1.775,1.775,0,0,0-2.946,1.981l6.5,9.67a3.427,3.427,0,0,0,5.15.622l19.146-17.423a1.776,1.776,0,1,0-2.391-2.626Zm0,0"/></g></svg>