<svg xmlns="http://www.w3.org/2000/svg" width="119.577" height="120" viewBox="0 0 119.577 120"><defs><style>.a{fill:#581;}</style></defs><g transform="translate(470.613 -63)"><path class="a" d="M-416.419,92.032a1.936,1.936,0,0,1-1.936,1.936,1.936,1.936,0,0,1-1.935-1.936,1.936,1.936,0,0,1,1.935-1.935,1.936,1.936,0,0,1,1.936,1.935Zm0,0"/><path class="a" d="M-400.935,92.032a1.937,1.937,0,0,1-1.936,1.936,1.936,1.936,0,0,1-1.935-1.936,1.936,1.936,0,0,1,1.935-1.935,1.937,1.937,0,0,1,1.936,1.935Zm0,0"/><path class="a" d="M-408.677,105.581h-7.742v3.871h7.742a7.751,7.751,0,0,0,7.742-7.742h-3.871a3.876,3.876,0,0,1-3.871,3.871Zm0,0"/><rect class="a" width="3.871" height="7.742" transform="translate(-412.548 90.097)"/><rect class="a" width="3.871" height="3.871" transform="translate(-462.871 144.29)"/><rect class="a" width="11.613" height="3.871" transform="translate(-455.129 144.29)"/><rect class="a" width="19.355" height="3.871" transform="translate(-462.871 152.032)"/><rect class="a" width="19.355" height="3.871" transform="translate(-462.871 159.774)"/><path class="a" d="M-372.47,162.277l-2.737,2.737,7.335,7.334,16.836-21.042-3.025-2.419-14.131,17.668Zm0,0"/><path class="a" d="M-358.355,175.258H-377.71V155.9H-366.1v-3.871h-15.484v11.613h-19.354V161.71a9.689,9.689,0,0,0-.433-2.863,46.529,46.529,0,0,0,37.207-45.524,46.225,46.225,0,0,0-25.23-41.315A21.278,21.278,0,0,0-406.76,63h-6.979a17.2,17.2,0,0,0-13.972,7.138,46.722,46.722,0,0,0-29.354,43.185,46.184,46.184,0,0,0,6.218,23.225h-15.9a3.876,3.876,0,0,0-3.871,3.871v34.839a3.875,3.875,0,0,0,3.871,3.871h27.1a3.875,3.875,0,0,0,3.871-3.871v-7.742h15.484v9.678A5.812,5.812,0,0,0-414.484,183h7.742a5.813,5.813,0,0,0,5.807-5.806v-9.678h19.354v11.613h27.1V163.645h-3.871Zm-46.451-13.548v1.935h-11.613V161.71a5.793,5.793,0,0,1,.474-2.272,47.376,47.376,0,0,0,5.332.336,46.858,46.858,0,0,0,5.34-.315,5.792,5.792,0,0,1,.467,2.251Zm36.774-48.387a42.629,42.629,0,0,1-42.581,42.58,42.149,42.149,0,0,1-25.161-8.258V142.68a38.514,38.514,0,0,0,25.161,9.352,38.753,38.753,0,0,0,38.71-38.709,38.567,38.567,0,0,0-13.568-29.416,21.232,21.232,0,0,0-.846-5.568,42.342,42.342,0,0,1,18.285,34.984Zm-60-11.613a3.875,3.875,0,0,1-3.871-3.871,3.875,3.875,0,0,1,3.871-3.871ZM-435.3,88.764l.931,4.658a7.68,7.68,0,0,0-1.4,4.417,7.751,7.751,0,0,0,7.742,7.742h.155a13.568,13.568,0,0,0,8.707,10.761l-.747,2.993a23.552,23.552,0,0,0-18.323,15.129,34.622,34.622,0,0,1-7.212-21.141A34.687,34.687,0,0,1-435.3,88.764Zm42.111,5.2a3.875,3.875,0,0,1,3.871,3.871,3.875,3.875,0,0,1-3.871,3.871Zm-.154,11.613h.154a7.751,7.751,0,0,0,7.742-7.742,7.684,7.684,0,0,0-1.4-4.419l.931-4.659a34.691,34.691,0,0,1,10.148,24.562,34.617,34.617,0,0,1-7.211,21.139,23.564,23.564,0,0,0-18.323-15.13l-.748-2.992a13.563,13.563,0,0,0,8.708-10.759Zm-21.136,11.613h7.742c.3,0,.6-.026.9-.045l.782,3.129-5.642,4.174-5.464-4.156.788-3.149c.3.021.6.047.9.047Zm13.076,6.037-.972,4.857-4.387-1.736,4.412-3.263c.316.047.636.084.947.142Zm-8.773,9.446h-1.081l-1.027-3.083,1.578-.639,1.565.62Zm-4.419-6.325-4.25,1.721-.968-4.841c.308-.058.622-.1.933-.137Zm-8.944-2.009,1.813,9.068,5.846-2.363,1.217,3.648-3.091,12.72a34.794,34.794,0,0,1-17.475-9.473,19.638,19.638,0,0,1,11.69-13.6Zm12.408,12.205h.848l2.943,11.447c-1.077.1-2.164.166-3.268.166s-2.214-.064-3.3-.166Zm7.641,10.877-3.275-12.74,1.228-3.683,6.048,2.394,1.809-9.053a19.641,19.641,0,0,1,11.693,13.6,34.776,34.776,0,0,1-17.5,9.479Zm6.43-43.78a9.687,9.687,0,0,1-9.677,9.678h-7.742a9.688,9.688,0,0,1-9.677-9.678V88.161a5.812,5.812,0,0,1,5.806-5.806h1.03a11.583,11.583,0,0,0,8.648,3.871H-399a1.938,1.938,0,0,1,1.935,1.935Zm-16.674-36.774h6.979a17.458,17.458,0,0,1,17.437,17.437,17.437,17.437,0,0,1-.339,3.42l-.592,2.957a7.678,7.678,0,0,0-2.94-.588V88.161A5.812,5.812,0,0,0-399,82.355h-9.677a7.751,7.751,0,0,1-7.742-7.742h-3.871a11.59,11.59,0,0,0,.69,3.95,9.693,9.693,0,0,0-8.432,9.6V90.1a7.7,7.7,0,0,0-2.943.588l-.729-3.654a10.4,10.4,0,0,1-.2-2.015,10.244,10.244,0,0,1,4.574-8.547l.871-.581.224-.559a13.394,13.394,0,0,1,12.495-8.458Zm-39.455,46.452a42.87,42.87,0,0,1,19.6-35.813,14.061,14.061,0,0,0-2.109,6.353,38.567,38.567,0,0,0-13.621,29.46,38.456,38.456,0,0,0,7.816,23.225h-4.771a42.338,42.338,0,0,1-6.916-23.225Zm-13.548,61.935V140.419h27.1l0,34.839Zm30.968-11.613V152.379a45.775,45.775,0,0,0,15.925,6.446,9.678,9.678,0,0,0-.441,2.885v1.935Zm30.968,13.549a1.939,1.939,0,0,1-1.936,1.935h-7.742a1.938,1.938,0,0,1-1.935-1.935v-9.678h11.613Zm0,0"/><rect class="a" width="19.355" height="3.871" transform="translate(-462.871 167.516)"/></g></svg>