<svg xmlns="http://www.w3.org/2000/svg" width="119.295" height="120" viewBox="0 0 119.295 120"><defs><style>.a{fill:#581;}</style></defs><path class="a" d="M1191.9,1795.277a5.557,5.557,0,0,0-5.552-5.55h-31.76v-22.7l13.1-4.649a1.763,1.763,0,1,0-1.18-3.323c-20.9,7.417-9.382,3.333-19.615,6.964v-25.94l36.542,12.968-10.28,3.651a1.763,1.763,0,0,0,1.177,3.323l11.272-4a3.152,3.152,0,0,0,0-5.941c-41.108-14.59-38.3-13.681-39.087-13.681a3.156,3.156,0,0,0-3.149,3.154v50.175H1135.1a1.762,1.762,0,1,0,0,3.525h51.244a2.027,2.027,0,0,1,2.025,2.025v15.494h-67.16v-15.494a2.028,2.028,0,0,1,2.026-2.025h4.813a1.762,1.762,0,1,0,0-3.525h-4.813a5.557,5.557,0,0,0-5.552,5.55v15.494h-16.991a5.56,5.56,0,0,0-5.551,5.552v15.5h-16.99a5.554,5.554,0,0,0-5.551,5.55v13.466a5.557,5.557,0,0,0,5.551,5.552h7.133a1.762,1.762,0,1,0,0-3.525h-7.133a2.026,2.026,0,0,1-2.026-2.027v-13.466a2.025,2.025,0,0,1,2.026-2.026h110.219v15.492a2.028,2.028,0,0,1-2.026,2.027h-94.009a1.762,1.762,0,1,0,0,3.525h94.009a5.558,5.558,0,0,0,5.551-5.552c0-1.94,0-53.216,0-55.558Zm-40.837-5.552h-4.172v-20.047c.464-.053.375-.049,4.172-1.4Zm37.312,42.094h-89.7v-15.5a2.029,2.029,0,0,1,2.027-2.026h87.677Zm0,0" transform="translate(-1072.603 -1736.387)"/></svg>