<svg xmlns="http://www.w3.org/2000/svg" width="89.939" height="120" viewBox="0 0 89.939 120"><defs><style>.a{fill:#581;}</style></defs><g transform="translate(-1429.715 -1048.95)"><path class="a" d="M1517.9,1077.131a1.758,1.758,0,0,0-1.758,1.758v86.424a.121.121,0,0,1-.121.121h-82.666a.121.121,0,0,1-.121-.121V1052.587a.121.121,0,0,1,.121-.121h62.12v17.029a3.641,3.641,0,0,0,3.637,3.637H1517.9a1.758,1.758,0,0,0,1.243-3l-20.667-20.666c-.014-.015-.029-.029-.045-.044h0l0,0,0,0h0l0,0h0a1.749,1.749,0,0,0-1.177-.462h-63.889a3.641,3.641,0,0,0-3.636,3.637v112.726a3.641,3.641,0,0,0,3.636,3.637h82.666a3.642,3.642,0,0,0,3.637-3.637v-86.424A1.758,1.758,0,0,0,1517.9,1077.131Zm-18.909-22.18,14.665,14.665h-14.544a.121.121,0,0,1-.121-.121Z"/><path class="a" d="M1446.382,1076.658a1.758,1.758,0,0,0-3.516,0c0,2.808,2.366,5.1,5.636,5.706v.283a1.758,1.758,0,1,0,3.516,0v-.283c3.27-.611,5.636-2.9,5.636-5.706,0-3.923-3.134-5.572-5.636-6.52v-6.128c1.3.425,2.121,1.284,2.121,2.08a1.758,1.758,0,1,0,3.515,0c0-2.808-2.366-5.095-5.636-5.706v-.282a1.758,1.758,0,1,0-3.516,0v.282c-3.27.611-5.636,2.9-5.636,5.706,0,3.923,3.135,5.572,5.636,6.521v6.128C1447.2,1078.313,1446.382,1077.455,1446.382,1076.658Zm7.757,0c0,.8-.819,1.656-2.121,2.081v-4.767C1453.78,1074.835,1454.139,1075.588,1454.139,1076.658Zm-7.757-10.568c0-.8.818-1.655,2.12-2.08v4.766C1446.74,1067.914,1446.382,1067.161,1446.382,1066.09Z"/><path class="a" d="M1508.381,1092.041a1.758,1.758,0,0,0-1.758-1.758h-63.878a1.758,1.758,0,0,0-1.758,1.758v33.818a1.757,1.757,0,0,0,1.758,1.757h63.878a1.757,1.757,0,0,0,1.758-1.757v-33.818Zm-30.06,20.787v-7.757h11.514v7.757Zm11.514,3.516v7.757h-11.514v-7.757Zm-45.332-11.273h30.3v7.757h-30.3Zm33.818-3.516V1093.8h11.514v7.757Zm15.03,3.516h11.514v7.757h-11.514Zm11.514-3.516h-11.514V1093.8h11.514Zm-30.06-7.757v7.757h-30.3V1093.8Zm-30.3,22.546h30.3v7.757h-30.3Zm48.848,7.757v-7.757h11.514v7.757Z"/><path class="a" d="M1463.532,1144.646a11.152,11.152,0,1,0,11.152-11.151A11.165,11.165,0,0,0,1463.532,1144.646Zm18.788,0a7.636,7.636,0,1,1-7.636-7.636A7.644,7.644,0,0,1,1482.32,1144.646Z"/><path class="a" d="M1471.047,1144.646a3.637,3.637,0,1,0,3.637-3.636A3.641,3.641,0,0,0,1471.047,1144.646Z"/><path class="a" d="M1457.775,1139.131h-15.03a1.758,1.758,0,0,0,0,3.516h15.03a1.758,1.758,0,0,0,0-3.516Z"/><path class="a" d="M1457.775,1146.646H1446.5a1.758,1.758,0,0,0,0,3.516h11.273a1.758,1.758,0,0,0,0-3.516Z"/><path class="a" d="M1504.744,1137.252h-11.272a3.641,3.641,0,0,0-3.637,3.637v7.515a3.64,3.64,0,0,0,3.637,3.636h11.272a3.64,3.64,0,0,0,3.637-3.636v-7.515A3.642,3.642,0,0,0,1504.744,1137.252Zm.121,11.152a.121.121,0,0,1-.121.121h-11.273a.121.121,0,0,1-.12-.121v-7.515a.121.121,0,0,1,.12-.121h11.273a.121.121,0,0,1,.121.121v7.515Z"/><path class="a" d="M1484.078,1065.617a1.758,1.758,0,0,0,0-3.516h-3.757a1.758,1.758,0,1,0,0,3.516Z"/><path class="a" d="M1465.29,1065.617h7.515a1.758,1.758,0,0,0,0-3.516h-7.515a1.758,1.758,0,1,0,0,3.516Z"/><path class="a" d="M1465.29,1073.132h24.424a1.758,1.758,0,1,0,0-3.515H1465.29a1.758,1.758,0,1,0,0,3.515Z"/><path class="a" d="M1489.714,1077.132h-3.757a1.758,1.758,0,1,0,0,3.515h3.757a1.758,1.758,0,1,0,0-3.515Z"/><path class="a" d="M1465.29,1080.647h13.152a1.758,1.758,0,0,0,0-3.515H1465.29a1.758,1.758,0,1,0,0,3.515Z"/></g></svg>